{"glyphs":{"0":{"ha":918,"x_min":83,"x_max":838,"o":"m 478 849 q 750 735 663 849 q 838 428 838 622 q 787 199 838 301 q 649 40 736 97 q 456 -18 561 -18 q 249 41 333 -18 q 124 199 165 100 q 83 421 83 299 q 137 645 83 547 q 281 796 190 743 q 478 849 371 849 m 454 765 q 310 681 353 765 q 268 438 268 596 q 290 260 268 346 q 356 121 313 175 q 464 65 400 67 q 610 153 568 63 q 651 415 651 243 q 603 667 651 569 q 454 765 554 765 z "},"1":{"ha":649,"x_min":64,"x_max":608,"o":"m 268 94 l 268 665 l 82 636 l 64 718 q 239 787 125 736 q 381 858 353 838 l 438 847 l 435 94 l 608 74 l 608 0 l 78 0 l 78 74 l 268 94 z "},"2":{"ha":838,"x_min":78,"x_max":783,"o":"m 78 67 q 392 319 264 182 q 521 572 521 456 q 478 694 521 643 q 354 746 436 746 q 229 717 290 746 q 119 647 168 689 l 78 713 q 217 813 119 769 q 411 857 314 857 q 564 825 499 857 q 664 739 629 793 q 699 619 699 685 q 582 349 699 482 q 271 96 465 217 l 646 132 l 710 221 l 783 199 l 738 0 l 103 0 l 78 67 z "},"3":{"ha":738,"x_min":39,"x_max":672,"o":"m 344 861 q 533 804 457 861 q 610 636 610 747 q 578 530 610 585 q 495 433 546 475 q 389 376 444 392 q 542 347 478 378 q 639 263 606 317 q 672 142 672 210 q 611 -41 672 43 q 443 -175 550 -125 q 207 -225 336 -225 q 82 -214 142 -225 l 82 -122 q 175 -132 125 -132 q 337 -99 263 -132 q 454 -8 411 -67 q 497 122 497 50 q 448 267 497 218 q 288 319 399 315 q 238 308 254 311 l 171 294 l 171 397 q 360 472 281 414 q 439 608 439 531 q 398 717 439 682 q 294 753 357 753 q 183 735 228 753 q 83 681 138 717 l 39 750 q 168 828 88 796 q 344 861 249 861 z "},"4":{"ha":864,"x_min":51,"x_max":813,"o":"m 132 213 q 334 573 261 439 q 478 864 407 707 l 529 864 l 636 788 l 243 158 l 194 90 l 529 115 l 533 411 l 678 440 l 678 128 l 813 138 l 813 0 l 678 0 l 678 -256 l 522 -256 l 526 0 l 76 0 l 51 72 l 132 213 z "},"5":{"ha":746,"x_min":85,"x_max":672,"o":"m 86 -151 q 128 -153 100 -153 q 306 -114 222 -153 q 442 -5 390 -75 q 493 157 493 65 q 437 326 493 272 q 283 381 381 381 q 133 356 213 381 l 88 378 l 136 839 l 526 839 l 546 856 l 628 856 l 586 701 l 256 701 l 208 444 q 369 478 288 478 q 521 443 451 478 q 631 340 590 408 q 672 178 672 272 q 603 -26 672 69 q 415 -180 533 -122 q 160 -237 297 -237 q 85 -229 113 -237 l 86 -151 z "},"6":{"ha":872,"x_min":83,"x_max":800,"o":"m 717 971 q 482 849 585 932 q 320 658 379 765 q 260 443 261 550 q 299 170 256 274 q 460 67 342 67 q 591 139 546 67 q 636 310 636 211 q 592 482 636 417 q 476 547 547 547 q 410 539 435 547 q 360 515 385 531 l 328 572 q 410 631 347 606 q 535 657 472 657 q 679 616 619 657 q 769 507 739 575 q 800 360 800 439 q 755 176 800 263 q 627 37 710 89 q 436 -15 544 -15 q 251 38 331 -15 q 127 180 171 90 q 83 379 83 269 q 169 687 83 544 q 392 924 254 829 q 679 1044 531 1018 l 717 971 z "},"7":{"ha":838,"x_min":92,"x_max":774,"o":"m 222 -158 q 420 256 321 35 q 635 750 519 476 l 246 733 l 186 601 l 92 607 l 122 850 l 744 850 l 774 818 l 394 -219 l 222 -158 z "},"8":{"ha":856,"x_min":81,"x_max":786,"o":"m 446 1056 q 595 1026 528 1056 q 701 943 663 997 q 740 817 740 889 q 686 663 740 742 q 556 547 632 583 q 726 415 665 479 q 786 274 786 351 q 737 112 786 178 q 608 14 688 46 q 438 -18 529 -18 q 264 12 346 -18 q 131 103 182 42 q 81 253 81 164 q 138 410 81 335 q 296 531 194 485 q 175 649 218 586 q 132 792 132 711 q 176 936 132 876 q 292 1026 219 996 q 446 1056 364 1056 m 438 979 q 322 936 372 979 q 272 826 272 893 q 326 711 272 765 q 478 597 381 657 q 565 675 531 619 q 599 793 599 731 q 552 926 599 874 q 438 979 506 979 m 368 483 q 274 401 311 451 q 238 294 238 351 q 264 178 238 231 q 340 94 290 125 q 456 63 390 63 q 542 83 501 63 q 606 142 582 104 q 631 228 631 179 q 602 312 631 274 q 531 380 574 350 q 415 454 489 410 l 368 483 z "},"9":{"ha":871,"x_min":75,"x_max":785,"o":"m 171 -201 q 397 -66 297 -162 q 551 154 496 31 q 608 393 606 278 l 610 440 q 567 680 610 590 q 415 769 524 769 q 283 697 329 769 q 238 525 238 624 q 283 353 238 419 q 399 288 329 288 q 465 297 433 288 q 515 321 497 307 l 547 263 q 463 202 521 225 q 340 179 406 179 q 197 220 257 179 q 106 328 136 261 q 75 475 75 396 q 120 660 75 574 q 248 798 165 746 q 439 850 331 850 q 624 797 546 850 q 743 655 701 744 q 785 457 785 565 q 702 124 785 283 q 485 -143 619 -36 q 206 -276 351 -250 l 171 -201 z "},"\r":{"ha":0,"x_min":0,"x_max":0,"o":""}," ":{"ha":310,"x_min":0,"x_max":0,"o":""},"A":{"ha":1038,"x_min":1,"x_max":1036,"o":"m 96 94 l 442 1053 l 597 1053 l 929 94 l 1036 71 l 1036 0 l 639 0 l 639 71 l 743 94 l 688 271 l 296 271 l 238 96 l 346 72 l 346 0 l 1 0 l 1 72 l 96 94 m 554 689 l 494 888 l 326 368 l 656 368 l 554 689 z "},"Á":{"ha":1038,"x_min":1,"x_max":1036,"o":"m 685 1303 l 796 1190 q 656 1124 740 1153 q 503 1088 572 1096 l 456 1136 l 685 1303 m 96 94 l 442 1053 l 597 1053 l 929 94 l 1036 71 l 1036 0 l 639 0 l 639 71 l 743 94 l 688 271 l 296 271 l 238 96 l 346 72 l 346 0 l 1 0 l 1 72 l 96 94 m 554 689 l 494 888 l 326 368 l 656 368 l 554 689 z "},"Ă":{"ha":1038,"x_min":1,"x_max":1036,"o":"m 1 0 m 751 1333 q 722 1225 751 1275 q 638 1145 692 1175 q 519 1115 585 1115 q 399 1144 451 1115 q 317 1224 346 1174 q 288 1333 288 1274 l 376 1333 q 422 1259 392 1290 q 521 1228 451 1228 q 617 1258 588 1228 q 665 1333 647 1289 l 751 1333 m 96 94 l 442 1053 l 597 1053 l 929 94 l 1036 71 l 1036 0 l 639 0 l 639 71 l 743 94 l 688 271 l 296 271 l 238 96 l 346 72 l 346 0 l 1 0 l 1 72 l 96 94 m 554 689 l 494 888 l 326 368 l 656 368 l 554 689 z "},"Â":{"ha":1038,"x_min":1,"x_max":1036,"o":"m 450 1303 l 590 1303 l 767 1131 l 701 1092 l 521 1194 l 335 1092 l 274 1129 l 450 1303 m 96 94 l 442 1053 l 597 1053 l 929 94 l 1036 71 l 1036 0 l 639 0 l 639 71 l 743 94 l 688 271 l 296 271 l 238 96 l 346 72 l 346 0 l 1 0 l 1 72 l 96 94 m 554 689 l 494 888 l 326 368 l 656 368 l 554 689 z "},"Ä":{"ha":1038,"x_min":1,"x_max":1036,"o":"m 360 1304 q 433 1280 406 1304 q 460 1214 460 1256 q 424 1140 460 1169 q 342 1111 389 1111 q 273 1135 301 1111 q 244 1199 244 1158 q 281 1273 244 1242 q 360 1304 317 1304 m 696 1304 q 769 1280 743 1304 q 794 1214 794 1256 q 760 1140 794 1169 q 679 1111 726 1111 q 608 1135 638 1111 q 579 1199 579 1160 q 615 1274 579 1243 q 696 1304 651 1304 m 929 94 l 1036 71 l 1036 0 l 639 0 l 639 71 l 743 94 l 688 271 l 296 271 l 238 96 l 346 72 l 346 0 l 1 0 l 1 72 l 96 94 l 442 1053 l 597 1053 l 929 94 m 326 368 l 656 368 l 554 689 l 494 888 l 326 368 z "},"À":{"ha":1038,"x_min":1,"x_max":1036,"o":"m 535 1088 q 386 1124 468 1094 q 247 1190 304 1153 l 360 1303 l 583 1136 l 535 1088 m 96 94 l 442 1053 l 597 1053 l 929 94 l 1036 71 l 1036 0 l 639 0 l 639 71 l 743 94 l 688 271 l 296 271 l 238 96 l 346 72 l 346 0 l 1 0 l 1 72 l 96 94 m 554 689 l 494 888 l 326 368 l 656 368 l 554 689 z "},"Ā":{"ha":1038,"x_min":1,"x_max":1036,"o":"m 1 0 m 701 1269 l 701 1146 l 333 1146 l 333 1269 l 701 1269 m 96 94 l 442 1053 l 597 1053 l 929 94 l 1036 71 l 1036 0 l 639 0 l 639 71 l 743 94 l 688 271 l 296 271 l 238 96 l 346 72 l 346 0 l 1 0 l 1 72 l 96 94 m 554 689 l 494 888 l 326 368 l 656 368 l 554 689 z "},"Ą":{"ha":1038,"x_min":1,"x_max":1036,"o":"m 96 94 l 442 1053 l 597 1053 l 929 94 l 1036 71 l 1036 0 l 896 0 q 766 -81 829 -25 q 703 -181 703 -136 q 722 -232 703 -218 q 782 -246 742 -246 q 840 -236 811 -246 q 894 -216 869 -226 q 929 -201 919 -206 l 947 -272 q 840 -331 899 -308 q 703 -354 782 -354 q 587 -319 626 -354 q 547 -232 547 -285 q 615 -102 547 -169 q 765 0 683 -35 l 639 0 l 639 71 l 743 94 l 688 271 l 296 271 l 238 96 l 346 72 l 346 0 l 1 0 l 1 72 l 96 94 m 554 689 l 494 888 l 326 368 l 656 368 l 554 689 z "},"Å":{"ha":1038,"x_min":1,"x_max":1036,"o":"m 519 1303 q 648 1256 594 1303 q 701 1139 701 1210 q 678 1057 701 1093 q 615 1000 654 1021 l 929 94 l 1036 71 l 1036 0 l 639 0 l 639 71 l 743 94 l 688 271 l 296 271 l 238 96 l 346 72 l 346 0 l 1 0 l 1 72 l 96 94 l 424 1000 q 361 1057 385 1021 q 338 1139 338 1093 q 390 1257 338 1211 q 519 1303 442 1303 m 519 1222 q 457 1198 482 1222 q 432 1138 432 1174 q 457 1078 432 1101 q 519 1054 482 1054 q 581 1078 556 1054 q 607 1138 607 1101 q 582 1197 607 1172 q 519 1222 557 1222 m 326 368 l 656 368 l 554 689 l 494 888 l 326 368 z "},"Ã":{"ha":1038,"x_min":1,"x_max":1036,"o":"m 243 1176 q 326 1265 267 1226 q 439 1303 385 1303 q 494 1291 471 1303 q 546 1258 517 1279 q 587 1232 569 1240 q 624 1224 604 1224 q 743 1276 690 1224 l 788 1219 q 706 1134 764 1169 q 594 1099 649 1099 q 538 1110 563 1099 q 485 1144 514 1122 q 444 1172 461 1163 q 408 1181 428 1181 q 344 1165 378 1181 q 288 1126 311 1149 l 243 1176 m 96 94 l 442 1053 l 597 1053 l 929 94 l 1036 71 l 1036 0 l 639 0 l 639 71 l 743 94 l 688 271 l 296 271 l 238 96 l 346 72 l 346 0 l 1 0 l 1 72 l 96 94 m 554 689 l 494 888 l 326 368 l 656 368 l 554 689 z "},"Æ":{"ha":1315,"x_min":1,"x_max":1286,"o":"m 93 93 l 481 1053 l 1163 1053 l 1183 846 l 1093 844 l 1057 954 l 689 965 l 800 596 l 1028 600 l 1050 704 l 1129 704 l 1129 401 l 1050 401 l 1028 499 l 828 504 l 954 85 l 1133 99 l 1204 235 l 1286 207 l 1254 0 l 657 0 l 657 72 l 765 94 l 708 281 l 297 281 l 228 94 l 343 72 l 343 0 l 1 0 l 1 72 l 93 93 m 557 785 l 533 906 l 336 379 l 679 379 l 557 785 z "},"B":{"ha":971,"x_min":65,"x_max":918,"o":"m 176 94 l 176 957 l 68 969 l 68 1053 l 254 1053 q 296 1054 276 1053 q 331 1057 315 1056 q 481 1063 422 1063 q 753 1001 657 1063 q 849 819 849 940 q 800 656 849 724 q 658 568 751 589 q 790 533 731 567 q 884 441 850 499 q 918 311 918 383 q 801 74 918 156 q 464 -8 685 -8 q 390 -7 432 -8 q 325 -4 347 -6 q 283 -1 307 -3 q 231 0 260 0 l 65 0 l 65 72 l 176 94 m 349 597 q 424 593 371 593 l 483 593 q 635 645 585 593 q 686 797 686 697 q 628 932 686 886 q 469 978 571 978 q 406 976 443 978 q 350 968 368 975 l 349 597 m 347 100 q 412 83 364 90 q 507 76 460 76 q 675 131 613 76 q 738 290 738 186 q 679 449 738 396 q 511 501 621 501 l 436 501 q 347 497 374 501 l 347 100 z "},"C":{"ha":971,"x_min":54,"x_max":904,"o":"m 619 1063 q 749 1051 690 1063 q 869 1024 807 1040 l 903 1015 l 890 796 l 794 796 l 753 917 q 680 955 719 943 q 568 967 640 967 q 401 914 475 967 q 283 765 326 861 q 240 540 240 668 q 280 306 240 414 q 397 134 319 199 q 582 69 474 69 q 779 140 732 69 l 824 256 l 904 256 l 904 44 q 831 26 882 43 q 702 -7 765 6 q 556 -19 639 -19 q 296 44 410 -19 q 118 224 182 108 q 54 492 54 340 q 131 788 54 657 q 337 990 207 918 q 619 1063 467 1063 z "},"Ć":{"ha":971,"x_min":54,"x_max":904,"o":"m 54 0 m 619 1063 q 749 1051 690 1063 q 869 1024 807 1040 l 903 1015 l 890 796 l 794 796 l 753 917 q 680 955 719 943 q 568 967 640 967 q 401 914 475 967 q 283 765 326 861 q 240 540 240 668 q 280 306 240 414 q 397 134 319 199 q 582 69 474 69 q 779 140 732 69 l 824 256 l 904 256 l 904 44 q 831 26 882 43 q 702 -7 765 6 q 556 -19 639 -19 q 296 44 410 -19 q 118 224 182 108 q 54 492 54 340 q 131 788 54 657 q 337 990 207 918 q 619 1063 467 1063 m 706 1303 l 818 1190 q 678 1124 763 1153 q 525 1088 593 1096 l 478 1136 l 706 1303 z "},"Č":{"ha":971,"x_min":54,"x_max":904,"o":"m 54 0 m 619 1063 q 749 1051 690 1063 q 869 1024 807 1040 l 903 1015 l 890 796 l 794 796 l 753 917 q 680 955 719 943 q 568 967 640 967 q 401 914 475 967 q 283 765 326 861 q 240 540 240 668 q 280 306 240 414 q 397 134 319 199 q 582 69 474 69 q 779 140 732 69 l 824 256 l 904 256 l 904 44 q 831 26 882 43 q 702 -7 765 6 q 556 -19 639 -19 q 296 44 410 -19 q 118 224 182 108 q 54 492 54 340 q 131 788 54 657 q 337 990 207 918 q 619 1063 467 1063 m 369 1303 l 543 1197 l 722 1303 l 783 1264 l 613 1092 l 474 1092 l 303 1264 l 369 1303 z "},"Ç":{"ha":969,"x_min":53,"x_max":903,"o":"m 617 1063 q 747 1051 688 1063 q 868 1024 806 1040 l 901 1015 l 889 796 l 793 796 l 751 917 q 678 955 718 943 q 567 967 639 967 q 399 913 474 967 q 282 763 325 860 q 239 540 239 667 q 278 306 239 414 q 395 134 318 199 q 581 69 472 69 q 778 140 728 69 l 822 256 l 903 256 l 903 44 q 828 26 882 43 q 715 -4 764 7 q 603 -17 665 -15 q 604 -86 601 -42 q 724 -126 682 -87 q 767 -215 767 -165 q 710 -323 767 -287 q 560 -358 653 -358 q 485 -351 517 -358 q 443 -342 453 -343 l 443 -261 q 480 -268 454 -265 q 522 -271 506 -271 q 580 -258 560 -271 q 600 -210 600 -246 q 578 -168 600 -183 q 517 -153 557 -153 q 494 -154 504 -153 q 481 -156 485 -156 q 504 -17 483 -90 q 267 60 369 -7 q 109 238 165 126 q 53 492 53 350 q 130 788 53 658 q 336 990 207 918 q 617 1063 465 1063 z "},"D":{"ha":1086,"x_min":68,"x_max":1031,"o":"m 176 94 l 176 957 l 71 969 l 71 1053 l 265 1053 q 401 1058 321 1053 q 454 1061 419 1060 q 518 1063 489 1063 q 901 931 772 1063 q 1031 556 1031 799 q 963 257 1031 385 q 774 61 894 129 q 500 -7 654 -7 q 397 -4 467 -7 q 268 0 338 0 l 68 0 l 68 72 l 176 94 m 349 101 q 489 79 406 79 q 528 81 514 79 q 692 138 619 85 q 807 289 765 192 q 849 515 849 386 q 756 858 849 742 q 493 974 664 974 q 349 960 404 974 l 349 101 z "},"Ð":{"ha":1085,"x_min":56,"x_max":1032,"o":"m 176 94 l 176 486 l 56 486 l 56 600 l 176 600 l 176 957 l 72 969 l 72 1053 l 265 1053 q 403 1058 322 1053 q 456 1061 421 1060 q 518 1063 490 1063 q 903 931 774 1063 q 1032 556 1032 799 q 964 257 1032 385 q 776 61 896 129 q 501 -7 656 -7 q 397 -4 469 -7 q 269 0 339 0 l 69 0 l 69 72 l 176 94 m 349 101 q 489 79 406 79 q 528 81 514 79 q 692 138 619 85 q 807 289 765 192 q 849 515 849 386 q 756 858 849 742 q 490 974 663 974 q 349 960 403 974 l 349 600 l 526 600 l 526 486 l 349 486 l 349 101 z "},"Ď":{"ha":1086,"x_min":68,"x_max":1031,"o":"m 68 0 m 176 94 l 176 957 l 71 969 l 71 1053 l 265 1053 q 401 1058 321 1053 q 454 1061 419 1060 q 518 1063 489 1063 q 901 931 772 1063 q 1031 556 1031 799 q 963 257 1031 385 q 774 61 894 129 q 500 -7 654 -7 q 397 -4 467 -7 q 268 0 338 0 l 68 0 l 68 72 l 176 94 m 349 101 q 489 79 406 79 q 528 81 514 79 q 692 138 619 85 q 807 289 765 192 q 849 515 849 386 q 756 858 849 742 q 493 974 664 974 q 349 960 404 974 l 349 101 m 329 1303 l 503 1197 l 682 1303 l 743 1264 l 572 1092 l 433 1092 l 263 1264 l 329 1303 z "},"Đ":{"ha":1085,"x_min":56,"x_max":1032,"o":"m 56 0 m 176 94 l 176 486 l 56 486 l 56 600 l 176 600 l 176 957 l 72 969 l 72 1053 l 265 1053 q 403 1058 322 1053 q 456 1061 421 1060 q 518 1063 490 1063 q 903 931 774 1063 q 1032 556 1032 799 q 964 257 1032 385 q 776 61 896 129 q 501 -7 656 -7 q 397 -4 469 -7 q 269 0 339 0 l 69 0 l 69 72 l 176 94 m 349 101 q 489 79 406 79 q 528 81 514 79 q 692 138 619 85 q 807 289 765 192 q 849 515 849 386 q 756 858 849 742 q 490 974 663 974 q 349 960 403 974 l 349 600 l 526 600 l 526 486 l 349 486 l 349 101 z "},"E":{"ha":919,"x_min":69,"x_max":881,"o":"m 178 94 l 178 957 l 72 969 l 72 1053 l 800 1053 l 819 846 l 722 846 l 679 957 l 350 968 l 350 588 l 574 594 l 600 699 l 689 699 l 689 393 l 600 393 l 574 497 l 350 501 l 350 86 l 714 101 l 789 239 l 881 219 l 849 0 l 69 0 l 69 72 l 178 94 z "},"É":{"ha":919,"x_min":69,"x_max":881,"o":"m 661 1303 l 772 1190 q 633 1124 718 1153 q 481 1088 549 1096 l 433 1136 l 661 1303 m 178 94 l 178 957 l 72 969 l 72 1053 l 800 1053 l 819 846 l 722 846 l 679 957 l 350 968 l 350 588 l 574 594 l 600 699 l 689 699 l 689 393 l 600 393 l 574 497 l 350 501 l 350 86 l 714 101 l 789 239 l 881 219 l 849 0 l 69 0 l 69 72 l 178 94 z "},"Ě":{"ha":919,"x_min":69,"x_max":881,"o":"m 69 0 m 178 94 l 178 957 l 72 969 l 72 1053 l 800 1053 l 819 846 l 722 846 l 679 957 l 350 968 l 350 588 l 574 594 l 600 699 l 689 699 l 689 393 l 600 393 l 574 497 l 350 501 l 350 86 l 714 101 l 789 239 l 881 219 l 849 0 l 69 0 l 69 72 l 178 94 m 290 1303 l 464 1197 l 643 1303 l 704 1264 l 533 1092 l 394 1092 l 224 1264 l 290 1303 z "},"Ê":{"ha":919,"x_min":69,"x_max":881,"o":"m 426 1303 l 567 1303 l 743 1131 l 678 1092 l 497 1194 l 311 1092 l 250 1129 l 426 1303 m 178 94 l 178 957 l 72 969 l 72 1053 l 800 1053 l 819 846 l 722 846 l 679 957 l 350 968 l 350 588 l 574 594 l 600 699 l 689 699 l 689 393 l 600 393 l 574 497 l 350 501 l 350 86 l 714 101 l 789 239 l 881 219 l 849 0 l 69 0 l 69 72 l 178 94 z "},"Ë":{"ha":919,"x_min":69,"x_max":881,"o":"m 336 1304 q 410 1279 383 1304 q 438 1214 438 1254 q 401 1140 438 1169 q 318 1111 365 1111 q 250 1135 279 1111 q 221 1199 221 1158 q 257 1273 221 1242 q 336 1304 293 1304 m 672 1304 q 745 1280 719 1304 q 771 1214 771 1256 q 737 1140 771 1169 q 656 1111 703 1111 q 585 1135 614 1111 q 556 1199 556 1160 q 592 1274 556 1243 q 672 1304 628 1304 m 819 846 l 722 846 l 679 957 l 350 968 l 350 588 l 574 594 l 600 699 l 689 699 l 689 393 l 600 393 l 574 497 l 350 501 l 350 86 l 714 101 l 789 239 l 881 219 l 849 0 l 69 0 l 69 72 l 178 94 l 178 957 l 72 969 l 72 1053 l 800 1053 l 819 846 z "},"Ė":{"ha":919,"x_min":69,"x_max":881,"o":"m 69 0 m 178 94 l 178 957 l 72 969 l 72 1053 l 800 1053 l 819 846 l 722 846 l 679 957 l 350 968 l 350 588 l 574 594 l 600 699 l 689 699 l 689 393 l 600 393 l 574 497 l 350 501 l 350 86 l 714 101 l 789 239 l 881 219 l 849 0 l 69 0 l 69 72 l 178 94 m 506 1310 q 584 1284 556 1310 q 613 1214 613 1258 q 574 1135 613 1165 q 488 1104 536 1104 q 415 1129 446 1104 q 383 1197 383 1154 q 421 1277 383 1244 q 506 1310 458 1310 z "},"È":{"ha":919,"x_min":69,"x_max":881,"o":"m 511 1088 q 366 1123 453 1093 q 225 1190 279 1153 l 336 1303 l 560 1136 l 511 1088 m 178 94 l 178 957 l 72 969 l 72 1053 l 800 1053 l 819 846 l 722 846 l 679 957 l 350 968 l 350 588 l 574 594 l 600 699 l 689 699 l 689 393 l 600 393 l 574 497 l 350 501 l 350 86 l 714 101 l 789 239 l 881 219 l 849 0 l 69 0 l 69 72 l 178 94 z "},"Ē":{"ha":919,"x_min":69,"x_max":881,"o":"m 69 0 m 178 94 l 178 957 l 72 969 l 72 1053 l 800 1053 l 819 846 l 722 846 l 679 957 l 350 968 l 350 588 l 574 594 l 600 699 l 689 699 l 689 393 l 600 393 l 574 497 l 350 501 l 350 86 l 714 101 l 789 239 l 881 219 l 849 0 l 69 0 l 69 72 l 178 94 m 686 1269 l 686 1146 l 318 1146 l 318 1269 l 686 1269 z "},"Ę":{"ha":919,"x_min":69,"x_max":890,"o":"m 178 94 l 178 957 l 72 969 l 72 1053 l 800 1053 l 819 846 l 722 846 l 679 957 l 350 968 l 350 588 l 574 594 l 600 699 l 689 699 l 689 393 l 600 393 l 574 497 l 350 501 l 350 86 l 714 101 l 789 239 l 881 219 l 849 0 l 838 0 q 708 -82 769 -28 q 647 -181 647 -136 q 665 -230 647 -217 q 719 -246 682 -243 q 782 -237 751 -247 q 838 -217 813 -228 q 872 -201 863 -206 l 890 -272 q 783 -331 842 -308 q 644 -354 725 -354 q 531 -319 569 -354 q 492 -231 492 -285 q 559 -102 492 -169 q 708 0 626 -35 l 69 0 l 69 72 l 178 94 z "},"F":{"ha":860,"x_min":67,"x_max":829,"o":"m 176 92 l 176 957 l 68 969 l 68 1053 l 814 1053 l 829 844 l 743 843 l 706 951 l 349 963 l 349 576 l 610 583 l 643 683 l 722 683 l 722 378 l 633 378 l 611 482 l 349 486 l 349 96 l 551 81 l 551 0 l 67 0 l 67 72 l 176 92 z "},"G":{"ha":1053,"x_min":53,"x_max":1008,"o":"m 603 1063 q 784 1050 700 1063 q 926 1022 868 1038 l 914 811 l 824 811 l 779 928 q 710 959 765 944 q 569 972 654 974 q 398 917 474 972 q 279 765 322 863 q 236 543 236 668 q 272 307 236 415 q 381 133 307 199 q 565 67 456 67 q 687 85 629 67 q 769 143 744 104 l 769 383 l 614 397 l 614 481 l 1008 481 l 1008 397 l 932 383 l 932 49 q 873 42 911 50 q 793 24 835 33 q 651 -8 713 3 q 528 -19 589 -19 q 281 47 389 -19 q 113 232 172 114 q 53 497 53 350 q 125 795 53 667 q 322 993 197 924 q 603 1063 447 1063 z "},"Ğ":{"ha":1053,"x_min":53,"x_max":1008,"o":"m 53 0 m 603 1063 q 784 1050 700 1063 q 926 1022 868 1038 l 914 811 l 824 811 l 779 928 q 710 959 765 944 q 569 972 654 974 q 398 917 474 972 q 279 765 322 863 q 236 543 236 668 q 272 307 236 415 q 381 133 307 199 q 565 67 456 67 q 687 85 629 67 q 769 143 744 104 l 769 383 l 614 397 l 614 481 l 1008 481 l 1008 397 l 932 383 l 932 49 q 873 42 911 50 q 793 24 835 33 q 651 -8 713 3 q 528 -19 589 -19 q 281 47 389 -19 q 113 232 172 114 q 53 497 53 350 q 125 795 53 667 q 322 993 197 924 q 603 1063 447 1063 m 806 1303 q 776 1194 806 1244 q 692 1115 746 1144 q 574 1085 639 1085 q 453 1114 506 1085 q 371 1193 400 1143 q 342 1303 342 1243 l 431 1303 q 476 1228 446 1260 q 575 1197 506 1197 q 672 1228 642 1197 q 719 1303 701 1258 l 806 1303 z "},"Ģ":{"ha":1053,"x_min":53,"x_max":1008,"o":"m 53 0 m 603 1063 q 784 1050 700 1063 q 926 1022 868 1038 l 914 811 l 824 811 l 779 928 q 710 959 765 944 q 569 972 654 974 q 398 917 474 972 q 279 765 322 863 q 236 543 236 668 q 272 307 236 415 q 381 133 307 199 q 565 67 456 67 q 687 85 629 67 q 769 143 744 104 l 769 383 l 614 397 l 614 481 l 1008 481 l 1008 397 l 932 383 l 932 49 q 873 42 911 50 q 793 24 835 33 q 651 -8 713 3 q 528 -19 589 -19 q 281 47 389 -19 q 113 232 172 114 q 53 497 53 350 q 125 795 53 667 q 322 993 197 924 q 603 1063 447 1063 m 540 -26 q 652 -90 611 -39 q 693 -206 693 -140 q 666 -308 693 -260 q 599 -390 639 -357 q 522 -435 558 -424 l 468 -400 l 468 -382 q 518 -326 501 -362 q 535 -246 535 -289 q 510 -182 535 -210 q 460 -154 485 -154 l 460 -112 l 540 -26 z "},"H":{"ha":1175,"x_min":63,"x_max":1118,"o":"m 176 94 l 176 957 l 63 969 l 63 1053 l 463 1053 l 463 969 l 350 957 l 350 568 l 826 568 l 826 958 l 714 969 l 714 1053 l 1111 1053 l 1111 969 l 999 957 l 999 94 l 1118 71 l 1118 0 l 707 0 l 707 71 l 826 94 l 826 471 l 350 471 l 350 94 l 468 72 l 468 0 l 63 0 l 63 72 l 176 94 z "},"I":{"ha":539,"x_min":58,"x_max":482,"o":"m 183 94 l 183 957 l 60 969 l 60 1053 l 474 1053 l 474 969 l 356 957 l 356 94 l 482 72 l 482 0 l 58 0 l 58 72 l 183 94 z "},"Ĳ":{"ha":1042,"x_min":58,"x_max":996,"o":"m 183 94 l 183 957 l 60 969 l 60 1053 l 474 1053 l 474 969 l 356 957 l 356 94 l 482 72 l 482 0 l 58 0 l 58 72 l 183 94 m 474 -211 q 686 -37 638 -153 q 712 92 706 21 q 718 274 718 163 l 718 957 l 611 969 l 611 1053 l 996 1053 l 996 969 l 892 957 l 892 372 q 888 156 892 242 q 868 13 883 71 q 790 -128 847 -68 q 660 -224 733 -189 q 513 -265 586 -258 l 474 -211 z "},"Í":{"ha":539,"x_min":58,"x_max":544,"o":"m 433 1303 l 544 1190 q 406 1124 490 1153 q 253 1088 321 1096 l 206 1136 l 433 1303 m 183 94 l 183 957 l 60 969 l 60 1053 l 474 1053 l 474 969 l 356 957 l 356 94 l 482 72 l 482 0 l 58 0 l 58 72 l 183 94 z "},"Î":{"ha":539,"x_min":22,"x_max":515,"o":"m 199 1303 l 339 1303 l 515 1131 l 450 1092 l 269 1194 l 83 1092 l 22 1129 l 199 1303 m 183 94 l 183 957 l 60 969 l 60 1053 l 474 1053 l 474 969 l 356 957 l 356 94 l 482 72 l 482 0 l 58 0 l 58 72 l 183 94 z "},"Ï":{"ha":539,"x_min":-7,"x_max":543,"o":"m 108 1304 q 183 1280 156 1304 q 210 1214 210 1256 q 174 1140 210 1169 q 92 1111 138 1111 q 22 1135 51 1111 q -7 1199 -7 1158 q 29 1273 -7 1242 q 108 1304 65 1304 m 444 1304 q 517 1280 492 1304 q 543 1214 543 1256 q 509 1140 543 1169 q 428 1111 475 1111 q 357 1135 386 1111 q 328 1199 328 1160 q 364 1274 328 1243 q 444 1304 400 1304 m 474 969 l 356 957 l 356 94 l 482 72 l 482 0 l 58 0 l 58 72 l 183 94 l 183 957 l 60 969 l 60 1053 l 474 1053 l 474 969 z "},"İ":{"ha":539,"x_min":58,"x_max":482,"o":"m 58 0 m 183 94 l 183 957 l 60 969 l 60 1053 l 474 1053 l 474 969 l 356 957 l 356 94 l 482 72 l 482 0 l 58 0 l 58 72 l 183 94 m 275 1310 q 353 1284 325 1310 q 382 1214 382 1258 q 344 1135 382 1165 q 257 1104 306 1104 q 184 1129 215 1104 q 153 1197 153 1154 q 190 1277 153 1244 q 275 1310 228 1310 z "},"Ì":{"ha":539,"x_min":-3,"x_max":482,"o":"m 285 1088 q 139 1123 226 1093 q -3 1190 51 1153 l 108 1303 l 332 1136 l 285 1088 m 183 94 l 183 957 l 60 969 l 60 1053 l 474 1053 l 474 969 l 356 957 l 356 94 l 482 72 l 482 0 l 58 0 l 58 72 l 183 94 z "},"Ī":{"ha":528,"x_min":58,"x_max":482,"o":"m 58 0 m 447 1288 l 447 1164 l 79 1164 l 79 1288 l 447 1288 m 183 94 l 183 957 l 60 969 l 60 1053 l 474 1053 l 474 969 l 356 957 l 356 94 l 482 72 l 482 0 l 58 0 l 58 72 l 183 94 z "},"Į":{"ha":539,"x_min":58,"x_max":482,"o":"m 428 0 q 342 -44 386 -12 q 267 -112 297 -75 q 238 -178 238 -149 q 308 -246 238 -246 q 413 -219 349 -246 l 429 -292 q 335 -338 392 -322 q 217 -354 279 -354 q 118 -319 157 -354 q 79 -229 79 -285 q 112 -144 79 -190 q 196 -60 144 -99 q 303 0 247 -21 l 58 0 l 58 72 l 183 94 l 183 957 l 60 969 l 60 1053 l 474 1053 l 474 969 l 356 957 l 356 94 l 482 72 l 482 0 l 428 0 z "},"Ĩ":{"ha":539,"x_min":-8,"x_max":538,"o":"m -8 1176 q 74 1265 15 1226 q 188 1303 133 1303 q 242 1292 218 1303 q 296 1258 265 1281 q 335 1232 319 1240 q 371 1224 351 1224 q 492 1276 439 1224 l 538 1219 q 454 1134 513 1169 q 342 1099 396 1099 q 286 1110 310 1099 q 233 1144 263 1122 q 193 1172 210 1163 q 157 1181 176 1181 q 94 1165 126 1181 q 36 1126 61 1149 l -8 1176 m 183 94 l 183 957 l 60 969 l 60 1053 l 474 1053 l 474 969 l 356 957 l 356 94 l 482 72 l 482 0 l 58 0 l 58 72 l 183 94 z "},"J":{"ha":504,"x_min":-64,"x_max":458,"o":"m 458 969 l 354 957 l 354 372 q 350 157 354 242 q 332 13 346 72 q 253 -128 310 -68 q 122 -224 196 -189 q -25 -265 49 -258 l -64 -211 q 149 -37 99 -154 q 174 89 168 19 q 181 274 181 158 l 181 957 l 72 969 l 72 1053 l 458 1053 l 458 969 z "},"Ĵ":{"ha":504,"x_min":-64,"x_max":513,"o":"m 513 1131 l 447 1092 l 267 1194 l 81 1092 l 19 1129 l 197 1303 l 336 1303 l 513 1131 m 458 969 l 354 957 l 354 372 q 350 157 354 242 q 332 13 346 72 q 253 -128 310 -68 q 122 -224 196 -189 q -25 -265 49 -258 l -64 -211 q 149 -37 99 -154 q 174 89 168 19 q 181 274 181 158 l 181 957 l 72 969 l 72 1053 l 458 1053 l 458 969 z "},"K":{"ha":990,"x_min":57,"x_max":1003,"o":"m 176 94 l 176 957 l 58 969 l 58 1053 l 463 1053 l 463 969 l 349 957 l 349 519 l 706 957 l 600 969 l 599 1053 l 967 1053 l 967 969 l 850 957 l 543 607 q 621 507 576 574 q 726 339 665 440 q 840 162 799 222 q 901 97 882 101 l 1003 72 l 1003 0 l 765 0 q 710 57 744 1 q 617 225 675 113 q 521 399 560 333 q 449 499 482 465 l 349 385 l 349 94 l 478 72 l 478 0 l 57 0 l 57 72 l 176 94 z "},"Ķ":{"ha":990,"x_min":57,"x_max":1003,"o":"m 57 0 m 176 94 l 176 957 l 58 969 l 58 1053 l 463 1053 l 463 969 l 349 957 l 349 519 l 706 957 l 600 969 l 599 1053 l 967 1053 l 967 969 l 850 957 l 543 607 q 621 507 576 574 q 726 339 665 440 q 840 162 799 222 q 901 97 882 101 l 1003 72 l 1003 0 l 765 0 q 710 57 744 1 q 617 225 675 113 q 521 399 560 333 q 449 499 482 465 l 349 385 l 349 94 l 478 72 l 478 0 l 57 0 l 57 72 l 176 94 m 536 -26 q 648 -90 607 -39 q 689 -206 689 -140 q 662 -308 689 -260 q 594 -390 635 -357 q 518 -435 554 -424 l 464 -400 l 464 -382 q 514 -326 497 -362 q 531 -246 531 -289 q 506 -182 531 -210 q 456 -154 481 -154 l 456 -112 l 536 -26 z "},"L":{"ha":854,"x_min":69,"x_max":839,"o":"m 176 93 l 176 949 l 72 960 l 72 1053 l 471 1053 l 471 960 l 351 947 l 350 89 l 668 108 l 763 271 l 839 238 l 793 0 l 69 0 l 69 72 l 176 93 z "},"Ĺ":{"ha":854,"x_min":69,"x_max":839,"o":"m 69 0 m 176 93 l 176 949 l 72 960 l 72 1053 l 471 1053 l 471 960 l 351 947 l 350 89 l 668 108 l 763 271 l 839 238 l 793 0 l 69 0 l 69 72 l 176 93 m 426 1303 l 539 1190 q 399 1124 483 1153 q 246 1088 314 1096 l 199 1136 l 426 1303 z "},"Ľ":{"ha":854,"x_min":69,"x_max":839,"o":"m 69 0 m 176 93 l 176 949 l 72 960 l 72 1053 l 471 1053 l 471 960 l 351 947 l 350 89 l 668 108 l 763 271 l 839 238 l 793 0 l 69 0 l 69 72 l 176 93 m 590 733 q 608 921 608 818 q 597 1022 608 974 q 574 1086 586 1069 l 583 1115 l 715 1149 q 747 1077 735 1128 q 760 974 760 1026 q 734 811 760 893 q 674 692 708 729 l 596 715 l 590 733 z "},"Ļ":{"ha":854,"x_min":69,"x_max":839,"o":"m 69 0 m 176 93 l 176 949 l 72 960 l 72 1053 l 471 1053 l 471 960 l 351 947 l 350 89 l 668 108 l 763 271 l 839 238 l 793 0 l 69 0 l 69 72 l 176 93 m 403 -26 q 515 -90 474 -39 q 556 -206 556 -140 q 528 -308 556 -260 q 461 -390 501 -357 q 385 -435 421 -424 l 331 -400 l 331 -382 q 381 -326 364 -362 q 397 -246 397 -289 q 372 -182 397 -210 q 322 -154 347 -154 l 322 -112 l 403 -26 z "},"Ŀ":{"ha":953,"x_min":69,"x_max":936,"o":"m 471 960 l 351 947 l 350 89 l 668 108 l 763 271 l 839 238 l 793 0 l 69 0 l 69 72 l 176 93 l 176 949 l 72 960 l 72 1053 l 471 1053 l 471 960 m 829 685 q 908 657 881 685 q 936 582 935 629 q 899 498 936 531 q 811 465 861 465 q 736 492 768 465 q 704 564 704 519 q 744 649 704 613 q 829 685 783 685 z "},"Ł":{"ha":854,"x_min":58,"x_max":838,"o":"m 469 960 l 350 947 l 349 572 l 547 654 l 688 711 l 688 574 l 349 443 l 349 89 l 668 108 l 761 271 l 838 238 l 792 0 l 68 0 l 68 72 l 176 93 l 176 376 l 58 331 l 58 392 l 58 454 l 176 501 l 176 949 l 72 960 l 72 1053 l 469 1053 l 469 960 z "},"M":{"ha":1361,"x_min":49,"x_max":1336,"o":"m 165 94 l 225 947 l 96 960 l 96 1053 l 463 1053 l 676 388 l 704 274 l 735 389 l 939 1053 l 1276 1053 l 1276 960 l 1150 947 l 1224 94 l 1336 71 l 1336 0 l 949 0 l 949 71 l 1061 94 l 1011 686 l 1007 936 l 981 831 l 711 -11 l 650 -11 l 403 704 q 326 939 369 800 l 322 724 l 293 96 l 421 72 l 421 0 l 49 0 l 49 72 l 165 94 z "},"N":{"ha":1138,"x_min":64,"x_max":1090,"o":"m 1090 961 l 985 949 l 985 0 l 799 0 l 381 674 l 294 861 l 296 96 l 429 72 l 429 0 l 64 0 l 64 72 l 176 96 l 176 947 l 68 960 l 68 1053 l 347 1053 l 783 324 l 865 147 l 865 947 l 751 961 l 751 1053 l 1090 1053 l 1090 961 z "},"Ń":{"ha":1138,"x_min":64,"x_max":1090,"o":"m 64 0 m 1090 961 l 985 949 l 985 0 l 799 0 l 381 674 l 294 861 l 296 96 l 429 72 l 429 0 l 64 0 l 64 72 l 176 96 l 176 947 l 68 960 l 68 1053 l 347 1053 l 783 324 l 865 147 l 865 947 l 751 961 l 751 1053 l 1090 1053 l 1090 961 m 738 1303 l 850 1190 q 710 1124 794 1153 q 557 1088 625 1096 l 510 1136 l 738 1303 z "},"Ň":{"ha":1138,"x_min":64,"x_max":1090,"o":"m 64 0 m 1090 961 l 985 949 l 985 0 l 799 0 l 381 674 l 294 861 l 296 96 l 429 72 l 429 0 l 64 0 l 64 72 l 176 96 l 176 947 l 68 960 l 68 1053 l 347 1053 l 783 324 l 865 147 l 865 947 l 751 961 l 751 1053 l 1090 1053 l 1090 961 m 414 1303 l 588 1197 l 767 1303 l 828 1264 l 657 1092 l 518 1092 l 347 1264 l 414 1303 z "},"Ņ":{"ha":1138,"x_min":64,"x_max":1090,"o":"m 64 0 m 1090 961 l 985 949 l 985 0 l 799 0 l 381 674 l 294 861 l 296 96 l 429 72 l 429 0 l 64 0 l 64 72 l 176 96 l 176 947 l 68 960 l 68 1053 l 347 1053 l 783 324 l 865 147 l 865 947 l 751 961 l 751 1053 l 1090 1053 l 1090 961 m 568 -26 q 680 -90 639 -39 q 721 -206 721 -140 q 694 -308 721 -260 q 626 -390 667 -357 q 550 -435 586 -424 l 496 -400 l 496 -382 q 546 -326 529 -362 q 563 -246 563 -289 q 538 -182 563 -210 q 488 -154 513 -154 l 488 -112 l 568 -26 z "},"Ñ":{"ha":1138,"x_min":64,"x_max":1090,"o":"m 64 0 m 1090 961 l 985 949 l 985 0 l 799 0 l 381 674 l 294 861 l 296 96 l 429 72 l 429 0 l 64 0 l 64 72 l 176 96 l 176 947 l 68 960 l 68 1053 l 347 1053 l 783 324 l 865 147 l 865 947 l 751 961 l 751 1053 l 1090 1053 l 1090 961 m 299 1176 q 381 1265 322 1226 q 494 1303 440 1303 q 549 1292 525 1303 q 603 1258 572 1281 q 642 1232 626 1240 q 678 1224 658 1224 q 799 1276 746 1224 l 843 1219 q 761 1134 818 1169 q 650 1099 704 1099 q 594 1110 618 1099 q 540 1144 569 1122 q 500 1172 517 1163 q 464 1181 483 1181 q 400 1165 433 1181 q 342 1126 367 1149 l 299 1176 z "},"O":{"ha":1065,"x_min":56,"x_max":1013,"o":"m 560 1063 q 799 996 696 1063 q 957 813 901 929 q 1013 549 1013 696 q 949 249 1013 378 q 775 51 886 121 q 525 -19 664 -19 q 279 47 386 -19 q 114 231 172 114 q 56 497 56 349 q 123 793 56 664 q 303 990 190 922 q 560 1063 422 1063 m 539 976 q 320 852 394 976 q 246 511 246 728 q 281 295 246 397 q 383 130 317 193 q 542 67 450 67 q 753 190 685 67 q 822 533 822 313 q 788 756 822 654 q 690 917 754 857 q 539 976 625 976 z "},"Ó":{"ha":1065,"x_min":56,"x_max":1013,"o":"m 818 1190 q 678 1124 763 1153 q 525 1088 594 1096 l 478 1136 l 707 1303 l 818 1190 m 558 1063 q 798 996 694 1063 q 957 813 901 929 q 1013 549 1013 696 q 949 250 1013 379 q 774 51 886 121 q 522 -19 663 -19 q 278 47 383 -19 q 114 231 172 114 q 56 497 56 349 q 122 794 56 665 q 304 992 189 922 q 558 1063 419 1063 m 539 976 q 320 852 394 976 q 246 511 246 728 q 281 295 246 397 q 383 130 317 193 q 542 67 450 67 q 753 190 685 67 q 822 533 822 313 q 788 756 822 654 q 690 917 754 857 q 539 976 625 976 z "},"Ô":{"ha":1065,"x_min":56,"x_max":1013,"o":"m 789 1131 l 724 1092 l 543 1194 l 357 1092 l 296 1129 l 472 1303 l 613 1303 l 789 1131 m 558 1063 q 798 996 694 1063 q 957 813 901 929 q 1013 549 1013 696 q 949 250 1013 379 q 774 51 886 121 q 522 -19 663 -19 q 278 47 383 -19 q 114 231 172 114 q 56 497 56 349 q 122 794 56 665 q 304 992 189 922 q 558 1063 419 1063 m 539 976 q 320 852 394 976 q 246 511 246 728 q 281 295 246 397 q 383 130 317 193 q 542 67 450 67 q 753 190 685 67 q 822 533 822 313 q 788 756 822 654 q 690 917 754 857 q 539 976 625 976 z "},"Ö":{"ha":1065,"x_min":56,"x_max":1013,"o":"m 56 0 m 560 1063 q 799 996 696 1063 q 957 813 901 929 q 1013 549 1013 696 q 949 249 1013 378 q 775 51 886 121 q 525 -19 664 -19 q 279 47 386 -19 q 114 231 172 114 q 56 497 56 349 q 123 793 56 664 q 303 990 190 922 q 560 1063 422 1063 m 539 976 q 320 852 394 976 q 246 511 246 728 q 281 295 246 397 q 383 130 317 193 q 542 67 450 67 q 753 190 685 67 q 822 533 822 313 q 788 756 822 654 q 690 917 754 857 q 539 976 625 976 m 368 1304 q 442 1279 415 1304 q 469 1214 469 1254 q 433 1140 469 1169 q 351 1111 397 1111 q 282 1135 311 1111 q 253 1199 253 1158 q 289 1274 253 1243 q 368 1304 325 1304 m 731 1304 q 803 1280 778 1304 q 829 1214 829 1256 q 796 1140 829 1169 q 714 1111 763 1111 q 644 1135 672 1111 q 615 1199 615 1160 q 651 1274 615 1243 q 731 1304 688 1304 z "},"Ò":{"ha":1065,"x_min":56,"x_max":1013,"o":"m 56 0 m 560 1063 q 799 996 696 1063 q 957 813 901 929 q 1013 549 1013 696 q 949 249 1013 378 q 775 51 886 121 q 525 -19 664 -19 q 279 47 386 -19 q 114 231 172 114 q 56 497 56 349 q 123 793 56 664 q 303 990 190 922 q 560 1063 422 1063 m 539 976 q 320 852 394 976 q 246 511 246 728 q 281 295 246 397 q 383 130 317 193 q 542 67 450 67 q 753 190 685 67 q 822 533 822 313 q 788 756 822 654 q 690 917 754 857 q 539 976 625 976 m 558 1088 q 413 1123 500 1093 q 271 1190 325 1153 l 382 1303 l 607 1136 l 558 1088 z "},"Ő":{"ha":1065,"x_min":56,"x_max":1013,"o":"m 56 0 m 560 1063 q 799 996 696 1063 q 957 813 901 929 q 1013 549 1013 696 q 949 249 1013 378 q 775 51 886 121 q 525 -19 664 -19 q 279 47 386 -19 q 114 231 172 114 q 56 497 56 349 q 123 793 56 664 q 303 990 190 922 q 560 1063 422 1063 m 539 976 q 320 852 394 976 q 246 511 246 728 q 281 295 246 397 q 383 130 317 193 q 542 67 450 67 q 753 190 685 67 q 822 533 822 313 q 788 756 822 654 q 690 917 754 857 q 539 976 625 976 m 511 1403 l 619 1310 q 494 1176 575 1250 q 358 1072 413 1103 l 300 1121 l 511 1403 m 861 1403 l 974 1310 q 842 1173 924 1246 q 708 1072 761 1100 l 651 1121 l 861 1403 z "},"Ō":{"ha":1068,"x_min":56,"x_max":1013,"o":"m 56 0 m 718 1288 l 718 1164 l 350 1164 l 350 1288 l 718 1288 m 560 1063 q 799 996 696 1063 q 957 813 901 929 q 1013 549 1013 696 q 949 249 1013 378 q 775 51 886 121 q 525 -19 664 -19 q 279 47 386 -19 q 114 231 172 114 q 56 497 56 349 q 123 793 56 664 q 303 990 190 922 q 560 1063 422 1063 m 539 976 q 320 852 394 976 q 246 511 246 728 q 281 295 246 397 q 383 130 317 193 q 542 67 450 67 q 753 190 685 67 q 822 533 822 313 q 788 756 822 654 q 690 917 754 857 q 539 976 625 976 z "},"Ø":{"ha":1065,"x_min":56,"x_max":1013,"o":"m 333 18 q 128 202 201 76 q 56 493 56 328 q 122 792 56 663 q 304 992 189 921 q 561 1063 419 1063 q 700 1042 628 1063 l 738 1149 l 806 1122 l 767 1014 q 948 829 883 953 q 1013 549 1013 706 q 950 252 1013 381 q 778 53 888 124 q 531 -19 668 -18 q 404 -6 469 -19 l 353 -139 l 285 -114 l 333 18 m 658 940 q 539 976 601 976 q 320 852 394 976 q 246 511 246 728 q 281 298 246 400 q 381 136 317 196 l 658 940 m 443 89 q 542 67 486 67 q 753 190 683 67 q 822 533 822 313 q 795 729 822 636 q 717 885 768 822 l 443 89 z "},"Õ":{"ha":1065,"x_min":56,"x_max":1013,"o":"m 56 0 m 560 1063 q 799 996 696 1063 q 957 813 901 929 q 1013 549 1013 696 q 949 249 1013 378 q 775 51 886 121 q 525 -19 664 -19 q 279 47 386 -19 q 114 231 172 114 q 56 497 56 349 q 123 793 56 664 q 303 990 190 922 q 560 1063 422 1063 m 539 976 q 320 852 394 976 q 246 511 246 728 q 281 295 246 397 q 383 130 317 193 q 542 67 450 67 q 753 190 685 67 q 822 533 822 313 q 788 756 822 654 q 690 917 754 857 q 539 976 625 976 m 265 1176 q 348 1265 289 1226 q 461 1303 407 1303 q 515 1292 492 1303 q 569 1258 539 1281 q 609 1232 593 1240 q 644 1224 625 1224 q 765 1276 713 1224 l 810 1219 q 728 1134 785 1169 q 617 1099 671 1099 q 560 1110 585 1099 q 507 1144 536 1122 q 467 1172 483 1163 q 431 1181 450 1181 q 367 1165 400 1181 q 308 1126 333 1149 l 265 1176 z "},"Œ":{"ha":1439,"x_min":56,"x_max":1403,"o":"m 549 1063 q 654 1053 596 1064 l 1321 1053 l 1342 846 l 1251 846 l 1208 957 l 889 968 l 889 588 l 1113 593 l 1136 696 l 1219 696 l 1219 390 l 1136 390 l 1113 496 l 889 500 l 889 86 l 1243 101 l 1318 239 l 1403 219 l 1371 0 l 660 0 q 522 -19 582 -19 q 278 47 383 -19 q 114 231 172 114 q 56 496 56 349 q 121 790 56 663 q 299 989 186 918 q 549 1063 411 1060 m 539 976 q 320 852 394 976 q 246 511 246 728 q 281 295 246 397 q 383 130 317 193 q 542 67 450 67 q 718 142 650 67 l 718 881 q 539 976 643 976 z "},"P":{"ha":896,"x_min":51,"x_max":876,"o":"m 176 94 l 176 947 l 64 963 l 64 1053 l 264 1053 q 353 1057 301 1053 q 503 1063 444 1063 q 780 992 683 1063 q 876 751 876 921 q 824 567 876 646 q 682 447 771 489 q 488 406 593 406 l 418 406 q 347 403 367 406 l 347 94 l 522 72 l 522 0 l 51 0 l 51 72 l 176 94 m 347 499 q 479 492 392 492 q 643 553 582 492 q 704 753 704 614 q 640 921 704 864 q 458 975 575 978 q 347 963 379 969 l 347 499 z "},"Þ":{"ha":899,"x_min":49,"x_max":878,"o":"m 176 94 l 176 957 l 49 969 l 49 1053 l 472 1053 l 472 969 l 349 957 l 349 831 q 378 833 368 833 q 515 844 467 844 q 781 773 685 844 q 878 557 878 701 q 826 374 878 450 q 686 258 774 297 q 493 218 599 218 q 349 221 407 218 l 349 94 l 526 72 l 526 0 l 54 0 l 54 72 l 176 94 m 349 308 q 471 301 388 301 q 637 361 572 301 q 701 550 701 421 q 640 701 701 647 q 468 754 579 754 q 349 740 429 754 l 349 308 z "},"Q":{"ha":1065,"x_min":57,"x_max":1014,"o":"m 561 1063 q 800 996 697 1063 q 958 813 903 929 q 1014 549 1014 696 q 967 286 1014 403 q 834 94 919 169 q 635 -7 749 19 q 865 -114 682 -114 q 989 -87 936 -114 l 997 -194 q 931 -235 976 -219 q 829 -250 885 -250 q 546 -19 600 -250 l 532 -19 q 283 47 392 -19 q 116 228 175 113 q 57 488 57 344 q 128 801 57 667 q 322 1003 200 936 q 561 1063 432 1063 m 539 976 q 320 852 394 976 q 246 511 246 728 q 281 295 246 397 q 383 130 317 193 q 542 67 450 67 q 753 190 683 67 q 822 533 822 313 q 790 750 822 649 q 693 914 757 851 q 539 976 629 976 z "},"R":{"ha":988,"x_min":53,"x_max":1000,"o":"m 478 1063 q 753 999 654 1063 q 853 785 853 935 q 793 594 853 674 q 626 478 733 514 q 649 465 631 476 q 726 386 690 439 q 814 240 761 333 q 876 135 853 171 q 921 93 900 100 l 1000 72 l 1000 0 l 771 0 q 724 42 749 0 q 657 176 699 85 q 552 378 599 306 q 451 450 506 450 l 349 449 l 349 94 l 486 72 l 486 0 l 53 0 l 53 72 l 176 94 l 176 950 l 68 963 l 68 1053 l 238 1053 q 293 1054 267 1053 q 342 1057 319 1056 q 478 1063 428 1063 m 454 976 q 424 975 443 975 q 349 965 368 972 l 349 538 q 450 533 381 533 q 622 588 564 533 q 681 765 681 643 q 626 924 681 868 q 454 976 571 979 z "},"Ŕ":{"ha":988,"x_min":53,"x_max":1000,"o":"m 53 0 m 478 1063 q 753 999 654 1063 q 853 785 853 935 q 793 594 853 674 q 626 478 733 514 q 649 465 631 476 q 726 386 690 439 q 814 240 761 333 q 876 135 853 171 q 921 93 900 100 l 1000 72 l 1000 0 l 771 0 q 724 42 749 0 q 657 176 699 85 q 552 378 599 306 q 451 450 506 450 l 349 449 l 349 94 l 486 72 l 486 0 l 53 0 l 53 72 l 176 94 l 176 950 l 68 963 l 68 1053 l 238 1053 q 293 1054 267 1053 q 342 1057 319 1056 q 478 1063 428 1063 m 454 976 q 424 975 443 975 q 349 965 368 972 l 349 538 q 450 533 381 533 q 622 588 564 533 q 681 765 681 643 q 626 924 681 868 q 454 976 571 979 m 646 1303 l 758 1190 q 618 1124 703 1153 q 465 1088 533 1096 l 418 1136 l 646 1303 z "},"Ř":{"ha":988,"x_min":53,"x_max":1000,"o":"m 53 0 m 478 1063 q 753 999 654 1063 q 853 785 853 935 q 793 594 853 674 q 626 478 733 514 q 649 465 631 476 q 726 386 690 439 q 814 240 761 333 q 876 135 853 171 q 921 93 900 100 l 1000 72 l 1000 0 l 771 0 q 724 42 749 0 q 657 176 699 85 q 552 378 599 306 q 451 450 506 450 l 349 449 l 349 94 l 486 72 l 486 0 l 53 0 l 53 72 l 176 94 l 176 950 l 68 963 l 68 1053 l 238 1053 q 293 1054 267 1053 q 342 1057 319 1056 q 478 1063 428 1063 m 454 976 q 424 975 443 975 q 349 965 368 972 l 349 538 q 450 533 381 533 q 622 588 564 533 q 681 765 681 643 q 626 924 681 868 q 454 976 571 979 m 310 1303 l 483 1197 l 663 1303 l 724 1264 l 553 1092 l 414 1092 l 243 1264 l 310 1303 z "},"Ŗ":{"ha":988,"x_min":53,"x_max":1000,"o":"m 53 0 m 478 1063 q 753 999 654 1063 q 853 785 853 935 q 793 594 853 674 q 626 478 733 514 q 649 465 631 476 q 726 386 690 439 q 814 240 761 333 q 876 135 853 171 q 921 93 900 100 l 1000 72 l 1000 0 l 771 0 q 724 42 749 0 q 657 176 699 85 q 552 378 599 306 q 451 450 506 450 l 349 449 l 349 94 l 486 72 l 486 0 l 53 0 l 53 72 l 176 94 l 176 950 l 68 963 l 68 1053 l 238 1053 q 293 1054 267 1053 q 342 1057 319 1056 q 478 1063 428 1063 m 454 976 q 424 975 443 975 q 349 965 368 972 l 349 538 q 450 533 381 533 q 622 588 564 533 q 681 765 681 643 q 626 924 681 868 q 454 976 571 979 m 533 -26 q 645 -90 604 -39 q 686 -206 686 -140 q 659 -308 686 -260 q 592 -390 632 -357 q 515 -435 551 -424 l 461 -400 l 461 -382 q 511 -326 494 -362 q 528 -246 528 -289 q 503 -182 528 -210 q 453 -154 478 -154 l 453 -112 l 533 -26 z "},"S":{"ha":854,"x_min":100,"x_max":794,"o":"m 425 -17 q 237 1 333 -17 q 100 42 140 19 l 100 281 l 175 281 l 226 136 q 315 81 261 96 q 438 65 368 65 q 572 108 517 65 q 626 233 626 151 q 572 349 626 299 q 413 458 517 400 q 246 557 308 514 q 143 658 183 600 q 103 792 103 715 q 153 940 103 879 q 283 1032 204 1001 q 443 1063 361 1063 q 609 1047 526 1063 q 729 1013 692 1032 l 729 810 l 650 810 l 594 944 q 531 973 574 963 q 444 983 489 983 q 319 947 375 983 q 264 835 264 910 q 324 708 264 761 q 508 590 385 656 q 657 501 597 543 q 756 403 717 460 q 794 275 794 347 q 690 58 794 132 q 425 -17 585 -17 z "},"Ś":{"ha":854,"x_min":100,"x_max":794,"o":"m 100 0 m 425 -17 q 237 1 333 -17 q 100 42 140 19 l 100 281 l 175 281 l 226 136 q 315 81 261 96 q 438 65 368 65 q 572 108 517 65 q 626 233 626 151 q 572 349 626 299 q 413 458 517 400 q 246 557 308 514 q 143 658 183 600 q 103 792 103 715 q 153 940 103 879 q 283 1032 204 1001 q 443 1063 361 1063 q 609 1047 526 1063 q 729 1013 692 1032 l 729 810 l 650 810 l 594 944 q 531 973 574 963 q 444 983 489 983 q 319 947 375 983 q 264 835 264 910 q 324 708 264 761 q 508 590 385 656 q 657 501 597 543 q 756 403 717 460 q 794 275 794 347 q 690 58 794 132 q 425 -17 585 -17 m 531 1303 l 643 1190 q 503 1124 588 1153 q 350 1088 418 1096 l 303 1136 l 531 1303 z "},"Š":{"ha":854,"x_min":100,"x_max":794,"o":"m 100 0 m 425 -17 q 237 1 333 -17 q 100 42 140 19 l 100 281 l 175 281 l 226 136 q 315 81 261 96 q 438 65 368 65 q 572 108 517 65 q 626 233 626 151 q 572 349 626 299 q 413 458 517 400 q 246 557 308 514 q 143 658 183 600 q 103 792 103 715 q 153 940 103 879 q 283 1032 204 1001 q 443 1063 361 1063 q 609 1047 526 1063 q 729 1013 692 1032 l 729 810 l 650 810 l 594 944 q 531 973 574 963 q 444 983 489 983 q 319 947 375 983 q 264 835 264 910 q 324 708 264 761 q 508 590 385 656 q 657 501 597 543 q 756 403 717 460 q 794 275 794 347 q 690 58 794 132 q 425 -17 585 -17 m 264 1303 l 438 1197 l 617 1303 l 678 1264 l 507 1092 l 368 1092 l 197 1264 l 264 1303 z "},"Ş":{"ha":854,"x_min":100,"x_max":794,"o":"m 793 276 q 697 66 793 140 q 451 -15 601 -8 l 450 -46 q 453 -86 450 -64 q 573 -126 531 -87 q 615 -215 615 -165 q 558 -323 615 -287 q 410 -358 501 -358 q 333 -351 365 -358 q 292 -342 301 -343 l 293 -261 q 329 -268 304 -265 q 371 -271 354 -271 q 428 -258 408 -271 q 449 -210 449 -246 q 427 -168 449 -183 q 365 -153 406 -153 q 344 -154 353 -153 q 331 -156 335 -156 q 338 -89 331 -129 q 354 -14 344 -49 q 203 8 275 -8 q 100 42 132 24 l 100 281 l 175 281 l 226 136 q 315 81 261 96 q 438 65 368 65 q 572 108 517 65 q 626 233 626 151 q 572 349 626 299 q 413 458 517 400 q 246 557 308 514 q 143 658 183 600 q 103 792 103 715 q 153 940 103 879 q 283 1032 204 1001 q 443 1063 361 1063 q 609 1047 526 1063 q 729 1013 692 1032 l 729 810 l 650 810 l 594 944 q 531 973 574 963 q 444 983 489 983 q 319 947 375 983 q 264 835 264 910 q 324 708 264 761 q 508 590 385 656 q 657 501 597 543 q 756 403 717 460 q 794 275 794 347 l 793 276 z "},"Ș":{"ha":854,"x_min":100,"x_max":794,"o":"m 100 0 m 425 -17 q 237 1 333 -17 q 100 42 140 19 l 100 281 l 175 281 l 226 136 q 315 81 261 96 q 438 65 368 65 q 572 108 517 65 q 626 233 626 151 q 572 349 626 299 q 413 458 517 400 q 246 557 308 514 q 143 658 183 600 q 103 792 103 715 q 153 940 103 879 q 283 1032 204 1001 q 443 1063 361 1063 q 609 1047 526 1063 q 729 1013 692 1032 l 729 810 l 650 810 l 594 944 q 531 973 574 963 q 444 983 489 983 q 319 947 375 983 q 264 835 264 910 q 324 708 264 761 q 508 590 385 656 q 657 501 597 543 q 756 403 717 460 q 794 275 794 347 q 690 58 794 132 q 425 -17 585 -17 m 400 -36 q 512 -99 471 -49 q 553 -215 553 -150 q 526 -318 553 -269 q 458 -400 499 -367 q 382 -444 418 -433 l 328 -410 l 328 -392 q 378 -335 361 -372 q 394 -256 394 -299 q 369 -192 394 -219 q 319 -164 344 -164 l 319 -122 l 400 -36 z "},"T":{"ha":906,"x_min":25,"x_max":883,"o":"m 381 93 l 381 964 l 156 947 l 108 822 l 25 819 l 42 1053 l 883 1053 l 883 821 l 813 813 l 771 949 l 551 964 l 551 94 l 719 72 l 719 0 l 218 0 l 218 72 l 381 93 z "},"Ť":{"ha":886,"x_min":25,"x_max":883,"o":"m 25 0 m 290 1303 l 464 1197 l 643 1303 l 704 1264 l 533 1092 l 394 1092 l 224 1264 l 290 1303 m 381 93 l 381 964 l 156 947 l 108 822 l 25 819 l 42 1053 l 883 1053 l 883 821 l 813 813 l 771 949 l 551 964 l 551 94 l 719 72 l 719 0 l 218 0 l 218 72 l 381 93 z "},"Ț":{"ha":906,"x_min":25,"x_max":883,"o":"m 25 0 m 381 93 l 381 964 l 156 947 l 108 822 l 25 819 l 42 1053 l 883 1053 l 883 821 l 813 813 l 771 949 l 551 964 l 551 94 l 719 72 l 719 0 l 218 0 l 218 72 l 381 93 m 443 -26 q 555 -90 514 -39 q 596 -206 596 -140 q 569 -308 596 -260 q 501 -390 542 -357 q 425 -435 461 -424 l 371 -400 l 371 -382 q 421 -326 404 -362 q 438 -246 438 -289 q 413 -182 438 -210 q 363 -154 388 -154 l 363 -112 l 443 -26 z "},"U":{"ha":1078,"x_min":24,"x_max":1057,"o":"m 1057 969 l 953 956 l 953 461 q 850 101 953 222 q 558 -19 747 -19 q 231 94 333 -19 q 129 440 129 208 l 132 957 l 24 969 l 24 1053 l 422 1053 l 422 969 l 303 956 l 303 435 q 375 156 303 242 q 583 69 447 69 q 833 461 833 69 l 832 956 l 713 969 l 713 1053 l 1057 1053 l 1057 969 z "},"Ú":{"ha":1078,"x_min":24,"x_max":1057,"o":"m 24 0 m 1057 969 l 953 956 l 953 461 q 850 101 953 222 q 558 -19 747 -19 q 231 94 333 -19 q 129 440 129 208 l 132 957 l 24 969 l 24 1053 l 422 1053 l 422 969 l 303 956 l 303 435 q 375 156 303 242 q 583 69 447 69 q 833 461 833 69 l 832 956 l 713 969 l 713 1053 l 1057 1053 l 1057 969 m 732 1303 l 844 1190 q 704 1124 789 1153 q 551 1088 619 1096 l 504 1136 l 732 1303 z "},"Û":{"ha":1075,"x_min":24,"x_max":1057,"o":"m 817 1131 l 750 1092 l 569 1194 l 385 1092 l 322 1129 l 500 1303 l 639 1303 l 817 1131 m 1057 969 l 953 956 l 953 461 q 850 101 953 222 q 558 -19 747 -19 q 231 94 333 -19 q 129 440 129 208 l 132 957 l 24 969 l 24 1053 l 422 1053 l 422 969 l 303 956 l 303 435 q 375 156 303 242 q 583 69 447 69 q 833 461 833 69 l 832 956 l 713 969 l 713 1053 l 1057 1053 l 1057 969 z "},"Ü":{"ha":1078,"x_min":24,"x_max":1057,"o":"m 24 0 m 1057 969 l 953 956 l 953 461 q 850 101 953 222 q 558 -19 747 -19 q 231 94 333 -19 q 129 440 129 208 l 132 957 l 24 969 l 24 1053 l 422 1053 l 422 969 l 303 956 l 303 435 q 375 156 303 242 q 583 69 447 69 q 833 461 833 69 l 832 956 l 713 969 l 713 1053 l 1057 1053 l 1057 969 m 394 1304 q 469 1279 442 1304 q 496 1214 496 1254 q 460 1140 496 1169 q 378 1111 424 1111 q 308 1135 338 1111 q 279 1199 279 1158 q 315 1274 279 1243 q 394 1304 351 1304 m 757 1304 q 830 1280 804 1304 q 856 1214 856 1256 q 822 1140 856 1169 q 740 1111 789 1111 q 670 1135 699 1111 q 642 1199 642 1160 q 678 1274 642 1243 q 757 1304 714 1304 z "},"Ù":{"ha":1078,"x_min":24,"x_max":1057,"o":"m 24 0 m 1057 969 l 953 956 l 953 461 q 850 101 953 222 q 558 -19 747 -19 q 231 94 333 -19 q 129 440 129 208 l 132 957 l 24 969 l 24 1053 l 422 1053 l 422 969 l 303 956 l 303 435 q 375 156 303 242 q 583 69 447 69 q 833 461 833 69 l 832 956 l 713 969 l 713 1053 l 1057 1053 l 1057 969 m 585 1088 q 439 1123 526 1093 q 297 1190 351 1153 l 408 1303 l 633 1136 l 585 1088 z "},"Ű":{"ha":1078,"x_min":24,"x_max":1057,"o":"m 24 0 m 1057 969 l 953 956 l 953 461 q 850 101 953 222 q 558 -19 747 -19 q 231 94 333 -19 q 129 440 129 208 l 132 957 l 24 969 l 24 1053 l 422 1053 l 422 969 l 303 956 l 303 435 q 375 156 303 242 q 583 69 447 69 q 833 461 833 69 l 832 956 l 713 969 l 713 1053 l 1057 1053 l 1057 969 m 511 1403 l 619 1310 q 494 1176 575 1250 q 358 1072 413 1103 l 300 1121 l 511 1403 m 861 1403 l 974 1310 q 842 1173 924 1246 q 708 1072 761 1100 l 651 1121 l 861 1403 z "},"Ū":{"ha":1078,"x_min":24,"x_max":1057,"o":"m 24 0 m 1057 969 l 953 956 l 953 461 q 850 101 953 222 q 558 -19 747 -19 q 231 94 333 -19 q 129 440 129 208 l 132 957 l 24 969 l 24 1053 l 422 1053 l 422 969 l 303 956 l 303 435 q 375 156 303 242 q 583 69 447 69 q 833 461 833 69 l 832 956 l 713 969 l 713 1053 l 1057 1053 l 1057 969 m 758 1260 l 758 1136 l 390 1136 l 390 1260 l 758 1260 z "},"Ų":{"ha":1078,"x_min":24,"x_max":1058,"o":"m 1058 1053 l 1058 969 l 954 956 l 954 461 q 873 131 954 250 q 642 -12 792 13 q 533 -90 582 -40 q 483 -178 483 -140 q 554 -246 483 -246 q 658 -219 594 -246 l 675 -292 q 581 -338 638 -322 q 463 -354 525 -354 q 364 -319 403 -354 q 325 -229 325 -285 q 379 -116 325 -176 q 508 -18 433 -56 q 219 108 310 -6 q 129 440 129 221 l 132 957 l 24 969 l 24 1053 l 422 1053 l 422 969 l 303 956 l 303 435 q 375 156 303 242 q 583 69 447 69 q 833 461 833 69 l 832 956 l 713 969 l 713 1053 l 1058 1053 z "},"Ů":{"ha":1078,"x_min":24,"x_max":1057,"o":"m 1057 1053 l 1057 969 l 953 956 l 953 461 q 850 101 953 222 q 558 -19 747 -19 q 231 94 333 -19 q 129 440 129 208 l 132 957 l 24 969 l 24 1053 l 411 1053 q 385 1139 385 1093 q 438 1256 385 1210 q 567 1303 490 1303 q 696 1256 643 1303 q 749 1139 749 1210 q 722 1053 749 1090 l 1057 1053 m 567 1222 q 504 1198 529 1222 q 479 1138 479 1174 q 504 1078 479 1101 q 567 1054 529 1054 q 628 1078 603 1054 q 654 1138 654 1101 q 628 1198 654 1174 q 567 1222 603 1222 m 583 69 q 833 461 833 69 l 832 956 l 713 969 l 713 1040 q 649 993 688 1010 q 567 976 611 976 q 485 993 524 976 q 422 1039 447 1010 l 422 969 l 303 956 l 303 435 q 375 156 303 242 q 583 69 447 69 z "},"V":{"ha":983,"x_min":4,"x_max":976,"o":"m 4 969 l 4 1053 l 401 1053 l 401 971 l 283 957 l 482 331 l 528 169 l 569 331 l 749 957 l 639 969 l 639 1053 l 976 1053 l 976 969 l 896 958 l 574 -12 l 442 -12 l 90 958 l 4 969 z "},"W":{"ha":1468,"x_min":6,"x_max":1463,"o":"m 6 969 l 6 1053 l 392 1053 l 392 971 l 281 957 l 472 288 l 507 161 l 543 282 l 681 840 l 646 957 l 544 969 l 544 1053 l 939 1053 l 939 971 l 825 957 l 992 278 l 1022 153 l 1054 296 l 1222 957 l 1110 969 l 1110 1053 l 1463 1053 l 1463 969 l 1363 957 l 1076 -12 l 921 -12 l 742 624 l 564 -12 l 415 -12 l 93 957 l 6 969 z "},"X":{"ha":994,"x_min":13,"x_max":993,"o":"m 133 94 l 418 521 l 132 957 l 29 969 l 29 1053 l 444 1053 l 444 971 l 332 957 l 519 629 l 713 957 l 613 969 l 613 1053 l 972 1053 l 972 969 l 864 958 l 579 556 l 881 96 l 993 71 l 993 0 l 571 0 l 571 71 l 686 93 l 478 436 l 286 94 l 414 71 l 414 0 l 13 0 l 13 71 l 133 94 z "},"Y":{"ha":947,"x_min":8,"x_max":939,"o":"m 407 96 l 407 403 l 85 958 l 8 969 l 8 1053 l 376 1053 l 376 971 l 283 958 l 482 574 l 511 506 l 539 576 l 714 956 l 601 969 l 601 1053 l 939 1053 l 939 969 l 850 949 l 578 410 l 578 97 l 738 72 l 738 0 l 258 0 l 258 72 l 407 96 z "},"Ý":{"ha":947,"x_min":8,"x_max":939,"o":"m 8 0 m 407 96 l 407 403 l 85 958 l 8 969 l 8 1053 l 376 1053 l 376 971 l 283 958 l 482 574 l 511 506 l 539 576 l 714 956 l 601 969 l 601 1053 l 939 1053 l 939 969 l 850 949 l 578 410 l 578 97 l 738 72 l 738 0 l 258 0 l 258 72 l 407 96 m 657 1303 l 769 1190 q 629 1124 714 1153 q 476 1088 544 1096 l 429 1136 l 657 1303 z "},"Ÿ":{"ha":947,"x_min":8,"x_max":939,"o":"m 8 0 m 407 96 l 407 403 l 85 958 l 8 969 l 8 1053 l 376 1053 l 376 971 l 283 958 l 482 574 l 511 506 l 539 576 l 714 956 l 601 969 l 601 1053 l 939 1053 l 939 969 l 850 949 l 578 410 l 578 97 l 738 72 l 738 0 l 258 0 l 258 72 l 407 96 m 321 1304 q 395 1279 368 1304 q 422 1214 422 1254 q 386 1140 422 1169 q 304 1111 350 1111 q 235 1135 264 1111 q 206 1199 206 1158 q 242 1274 206 1243 q 321 1304 278 1304 m 683 1304 q 756 1280 731 1304 q 782 1214 782 1256 q 749 1140 782 1169 q 667 1111 715 1111 q 597 1135 625 1111 q 568 1199 568 1160 q 604 1274 568 1243 q 683 1304 640 1304 z "},"Z":{"ha":925,"x_min":53,"x_max":900,"o":"m 885 978 l 332 181 l 256 89 l 715 117 l 819 293 l 900 272 l 842 0 l 75 0 l 53 72 l 610 869 l 694 967 l 246 944 l 174 786 l 90 801 l 114 1053 l 860 1053 l 885 978 z "},"Ź":{"ha":925,"x_min":53,"x_max":900,"o":"m 53 0 m 885 978 l 332 181 l 256 89 l 715 117 l 819 293 l 900 272 l 842 0 l 75 0 l 53 72 l 610 869 l 694 967 l 246 944 l 174 786 l 90 801 l 114 1053 l 860 1053 l 885 978 m 656 1303 l 768 1190 q 628 1124 713 1153 q 475 1088 543 1096 l 428 1136 l 656 1303 z "},"Ž":{"ha":925,"x_min":53,"x_max":900,"o":"m 53 0 m 885 978 l 332 181 l 256 89 l 715 117 l 819 293 l 900 272 l 842 0 l 75 0 l 53 72 l 610 869 l 694 967 l 246 944 l 174 786 l 90 801 l 114 1053 l 860 1053 l 885 978 m 319 1303 l 493 1197 l 672 1303 l 733 1264 l 563 1092 l 424 1092 l 253 1264 l 319 1303 z "},"Ż":{"ha":925,"x_min":53,"x_max":900,"o":"m 53 0 m 885 978 l 332 181 l 256 89 l 715 117 l 819 293 l 900 272 l 842 0 l 75 0 l 53 72 l 610 869 l 694 967 l 246 944 l 174 786 l 90 801 l 114 1053 l 860 1053 l 885 978 m 496 1310 q 574 1284 546 1310 q 603 1214 603 1258 q 565 1135 603 1165 q 478 1104 526 1104 q 405 1129 436 1104 q 374 1197 374 1154 q 411 1277 374 1244 q 496 1310 449 1310 z "},"a":{"ha":796,"x_min":68,"x_max":767,"o":"m 399 775 q 607 715 533 775 q 681 515 681 656 l 681 71 l 767 71 l 767 15 q 701 -9 742 0 q 622 -18 661 -18 q 550 2 572 -18 q 526 68 528 22 q 311 -18 450 -18 q 185 9 240 -18 q 99 85 129 36 q 68 194 68 133 q 136 346 68 286 q 306 433 204 406 q 510 460 407 460 l 510 501 q 467 633 510 596 q 339 671 424 671 q 235 656 293 671 q 133 617 176 640 l 101 693 q 237 753 149 732 q 399 775 325 775 m 510 376 q 323 339 406 376 q 240 219 240 301 q 383 85 240 85 q 452 99 417 85 q 508 132 488 113 l 510 376 z "},"á":{"ha":796,"x_min":68,"x_max":767,"o":"m 68 0 m 399 775 q 607 715 533 775 q 681 515 681 656 l 681 71 l 767 71 l 767 15 q 701 -9 742 0 q 622 -18 661 -18 q 550 2 572 -18 q 526 68 528 22 q 311 -18 450 -18 q 185 9 240 -18 q 99 85 129 36 q 68 194 68 133 q 136 346 68 286 q 306 433 204 406 q 510 460 407 460 l 510 501 q 467 633 510 596 q 339 671 424 671 q 235 656 293 671 q 133 617 176 640 l 101 693 q 237 753 149 732 q 399 775 325 775 m 510 376 q 323 339 406 376 q 240 219 240 301 q 383 85 240 85 q 452 99 417 85 q 508 132 488 113 l 510 376 m 507 1225 l 633 1111 q 512 994 594 1050 q 347 907 429 939 l 303 953 l 507 1225 z "},"ă":{"ha":796,"x_min":68,"x_max":767,"o":"m 68 0 m 399 775 q 607 715 533 775 q 681 515 681 656 l 681 71 l 767 71 l 767 15 q 701 -9 742 0 q 622 -18 661 -18 q 550 2 572 -18 q 526 68 528 22 q 311 -18 450 -18 q 185 9 240 -18 q 99 85 129 36 q 68 194 68 133 q 136 346 68 286 q 306 433 204 406 q 510 460 407 460 l 510 501 q 467 633 510 596 q 339 671 424 671 q 235 656 293 671 q 133 617 176 640 l 101 693 q 237 753 149 732 q 399 775 325 775 m 510 376 q 323 339 406 376 q 240 219 240 301 q 383 85 240 85 q 452 99 417 85 q 508 132 488 113 l 510 376 m 643 1151 q 612 1041 643 1093 q 526 958 581 989 q 407 926 472 926 q 285 957 339 926 q 201 1039 231 988 q 171 1150 171 1090 l 264 1150 q 288 1099 275 1121 q 331 1058 301 1078 q 408 1039 360 1039 q 506 1072 475 1039 q 553 1151 536 1106 l 643 1151 z "},"â":{"ha":796,"x_min":68,"x_max":767,"o":"m 68 0 m 399 775 q 607 715 533 775 q 681 515 681 656 l 681 71 l 767 71 l 767 15 q 701 -9 742 0 q 622 -18 661 -18 q 550 2 572 -18 q 526 68 528 22 q 311 -18 450 -18 q 185 9 240 -18 q 99 85 129 36 q 68 194 68 133 q 136 346 68 286 q 306 433 204 406 q 510 460 407 460 l 510 501 q 467 633 510 596 q 339 671 424 671 q 235 656 293 671 q 133 617 176 640 l 101 693 q 237 753 149 732 q 399 775 325 775 m 510 376 q 323 339 406 376 q 240 219 240 301 q 383 85 240 85 q 452 99 417 85 q 508 132 488 113 l 510 376 m 328 1204 l 475 1204 l 656 944 l 582 906 l 401 1072 l 210 906 l 144 943 l 328 1204 z "},"ä":{"ha":796,"x_min":68,"x_max":767,"o":"m 68 0 m 399 775 q 607 715 533 775 q 681 515 681 656 l 681 71 l 767 71 l 767 15 q 701 -9 742 0 q 622 -18 661 -18 q 550 2 572 -18 q 526 68 528 22 q 311 -18 450 -18 q 185 9 240 -18 q 99 85 129 36 q 68 194 68 133 q 136 346 68 286 q 306 433 204 406 q 510 460 407 460 l 510 501 q 467 633 510 596 q 339 671 424 671 q 235 656 293 671 q 133 617 176 640 l 101 693 q 237 753 149 732 q 399 775 325 775 m 510 376 q 323 339 406 376 q 240 219 240 301 q 383 85 240 85 q 452 99 417 85 q 508 132 488 113 l 510 376 m 226 928 q 156 951 185 928 q 128 1014 128 975 q 163 1088 128 1058 q 243 1118 199 1118 q 317 1094 290 1118 q 343 1029 343 1071 q 307 956 343 983 q 226 928 271 928 m 556 928 q 486 951 514 928 q 458 1015 458 975 q 494 1088 458 1058 q 572 1118 531 1118 q 647 1094 621 1118 q 672 1031 672 1071 q 638 956 672 983 q 556 928 603 928 z "},"à":{"ha":796,"x_min":68,"x_max":767,"o":"m 68 0 m 399 775 q 607 715 533 775 q 681 515 681 656 l 681 71 l 767 71 l 767 15 q 701 -9 742 0 q 622 -18 661 -18 q 550 2 572 -18 q 526 68 528 22 q 311 -18 450 -18 q 185 9 240 -18 q 99 85 129 36 q 68 194 68 133 q 136 346 68 286 q 306 433 204 406 q 510 460 407 460 l 510 501 q 467 633 510 596 q 339 671 424 671 q 235 656 293 671 q 133 617 176 640 l 101 693 q 237 753 149 732 q 399 775 325 775 m 510 376 q 323 339 406 376 q 240 219 240 301 q 383 85 240 85 q 452 99 417 85 q 508 132 488 113 l 510 376 m 486 908 q 331 985 419 924 q 200 1111 243 1047 l 326 1225 l 531 953 l 486 908 z "},"ā":{"ha":796,"x_min":68,"x_max":767,"o":"m 68 0 m 399 775 q 607 715 533 775 q 681 515 681 656 l 681 71 l 767 71 l 767 15 q 701 -9 742 0 q 622 -18 661 -18 q 550 2 572 -18 q 526 68 528 22 q 311 -18 450 -18 q 185 9 240 -18 q 99 85 129 36 q 68 194 68 133 q 136 346 68 286 q 306 433 204 406 q 510 460 407 460 l 510 501 q 467 633 510 596 q 339 671 424 671 q 235 656 293 671 q 133 617 176 640 l 101 693 q 237 753 149 732 q 399 775 325 775 m 510 376 q 323 339 406 376 q 240 219 240 301 q 383 85 240 85 q 452 99 417 85 q 508 132 488 113 l 510 376 m 585 1078 l 585 954 l 217 954 l 217 1078 l 585 1078 z "},"ą":{"ha":796,"x_min":68,"x_max":772,"o":"m 399 775 q 607 715 533 775 q 681 515 681 656 l 679 71 l 767 71 l 767 11 q 644 -79 692 -31 q 597 -172 597 -128 q 682 -247 597 -247 q 772 -229 718 -247 l 772 -304 q 701 -339 743 -326 q 615 -351 658 -351 q 497 -318 544 -351 q 450 -219 450 -285 q 495 -106 450 -162 q 604 -17 540 -50 q 544 6 563 -15 q 525 68 525 26 q 310 -18 449 -18 q 184 10 239 -18 q 99 87 129 38 q 68 199 68 136 q 137 348 68 289 q 307 433 206 407 q 510 460 408 460 l 510 500 q 467 633 510 596 q 339 671 424 671 q 235 656 293 671 q 133 617 176 640 l 101 693 q 237 753 149 732 q 399 775 325 775 m 510 376 q 323 339 406 376 q 240 219 240 301 q 383 85 240 85 q 452 99 417 85 q 508 132 488 113 l 510 376 z "},"å":{"ha":796,"x_min":68,"x_max":767,"o":"m 68 0 m 399 775 q 607 715 533 775 q 681 515 681 656 l 681 71 l 767 71 l 767 15 q 701 -9 742 0 q 622 -18 661 -18 q 550 2 572 -18 q 526 68 528 22 q 311 -18 450 -18 q 185 9 240 -18 q 99 85 129 36 q 68 194 68 133 q 136 346 68 286 q 306 433 204 406 q 510 460 407 460 l 510 501 q 467 633 510 596 q 339 671 424 671 q 235 656 293 671 q 133 617 176 640 l 101 693 q 237 753 149 732 q 399 775 325 775 m 510 376 q 323 339 406 376 q 240 219 240 301 q 383 85 240 85 q 452 99 417 85 q 508 132 488 113 l 510 376 m 386 1231 q 477 1207 435 1231 q 544 1144 519 1183 q 568 1058 568 1104 q 543 972 568 1011 q 476 910 518 932 q 386 888 435 888 q 297 910 338 888 q 231 972 256 933 q 206 1058 206 1011 q 231 1145 206 1106 q 297 1208 256 1185 q 386 1231 338 1231 m 388 1147 q 323 1121 349 1147 q 297 1057 297 1094 q 323 994 297 1019 q 388 968 349 968 q 451 994 425 968 q 476 1057 476 1019 q 450 1120 476 1093 q 388 1147 424 1147 z "},"ã":{"ha":796,"x_min":68,"x_max":767,"o":"m 68 0 m 399 775 q 607 715 533 775 q 681 515 681 656 l 681 71 l 767 71 l 767 15 q 701 -9 742 0 q 622 -18 661 -18 q 550 2 572 -18 q 526 68 528 22 q 311 -18 450 -18 q 185 9 240 -18 q 99 85 129 36 q 68 194 68 133 q 136 346 68 286 q 306 433 204 406 q 510 460 407 460 l 510 501 q 467 633 510 596 q 339 671 424 671 q 235 656 293 671 q 133 617 176 640 l 101 693 q 237 753 149 732 q 399 775 325 775 m 510 376 q 323 339 406 376 q 240 219 240 301 q 383 85 240 85 q 452 99 417 85 q 508 132 488 113 l 510 376 m 124 1006 q 208 1093 149 1054 q 319 1132 267 1132 q 376 1120 353 1132 q 428 1085 399 1108 q 447 1071 432 1082 q 476 1054 463 1060 q 504 1049 490 1049 q 566 1065 538 1049 q 624 1107 594 1081 l 668 1051 q 585 963 643 1001 q 475 924 528 924 q 416 936 440 924 q 364 971 392 949 q 325 998 342 989 q 289 1007 308 1007 q 168 949 236 1007 l 124 1006 z "},"æ":{"ha":1243,"x_min":68,"x_max":1186,"o":"m 904 782 q 1108 706 1035 782 q 1183 489 1181 629 q 1181 409 1186 444 q 1175 365 1176 374 l 682 365 q 756 156 686 219 q 929 92 826 92 q 1043 104 981 92 q 1143 135 1106 117 l 1172 67 q 1040 5 1128 28 q 871 -18 953 -18 q 596 94 694 -18 q 476 12 551 42 q 311 -18 400 -18 q 185 10 240 -18 q 99 85 129 38 q 68 194 68 133 q 140 349 68 289 q 313 434 211 408 q 510 460 414 460 l 510 501 q 467 632 510 596 q 339 668 425 668 q 233 653 293 668 q 133 615 174 638 l 100 693 q 236 753 147 732 q 397 775 325 775 q 540 753 479 775 q 636 681 600 732 q 757 756 689 729 q 904 782 825 782 m 871 700 q 743 637 794 700 q 683 457 692 574 l 1011 457 q 1013 501 1013 471 q 968 636 1013 604 q 871 700 943 700 m 510 376 q 323 339 406 376 q 240 219 240 301 q 383 85 240 85 q 451 98 414 85 q 508 128 489 111 l 510 376 z "},"b":{"ha":872,"x_min":19,"x_max":810,"o":"m 19 1003 l 19 1075 l 263 1103 l 294 1092 l 294 710 q 387 762 338 742 q 500 782 436 782 q 659 741 589 782 q 769 617 729 700 q 810 410 810 533 q 758 194 810 293 q 616 38 707 96 q 411 -19 525 -19 q 235 -2 322 -19 q 124 35 147 15 l 124 974 l 19 1003 m 296 118 q 343 76 307 90 q 431 63 379 63 q 539 103 492 63 q 613 220 586 143 q 640 401 640 297 q 612 551 640 489 q 536 646 583 614 q 432 678 489 678 q 353 665 389 678 q 296 632 318 651 l 296 118 z "},"c":{"ha":729,"x_min":64,"x_max":692,"o":"m 460 779 q 577 772 517 782 q 667 746 638 763 l 667 563 l 581 563 l 539 664 q 436 690 504 690 q 290 615 346 690 q 233 413 233 540 q 266 238 233 310 q 353 129 299 165 q 471 93 407 93 q 579 105 524 93 q 663 135 635 117 l 692 67 q 572 6 647 28 q 408 -15 496 -15 q 224 33 301 -15 q 105 169 146 82 q 64 367 64 256 q 115 581 64 489 q 256 725 167 674 q 460 779 346 776 z "},"ć":{"ha":729,"x_min":64,"x_max":692,"o":"m 64 0 m 460 779 q 577 772 517 782 q 667 746 638 763 l 667 563 l 581 563 l 539 664 q 436 690 504 690 q 290 615 346 690 q 233 413 233 540 q 266 238 233 310 q 353 129 299 165 q 471 93 407 93 q 579 105 524 93 q 663 135 635 117 l 692 67 q 572 6 647 28 q 408 -15 496 -15 q 224 33 301 -15 q 105 169 146 82 q 64 367 64 256 q 115 581 64 489 q 256 725 167 674 q 460 779 346 776 m 546 1225 l 672 1111 q 551 994 633 1050 q 386 907 468 939 l 342 953 l 546 1225 z "},"č":{"ha":729,"x_min":64,"x_max":694,"o":"m 64 0 m 460 779 q 577 772 517 782 q 667 746 638 763 l 667 563 l 581 563 l 539 664 q 436 690 504 690 q 290 615 346 690 q 233 413 233 540 q 266 238 233 310 q 353 129 299 165 q 471 93 407 93 q 579 105 524 93 q 663 135 635 117 l 692 67 q 572 6 647 28 q 408 -15 496 -15 q 224 33 301 -15 q 105 169 146 82 q 64 367 64 256 q 115 581 64 489 q 256 725 167 674 q 460 779 346 776 m 253 1203 l 440 1039 l 625 1204 l 694 1165 l 513 906 l 368 906 l 183 1165 l 253 1203 z "},"ç":{"ha":729,"x_min":63,"x_max":690,"o":"m 450 -86 q 570 -126 528 -87 q 613 -215 613 -165 q 556 -323 613 -287 q 407 -358 499 -358 q 331 -351 363 -358 q 289 -342 299 -343 l 290 -261 q 326 -268 301 -265 q 368 -271 351 -271 q 426 -258 406 -271 q 446 -210 446 -246 q 424 -168 446 -183 q 363 -153 403 -153 q 341 -154 350 -153 q 328 -156 332 -156 q 335 -86 328 -128 q 353 -11 342 -44 q 139 109 215 7 q 63 367 63 211 q 114 581 63 489 q 255 725 165 674 q 458 779 344 776 q 576 772 515 782 q 665 746 636 763 l 665 563 l 579 563 l 538 664 q 435 690 503 690 q 288 615 344 690 q 232 413 232 540 q 265 238 232 310 q 351 129 297 165 q 469 93 406 93 q 578 105 522 93 q 661 135 633 117 l 690 67 q 590 13 653 33 q 451 -14 526 -8 l 450 -46 q 453 -86 450 -64 l 450 -86 z "},"d":{"ha":888,"x_min":61,"x_max":844,"o":"m 751 1086 l 751 71 l 844 71 l 844 11 q 774 -12 819 -3 q 679 -22 728 -22 q 615 -6 635 -22 q 590 53 596 11 q 499 3 560 25 q 367 -18 439 -18 q 213 28 282 -18 q 102 160 143 74 q 61 367 61 247 q 116 581 61 486 q 265 728 171 675 q 471 782 358 782 q 581 768 533 782 l 581 971 l 433 1000 l 433 1074 l 715 1103 l 751 1086 m 453 701 q 347 667 397 701 q 266 564 297 632 q 235 399 235 496 q 261 232 235 304 q 334 121 288 160 q 439 82 381 82 q 519 93 481 82 q 582 125 557 104 l 582 658 q 453 701 533 701 z "},"ð":{"ha":857,"x_min":60,"x_max":793,"o":"m 619 1108 l 511 1014 q 722 753 651 907 q 793 428 793 600 q 691 97 793 211 q 413 -18 589 -18 q 228 28 308 -18 q 104 156 149 75 q 60 340 60 238 q 108 538 60 456 q 238 665 156 621 q 424 708 321 708 q 535 685 478 708 q 625 628 593 663 q 555 798 606 718 q 432 940 504 878 l 318 840 l 250 896 l 358 996 q 214 1060 286 1042 l 232 1144 q 432 1067 340 1118 l 507 1132 l 547 1169 l 619 1108 m 425 622 q 283 551 326 622 q 239 349 239 481 q 263 210 239 275 q 331 106 286 146 q 435 65 375 65 q 571 158 522 65 q 619 379 619 250 q 615 454 619 436 q 552 569 601 515 q 425 622 503 622 z "},"ď":{"ha":1007,"x_min":61,"x_max":1001,"o":"m 61 0 m 751 1086 l 751 71 l 844 71 l 844 11 q 774 -12 819 -3 q 679 -22 728 -22 q 615 -6 635 -22 q 590 53 596 11 q 499 3 560 25 q 367 -18 439 -18 q 213 28 282 -18 q 102 160 143 74 q 61 367 61 247 q 116 581 61 486 q 265 728 171 675 q 471 782 358 782 q 581 768 533 782 l 581 971 l 433 1000 l 433 1074 l 715 1103 l 751 1086 m 453 701 q 347 667 397 701 q 266 564 297 632 q 235 399 235 496 q 261 232 235 304 q 334 121 288 160 q 439 82 381 82 q 519 93 481 82 q 582 125 557 104 l 582 658 q 453 701 533 701 m 832 733 q 850 921 850 818 q 839 1022 850 974 q 815 1086 828 1069 l 825 1115 l 957 1149 q 989 1077 976 1128 q 1001 974 1001 1026 q 976 811 1001 893 q 915 692 950 729 l 838 715 l 832 733 z "},"đ":{"ha":888,"x_min":61,"x_max":863,"o":"m 751 813 l 751 71 l 844 71 l 844 11 q 774 -12 819 -3 q 679 -22 728 -22 q 615 -6 635 -22 q 590 53 596 11 q 499 3 560 25 q 367 -18 439 -18 q 213 26 283 -18 q 102 150 143 71 q 61 329 61 229 q 174 628 61 531 q 471 726 288 726 q 581 713 533 726 l 581 813 l 322 813 l 322 894 l 581 894 l 581 971 l 433 1000 l 433 1074 l 715 1103 l 751 1086 l 751 894 l 863 894 l 863 813 l 751 813 m 581 603 q 453 646 535 646 q 347 617 396 646 q 266 523 297 588 q 235 360 235 458 q 261 216 235 279 q 334 117 288 153 q 439 82 381 82 q 519 93 481 82 q 581 125 557 104 l 581 603 z "},"e":{"ha":799,"x_min":61,"x_max":735,"o":"m 453 782 q 660 703 586 782 q 735 481 735 624 q 725 365 735 419 l 235 365 q 301 164 238 236 q 481 92 364 92 q 590 103 532 92 q 685 133 649 115 l 714 67 q 585 5 669 28 q 417 -18 500 -18 q 154 88 247 -17 q 61 371 61 192 q 111 583 61 489 q 250 729 161 676 q 453 782 339 782 m 421 700 q 295 638 344 700 q 236 457 246 575 l 561 457 q 563 503 563 472 q 518 647 563 606 q 421 700 490 700 z "},"é":{"ha":799,"x_min":61,"x_max":735,"o":"m 61 0 m 453 782 q 660 703 586 782 q 735 481 735 624 q 725 365 735 419 l 235 365 q 301 164 238 236 q 481 92 364 92 q 590 103 532 92 q 685 133 649 115 l 714 67 q 585 5 669 28 q 417 -18 500 -18 q 154 88 247 -17 q 61 371 61 192 q 111 583 61 489 q 250 729 161 676 q 453 782 339 782 m 421 700 q 295 638 344 700 q 236 457 246 575 l 561 457 q 563 503 563 472 q 518 647 563 606 q 421 700 490 700 m 535 1225 l 661 1111 q 540 994 622 1050 q 375 907 457 939 l 331 953 l 535 1225 z "},"ě":{"ha":799,"x_min":61,"x_max":735,"o":"m 61 0 m 453 782 q 660 703 586 782 q 735 481 735 624 q 725 365 735 419 l 235 365 q 301 164 238 236 q 481 92 364 92 q 590 103 532 92 q 685 133 649 115 l 714 67 q 585 5 669 28 q 417 -18 500 -18 q 154 88 247 -17 q 61 371 61 192 q 111 583 61 489 q 250 729 161 676 q 453 782 339 782 m 421 700 q 295 638 344 700 q 236 457 246 575 l 561 457 q 563 503 563 472 q 518 647 563 606 q 421 700 490 700 m 239 1203 l 426 1039 l 611 1204 l 681 1165 l 499 906 l 354 906 l 169 1165 l 239 1203 z "},"ê":{"ha":799,"x_min":61,"x_max":735,"o":"m 61 0 m 453 782 q 660 703 586 782 q 735 481 735 624 q 725 365 735 419 l 235 365 q 301 164 238 236 q 481 92 364 92 q 590 103 532 92 q 685 133 649 115 l 714 67 q 585 5 669 28 q 417 -18 500 -18 q 154 88 247 -17 q 61 371 61 192 q 111 583 61 489 q 250 729 161 676 q 453 782 339 782 m 421 700 q 295 638 344 700 q 236 457 246 575 l 561 457 q 563 503 563 472 q 518 647 563 606 q 421 700 490 700 m 356 1204 l 503 1204 l 683 944 l 610 906 l 429 1072 l 238 906 l 172 943 l 356 1204 z "},"ë":{"ha":799,"x_min":61,"x_max":735,"o":"m 61 0 m 453 782 q 660 703 586 782 q 735 481 735 624 q 725 365 735 419 l 235 365 q 301 164 238 236 q 481 92 364 92 q 590 103 532 92 q 685 133 649 115 l 714 67 q 585 5 669 28 q 417 -18 500 -18 q 154 88 247 -17 q 61 371 61 192 q 111 583 61 489 q 250 729 161 676 q 453 782 339 782 m 421 700 q 295 638 344 700 q 236 457 246 575 l 561 457 q 563 503 563 472 q 518 647 563 606 q 421 700 490 700 m 254 928 q 184 951 213 928 q 156 1014 156 975 q 191 1088 156 1058 q 271 1118 226 1118 q 344 1094 318 1118 q 371 1029 371 1071 q 335 956 371 983 q 254 928 299 928 m 583 928 q 514 951 542 928 q 486 1015 486 975 q 522 1088 486 1058 q 600 1118 558 1118 q 674 1094 649 1118 q 700 1031 700 1071 q 665 956 700 983 q 583 928 631 928 z "},"ė":{"ha":799,"x_min":61,"x_max":735,"o":"m 61 0 m 453 782 q 660 703 586 782 q 735 481 735 624 q 725 365 735 419 l 235 365 q 301 164 238 236 q 481 92 364 92 q 590 103 532 92 q 685 133 649 115 l 714 67 q 585 5 669 28 q 417 -18 500 -18 q 154 88 247 -17 q 61 371 61 192 q 111 583 61 489 q 250 729 161 676 q 453 782 339 782 m 421 700 q 295 638 344 700 q 236 457 246 575 l 561 457 q 563 503 563 472 q 518 647 563 606 q 421 700 490 700 m 435 1106 q 509 1081 482 1106 q 536 1017 536 1057 q 500 942 536 971 q 418 913 464 913 q 349 937 378 913 q 319 1001 319 961 q 356 1076 319 1046 q 435 1106 392 1106 z "},"è":{"ha":799,"x_min":61,"x_max":735,"o":"m 61 0 m 453 782 q 660 703 586 782 q 735 481 735 624 q 725 365 735 419 l 235 365 q 301 164 238 236 q 481 92 364 92 q 590 103 532 92 q 685 133 649 115 l 714 67 q 585 5 669 28 q 417 -18 500 -18 q 154 88 247 -17 q 61 371 61 192 q 111 583 61 489 q 250 729 161 676 q 453 782 339 782 m 421 700 q 295 638 344 700 q 236 457 246 575 l 561 457 q 563 503 563 472 q 518 647 563 606 q 421 700 490 700 m 513 908 q 358 985 446 924 q 226 1111 269 1047 l 353 1225 l 557 953 l 513 908 z "},"ē":{"ha":799,"x_min":61,"x_max":735,"o":"m 61 0 m 453 782 q 660 703 586 782 q 735 481 735 624 q 725 365 735 419 l 235 365 q 301 164 238 236 q 481 92 364 92 q 590 103 532 92 q 685 133 649 115 l 714 67 q 585 5 669 28 q 417 -18 500 -18 q 154 88 247 -17 q 61 371 61 192 q 111 583 61 489 q 250 729 161 676 q 453 782 339 782 m 421 700 q 295 638 344 700 q 236 457 246 575 l 561 457 q 563 503 563 472 q 518 647 563 606 q 421 700 490 700 m 607 1078 l 607 954 l 239 954 l 239 1078 l 607 1078 z "},"ę":{"ha":799,"x_min":61,"x_max":735,"o":"m 453 782 q 661 703 588 782 q 735 479 735 624 q 725 365 735 419 l 235 365 q 301 164 238 236 q 481 92 364 92 q 590 103 532 92 q 685 133 649 115 l 714 67 q 575 -65 617 -11 q 533 -160 533 -119 q 565 -223 533 -203 q 647 -243 597 -243 q 728 -229 692 -243 l 728 -301 q 654 -335 700 -322 q 565 -347 608 -347 q 441 -315 490 -347 q 392 -214 392 -282 q 428 -104 392 -158 q 529 -7 464 -50 q 417 -18 469 -18 q 154 88 247 -17 q 61 371 61 192 q 111 583 61 489 q 250 729 161 676 q 453 782 339 782 m 421 700 q 295 638 344 700 q 236 457 246 575 l 561 457 q 564 517 564 493 q 531 653 564 606 q 421 700 497 700 z "},"f":{"ha":594,"x_min":51,"x_max":606,"o":"m 192 88 l 192 650 l 51 650 l 51 710 l 192 754 l 192 815 q 237 987 192 908 q 351 1111 282 1065 q 490 1157 421 1157 q 562 1152 531 1157 q 606 1140 593 1147 l 606 1003 q 548 1022 588 1013 q 471 1031 508 1031 q 408 1019 431 1031 q 374 974 385 1007 q 363 878 363 942 l 363 758 l 567 758 l 567 650 l 363 650 l 363 86 l 521 71 l 521 0 l 65 0 l 65 71 l 192 88 z "},"g":{"ha":833,"x_min":72,"x_max":822,"o":"m 418 785 q 625 728 547 785 q 749 772 653 772 l 822 772 l 822 647 l 688 647 q 711 535 711 600 q 668 385 711 447 q 553 291 625 322 q 392 260 481 260 q 257 279 319 260 q 249 233 249 257 q 249 207 249 210 q 270 149 249 168 q 339 128 292 129 q 508 125 385 125 q 736 68 675 125 q 797 -92 797 11 q 747 -235 797 -175 q 609 -328 697 -296 q 407 -360 521 -360 q 167 -312 261 -360 q 72 -158 72 -265 q 106 -52 72 -101 q 188 25 140 -3 q 135 56 151 38 q 115 95 118 75 q 111 147 111 115 q 136 224 111 176 q 197 304 161 272 q 81 511 81 371 q 128 663 81 601 q 251 754 175 724 q 418 785 328 785 m 392 706 q 288 667 326 706 q 249 547 249 628 q 288 401 249 457 q 410 346 326 346 q 515 390 483 346 q 547 521 547 435 q 392 706 547 706 m 260 8 q 228 -107 228 -37 q 286 -231 228 -190 q 435 -272 344 -272 q 595 -239 540 -272 q 650 -133 650 -206 q 635 -56 650 -85 q 581 -12 619 -26 q 469 1 542 1 l 372 3 q 260 8 300 3 z "},"ğ":{"ha":833,"x_min":72,"x_max":822,"o":"m 72 0 m 418 785 q 625 728 547 785 q 749 772 653 772 l 822 772 l 822 647 l 688 647 q 711 535 711 600 q 668 385 711 447 q 553 291 625 322 q 392 260 481 260 q 257 279 319 260 q 249 233 249 257 q 249 207 249 210 q 270 149 249 168 q 339 128 292 129 q 508 125 385 125 q 736 68 675 125 q 797 -92 797 11 q 747 -235 797 -175 q 609 -328 697 -296 q 407 -360 521 -360 q 167 -312 261 -360 q 72 -158 72 -265 q 106 -52 72 -101 q 188 25 140 -3 q 135 56 151 38 q 115 95 118 75 q 111 147 111 115 q 136 224 111 176 q 197 304 161 272 q 81 511 81 371 q 128 663 81 601 q 251 754 175 724 q 418 785 328 785 m 392 706 q 288 667 326 706 q 249 547 249 628 q 288 401 249 457 q 410 346 326 346 q 515 390 483 346 q 547 521 547 435 q 392 706 547 706 m 260 8 q 228 -107 228 -37 q 286 -231 228 -190 q 435 -272 344 -272 q 595 -239 540 -272 q 650 -133 650 -206 q 635 -56 650 -85 q 581 -12 619 -26 q 469 1 542 1 l 372 3 q 260 8 300 3 m 638 1151 q 606 1041 638 1093 q 521 958 575 989 q 401 926 467 926 q 279 957 333 926 q 195 1039 225 988 q 165 1150 165 1090 l 258 1150 q 283 1099 269 1121 q 325 1058 296 1078 q 403 1039 354 1039 q 500 1072 469 1039 q 547 1151 531 1106 l 638 1151 z "},"ģ":{"ha":833,"x_min":72,"x_max":822,"o":"m 72 0 m 418 785 q 625 728 547 785 q 749 772 653 772 l 822 772 l 822 647 l 688 647 q 711 535 711 600 q 668 385 711 447 q 553 291 625 322 q 392 260 481 260 q 257 279 319 260 q 249 233 249 257 q 249 207 249 210 q 270 149 249 168 q 339 128 292 129 q 508 125 385 125 q 736 68 675 125 q 797 -92 797 11 q 747 -235 797 -175 q 609 -328 697 -296 q 407 -360 521 -360 q 167 -312 261 -360 q 72 -158 72 -265 q 106 -52 72 -101 q 188 25 140 -3 q 135 56 151 38 q 115 95 118 75 q 111 147 111 115 q 136 224 111 176 q 197 304 161 272 q 81 511 81 371 q 128 663 81 601 q 251 754 175 724 q 418 785 328 785 m 392 706 q 288 667 326 706 q 249 547 249 628 q 288 401 249 457 q 410 346 326 346 q 515 390 483 346 q 547 521 547 435 q 392 706 547 706 m 260 8 q 228 -107 228 -37 q 286 -231 228 -190 q 435 -272 344 -272 q 595 -239 540 -272 q 650 -133 650 -206 q 635 -56 650 -85 q 581 -12 619 -26 q 469 1 542 1 l 372 3 q 260 8 300 3 m 425 906 q 313 969 354 918 q 272 1085 272 1019 q 299 1188 272 1139 q 367 1269 326 1236 q 443 1314 407 1303 l 497 1279 l 497 1261 q 447 1205 464 1242 q 431 1125 431 1168 q 456 1061 431 1089 q 506 1033 481 1033 l 506 992 l 425 906 z "},"h":{"ha":958,"x_min":61,"x_max":915,"o":"m 169 86 l 169 971 l 61 1000 l 61 1074 l 306 1103 l 340 1089 l 339 778 l 332 676 q 458 749 388 724 q 592 775 529 775 q 734 736 685 775 q 801 621 783 697 q 818 417 819 544 l 818 86 l 915 71 l 915 0 l 539 0 l 539 71 l 647 86 l 647 367 q 639 534 647 475 q 599 626 631 593 q 500 658 567 658 q 340 611 406 658 l 340 86 l 426 71 l 426 0 l 69 0 l 69 71 l 169 86 z "},"ħ":{"ha":958,"x_min":58,"x_max":915,"o":"m 169 86 l 169 813 l 58 813 l 58 894 l 169 894 l 169 971 l 61 1000 l 61 1074 l 306 1103 l 340 1089 l 339 894 l 458 894 l 458 813 l 339 813 l 339 778 l 332 676 q 458 749 388 724 q 592 775 529 775 q 734 736 685 775 q 801 621 783 697 q 818 417 819 544 l 818 86 l 915 71 l 915 0 l 539 0 l 539 71 l 647 86 l 647 367 q 639 534 647 475 q 599 626 631 593 q 500 658 567 658 q 340 611 406 658 l 340 86 l 426 71 l 426 0 l 69 0 l 69 71 l 169 86 z "},"i":{"ha":478,"x_min":68,"x_max":447,"o":"m 251 1138 q 330 1110 303 1138 q 357 1038 357 1083 q 319 953 357 986 q 232 919 282 919 q 158 947 189 919 q 126 1019 126 975 q 165 1103 126 1068 q 251 1138 204 1138 m 342 761 l 342 86 l 447 71 l 447 0 l 68 0 l 68 71 l 175 86 l 175 593 l 83 660 l 83 710 l 301 775 l 342 761 z "},"ı":{"ha":478,"x_min":68,"x_max":447,"o":"m 175 86 l 175 593 l 83 660 l 83 710 l 301 775 l 342 761 l 342 86 l 447 71 l 447 0 l 68 0 l 68 71 l 175 86 z "},"í":{"ha":478,"x_min":68,"x_max":483,"o":"m 68 0 m 175 86 l 175 593 l 83 660 l 83 710 l 301 775 l 342 761 l 342 86 l 447 71 l 447 0 l 68 0 l 68 71 l 175 86 m 357 1225 l 483 1111 q 362 994 444 1050 q 197 907 279 939 l 153 953 l 357 1225 z "},"î":{"ha":478,"x_min":-8,"x_max":503,"o":"m 176 1204 l 321 1204 l 503 944 l 429 906 l 247 1072 l 57 906 l -8 943 l 176 1204 m 175 86 l 175 593 l 83 660 l 83 710 l 301 776 l 342 763 l 342 86 l 446 71 l 446 0 l 68 0 l 68 71 l 175 86 z "},"ï":{"ha":478,"x_min":-25,"x_max":519,"o":"m 0 0 m 175 86 l 175 593 l 83 660 l 83 710 l 301 775 l 342 761 l 342 86 l 447 71 l 447 0 l 68 0 l 68 71 l 175 86 m 74 928 q 3 951 32 928 q -25 1014 -25 975 q 10 1088 -25 1058 q 90 1118 46 1118 q 164 1094 138 1118 q 190 1029 190 1071 q 154 956 190 983 q 74 928 118 928 m 403 928 q 333 951 361 928 q 306 1015 306 975 q 342 1088 306 1058 q 419 1118 378 1118 q 494 1094 468 1118 q 519 1031 519 1071 q 485 956 519 983 q 403 928 450 928 z "},"ì":{"ha":478,"x_min":47,"x_max":446,"o":"m 333 908 q 179 985 268 924 q 47 1111 90 1046 l 174 1225 l 378 953 l 333 908 m 175 86 l 175 593 l 83 660 l 83 710 l 301 776 l 342 763 l 342 86 l 446 71 l 446 0 l 68 0 l 68 71 l 175 86 z "},"ĳ":{"ha":926,"x_min":68,"x_max":821,"o":"m 68 0 m 251 1138 q 330 1110 303 1138 q 357 1038 357 1083 q 319 953 357 986 q 232 919 282 919 q 158 947 189 919 q 126 1019 126 975 q 165 1103 126 1068 q 251 1138 204 1138 m 342 761 l 342 86 l 447 71 l 447 0 l 68 0 l 68 71 l 175 86 l 175 593 l 83 660 l 83 710 l 301 775 l 342 761 m 715 1151 q 794 1124 767 1151 q 821 1051 821 1097 q 784 967 821 1000 q 696 933 747 933 q 622 961 653 933 q 592 1033 592 989 q 631 1117 592 1082 q 715 1151 669 1151 m 813 760 l 813 -18 q 746 -265 813 -174 q 563 -356 679 -356 q 506 -351 539 -356 q 465 -340 474 -346 l 465 -235 q 499 -240 474 -237 q 542 -242 525 -242 q 623 -187 601 -242 q 644 -3 644 -132 l 644 593 l 557 661 l 557 708 l 774 775 l 813 760 z "},"ī":{"ha":478,"x_min":53,"x_max":447,"o":"m 53 0 m 175 86 l 175 593 l 83 660 l 83 710 l 301 775 l 342 761 l 342 86 l 447 71 l 447 0 l 68 0 l 68 71 l 175 86 m 421 1078 l 421 954 l 53 954 l 53 1078 l 421 1078 z "},"į":{"ha":478,"x_min":51,"x_max":450,"o":"m 232 919 q 158 947 189 919 q 126 1019 126 975 q 165 1103 126 1068 q 251 1138 204 1138 q 330 1110 303 1138 q 357 1038 357 1083 q 319 953 357 986 q 232 919 282 919 m 450 -272 q 343 -331 401 -308 q 204 -354 285 -354 q 90 -319 129 -354 q 51 -231 51 -285 q 119 -101 51 -168 q 268 0 186 -35 l 68 0 l 68 71 l 175 86 l 175 593 l 83 660 l 83 710 l 301 775 l 342 761 l 342 86 l 447 71 l 447 0 l 399 0 q 269 -80 332 -25 q 207 -181 207 -135 q 225 -230 207 -217 q 281 -246 243 -243 q 342 -237 311 -247 q 397 -216 372 -226 q 432 -201 422 -206 l 450 -272 z "},"ĩ":{"ha":478,"x_min":-29,"x_max":515,"o":"m 0 0 m 175 86 l 175 593 l 83 660 l 83 710 l 301 775 l 342 761 l 342 86 l 447 71 l 447 0 l 68 0 l 68 71 l 175 86 m -29 1006 q 55 1093 -4 1054 q 167 1132 114 1132 q 223 1120 200 1132 q 275 1085 246 1108 q 294 1071 279 1082 q 324 1054 310 1060 q 351 1049 338 1049 q 413 1065 385 1049 q 471 1107 442 1081 l 515 1051 q 433 963 490 1001 q 322 924 375 924 q 263 936 288 924 q 211 971 239 949 q 172 998 189 989 q 136 1007 156 1007 q 15 949 83 1007 l -29 1006 z "},"j":{"ha":449,"x_min":-12,"x_max":343,"o":"m 238 1151 q 316 1124 289 1151 q 343 1051 343 1097 q 306 967 343 1000 q 218 933 269 933 q 144 961 175 933 q 114 1033 114 989 q 153 1117 114 1082 q 238 1151 192 1151 m 335 760 l 335 -18 q 268 -265 335 -174 q 85 -356 201 -356 q 28 -351 61 -356 q -12 -340 -4 -346 l -12 -235 q 22 -240 -4 -237 q 64 -242 47 -242 q 145 -187 124 -242 q 167 -3 167 -132 l 167 593 l 79 661 l 79 708 l 296 775 l 335 760 z "},"ȷ":{"ha":449,"x_min":-12,"x_max":335,"o":"m 79 661 l 79 708 l 296 775 l 335 760 l 335 -18 q 268 -265 335 -174 q 85 -356 201 -356 q 28 -351 61 -356 q -12 -340 -4 -346 l -12 -235 q 22 -240 -4 -237 q 64 -242 47 -242 q 145 -187 124 -242 q 167 -3 167 -132 l 167 593 l 79 661 z "},"ĵ":{"ha":449,"x_min":-12,"x_max":503,"o":"m 176 1218 l 321 1218 l 503 958 l 431 919 l 249 1086 l 57 919 l -8 957 l 176 1218 m 79 661 l 79 708 l 296 775 l 335 760 l 335 -18 q 268 -265 335 -174 q 85 -356 201 -356 q 28 -351 61 -356 q -12 -340 -4 -346 l -12 -235 q 22 -240 -4 -237 q 64 -242 47 -242 q 145 -187 124 -242 q 167 -3 167 -132 l 167 593 l 79 661 z "},"k":{"ha":885,"x_min":51,"x_max":886,"o":"m 169 88 l 169 963 l 51 996 l 51 1069 l 307 1103 l 340 1086 l 340 478 l 333 378 l 606 663 l 496 674 l 496 763 l 856 763 l 856 674 l 740 663 l 535 457 l 801 85 l 886 71 l 886 0 l 529 0 l 529 71 l 611 88 l 428 364 l 335 267 l 339 163 l 339 85 l 431 71 l 431 0 l 65 0 l 65 71 l 169 88 z "},"ķ":{"ha":885,"x_min":51,"x_max":886,"o":"m 51 0 m 169 88 l 169 963 l 51 996 l 51 1069 l 307 1103 l 340 1086 l 340 478 l 333 378 l 606 663 l 496 674 l 496 763 l 856 763 l 856 674 l 740 663 l 535 457 l 801 85 l 886 71 l 886 0 l 529 0 l 529 71 l 611 88 l 428 364 l 335 267 l 339 163 l 339 85 l 431 71 l 431 0 l 65 0 l 65 71 l 169 88 m 456 -26 q 567 -90 526 -39 q 608 -206 608 -140 q 581 -308 608 -260 q 514 -390 554 -357 q 438 -435 474 -424 l 383 -400 l 383 -382 q 433 -326 417 -362 q 450 -246 450 -289 q 425 -182 450 -210 q 375 -154 400 -154 l 375 -112 l 456 -26 z "},"ĸ":{"ha":885,"x_min":57,"x_max":885,"o":"m 168 88 l 168 625 l 57 665 l 57 735 l 293 779 l 339 761 l 339 479 l 333 378 l 604 663 l 494 674 l 494 763 l 856 763 l 856 674 l 740 663 l 535 457 l 801 85 l 885 71 l 885 0 l 529 0 l 529 71 l 611 88 l 426 364 l 335 267 l 339 163 l 339 85 l 429 71 l 429 0 l 65 0 l 65 71 l 168 88 z "},"l":{"ha":482,"x_min":64,"x_max":458,"o":"m 167 86 l 167 971 l 65 1000 l 65 1074 l 306 1103 l 338 1089 l 338 88 l 458 71 l 458 0 l 64 0 l 64 71 l 167 86 z "},"ĺ":{"ha":482,"x_min":64,"x_max":488,"o":"m 64 0 m 167 86 l 167 971 l 65 1000 l 65 1074 l 306 1103 l 338 1089 l 338 88 l 458 71 l 458 0 l 64 0 l 64 71 l 167 86 m 361 1476 l 488 1363 q 366 1246 449 1301 q 201 1158 283 1190 l 157 1204 l 361 1476 z "},"ľ":{"ha":482,"x_min":64,"x_max":588,"o":"m 64 0 m 167 86 l 167 971 l 65 1000 l 65 1074 l 306 1103 l 338 1089 l 338 88 l 458 71 l 458 0 l 64 0 l 64 71 l 167 86 m 418 733 q 436 921 436 818 q 425 1022 436 974 q 401 1086 414 1069 l 411 1115 l 543 1149 q 575 1077 563 1128 q 588 974 588 1026 q 562 811 588 893 q 501 692 536 729 l 424 715 l 418 733 z "},"ļ":{"ha":482,"x_min":64,"x_max":458,"o":"m 64 0 m 167 86 l 167 971 l 65 1000 l 65 1074 l 306 1103 l 338 1089 l 338 88 l 458 71 l 458 0 l 64 0 l 64 71 l 167 86 m 218 -26 q 330 -90 289 -39 q 371 -206 371 -140 q 344 -308 371 -260 q 276 -390 317 -357 q 200 -435 236 -424 l 146 -400 l 146 -382 q 196 -326 179 -362 q 213 -246 213 -289 q 188 -182 213 -210 q 138 -154 163 -154 l 138 -112 l 218 -26 z "},"ŀ":{"ha":746,"x_min":63,"x_max":724,"o":"m 336 1089 l 336 88 l 457 71 l 457 0 l 63 0 l 63 71 l 165 86 l 165 971 l 63 1000 l 63 1074 l 304 1103 l 336 1089 m 617 658 q 697 631 669 658 q 724 557 724 603 q 685 472 724 506 q 599 439 647 439 q 524 466 556 439 q 493 538 493 493 q 532 622 493 586 q 617 658 571 658 z "},"ł":{"ha":482,"x_min":64,"x_max":465,"o":"m 167 86 l 167 489 l 71 454 l 71 574 l 167 613 l 167 971 l 65 1000 l 65 1074 l 306 1103 l 338 1089 l 338 678 l 465 729 l 465 600 l 338 551 l 338 88 l 458 71 l 458 0 l 64 0 l 64 71 l 167 86 z "},"m":{"ha":1428,"x_min":78,"x_max":1394,"o":"m 172 86 l 172 599 l 78 656 l 78 714 l 285 775 l 322 763 l 322 664 q 443 741 368 708 q 583 775 518 774 q 712 756 661 779 q 788 676 763 733 q 917 747 840 719 q 1061 775 993 775 q 1235 697 1183 775 q 1288 451 1288 618 l 1288 86 l 1394 71 l 1394 0 l 1029 0 l 1029 71 l 1117 86 l 1117 425 q 1106 560 1117 511 q 1063 632 1094 608 q 972 656 1032 656 q 890 642 932 656 q 811 606 849 629 q 824 464 824 554 l 824 86 l 925 71 l 925 0 l 553 0 l 553 71 l 653 88 l 653 433 q 641 562 653 514 q 599 633 629 610 q 511 656 568 656 q 428 642 472 656 q 344 599 383 628 l 344 86 l 440 71 l 440 0 l 83 0 l 83 71 l 172 86 z "},"n":{"ha":964,"x_min":78,"x_max":926,"o":"m 172 85 l 172 599 l 78 656 l 78 714 l 285 775 l 322 763 l 322 664 q 456 743 375 711 q 608 775 538 775 q 776 700 728 775 q 824 461 824 625 l 824 85 l 926 71 l 926 0 l 551 0 l 551 71 l 653 86 l 653 435 q 642 563 653 517 q 600 632 631 610 q 511 654 569 654 q 428 640 475 654 q 344 599 382 626 l 344 86 l 439 71 l 439 0 l 83 0 l 83 71 l 172 85 z "},"ń":{"ha":964,"x_min":78,"x_max":926,"o":"m 621 1225 l 747 1111 q 626 994 708 1050 q 461 907 543 939 l 417 953 l 621 1225 m 172 85 l 172 599 l 78 656 l 78 714 l 285 775 l 322 763 l 322 664 q 456 743 375 711 q 608 775 538 775 q 776 700 728 775 q 824 461 824 625 l 824 85 l 926 71 l 926 0 l 551 0 l 551 71 l 653 86 l 653 435 q 642 563 653 517 q 600 632 631 610 q 511 654 569 654 q 428 640 475 654 q 344 599 382 626 l 344 86 l 439 71 l 439 0 l 83 0 l 83 71 l 172 85 z "},"ň":{"ha":964,"x_min":78,"x_max":926,"o":"m 78 0 m 172 85 l 172 599 l 78 656 l 78 714 l 285 775 l 322 763 l 322 664 q 456 743 375 711 q 608 775 538 775 q 776 700 728 775 q 824 461 824 625 l 824 85 l 926 71 l 926 0 l 551 0 l 551 71 l 653 86 l 653 435 q 642 563 653 517 q 600 632 631 610 q 511 654 569 654 q 428 640 475 654 q 344 599 382 626 l 344 86 l 439 71 l 439 0 l 83 0 l 83 71 l 172 85 m 314 1203 l 501 1039 l 686 1204 l 756 1165 l 574 906 l 429 906 l 244 1165 l 314 1203 z "},"ņ":{"ha":964,"x_min":78,"x_max":926,"o":"m 78 0 m 172 85 l 172 599 l 78 656 l 78 714 l 285 775 l 322 763 l 322 664 q 456 743 375 711 q 608 775 538 775 q 776 700 728 775 q 824 461 824 625 l 824 85 l 926 71 l 926 0 l 551 0 l 551 71 l 653 86 l 653 435 q 642 563 653 517 q 600 632 631 610 q 511 654 569 654 q 428 640 475 654 q 344 599 382 626 l 344 86 l 439 71 l 439 0 l 83 0 l 83 71 l 172 85 m 469 -26 q 581 -90 540 -39 q 622 -206 622 -140 q 595 -308 622 -260 q 528 -390 568 -357 q 451 -435 488 -424 l 397 -400 l 397 -382 q 447 -326 431 -362 q 464 -246 464 -289 q 439 -182 464 -210 q 389 -154 414 -154 l 389 -112 l 469 -26 z "},"ñ":{"ha":964,"x_min":78,"x_max":926,"o":"m 78 0 m 172 85 l 172 599 l 78 656 l 78 714 l 285 775 l 322 763 l 322 664 q 456 743 375 711 q 608 775 538 775 q 776 700 728 775 q 824 461 824 625 l 824 85 l 926 71 l 926 0 l 551 0 l 551 71 l 653 86 l 653 435 q 642 563 653 517 q 600 632 631 610 q 511 654 569 654 q 428 640 475 654 q 344 599 382 626 l 344 86 l 439 71 l 439 0 l 83 0 l 83 71 l 172 85 m 236 1006 q 320 1093 261 1054 q 432 1132 379 1132 q 488 1120 465 1132 q 540 1085 511 1108 q 560 1071 544 1082 q 589 1054 575 1060 q 617 1049 603 1049 q 678 1065 650 1049 q 736 1107 707 1081 l 781 1051 q 698 963 756 1001 q 588 924 640 924 q 528 936 553 924 q 476 971 504 949 q 438 998 454 989 q 401 1007 421 1007 q 281 949 349 1007 l 236 1006 z "},"o":{"ha":860,"x_min":63,"x_max":799,"o":"m 446 782 q 708 677 618 782 q 799 397 799 572 q 750 181 799 275 q 617 35 701 88 q 425 -17 532 -17 q 154 94 246 -17 q 63 382 63 204 q 114 594 63 504 q 252 733 165 685 q 446 782 339 782 m 432 699 q 244 401 244 699 q 292 168 244 265 q 432 69 339 71 q 576 150 533 68 q 618 385 618 232 q 573 612 618 525 q 432 699 528 699 z "},"ó":{"ha":860,"x_min":63,"x_max":799,"o":"m 63 0 m 446 782 q 708 677 618 782 q 799 397 799 572 q 750 181 799 275 q 617 35 701 88 q 425 -17 532 -17 q 154 94 246 -17 q 63 382 63 204 q 114 594 63 504 q 252 733 165 685 q 446 782 339 782 m 432 699 q 244 401 244 699 q 292 168 244 265 q 432 69 339 71 q 576 150 533 68 q 618 385 618 232 q 573 612 618 525 q 432 699 528 699 m 546 1225 l 672 1111 q 551 994 633 1050 q 386 907 468 939 l 342 953 l 546 1225 z "},"ô":{"ha":860,"x_min":63,"x_max":799,"o":"m 63 0 m 446 782 q 708 677 618 782 q 799 397 799 572 q 750 181 799 275 q 617 35 701 88 q 425 -17 532 -17 q 154 94 246 -17 q 63 382 63 204 q 114 594 63 504 q 252 733 165 685 q 446 782 339 782 m 432 699 q 244 401 244 699 q 292 168 244 265 q 432 69 339 71 q 576 150 533 68 q 618 385 618 232 q 573 612 618 525 q 432 699 528 699 m 365 1204 l 513 1204 l 693 944 l 619 906 l 439 1072 l 247 906 l 182 943 l 365 1204 z "},"ö":{"ha":860,"x_min":63,"x_max":799,"o":"m 63 0 m 446 782 q 708 677 618 782 q 799 397 799 572 q 750 181 799 275 q 617 35 701 88 q 425 -17 532 -17 q 154 94 246 -17 q 63 382 63 204 q 114 594 63 504 q 252 733 165 685 q 446 782 339 782 m 432 699 q 244 401 244 699 q 292 168 244 265 q 432 69 339 71 q 576 150 533 68 q 618 385 618 232 q 573 612 618 525 q 432 699 528 699 m 264 928 q 194 951 222 928 q 165 1014 165 975 q 201 1088 165 1058 q 281 1118 236 1118 q 354 1094 328 1118 q 381 1029 381 1071 q 344 956 381 983 q 264 928 308 928 m 593 928 q 524 951 551 928 q 496 1015 496 975 q 532 1088 496 1058 q 610 1118 568 1118 q 684 1094 658 1118 q 710 1031 710 1071 q 675 956 710 983 q 593 928 640 928 z "},"ò":{"ha":860,"x_min":63,"x_max":799,"o":"m 63 0 m 446 782 q 708 677 618 782 q 799 397 799 572 q 750 181 799 275 q 617 35 701 88 q 425 -17 532 -17 q 154 94 246 -17 q 63 382 63 204 q 114 594 63 504 q 252 733 165 685 q 446 782 339 782 m 432 699 q 244 401 244 699 q 292 168 244 265 q 432 69 339 71 q 576 150 533 68 q 618 385 618 232 q 573 612 618 525 q 432 699 528 699 m 525 908 q 370 985 458 924 q 239 1111 282 1047 l 365 1225 l 569 953 l 525 908 z "},"ő":{"ha":860,"x_min":63,"x_max":831,"o":"m 63 0 m 446 782 q 708 677 618 782 q 799 397 799 572 q 750 181 799 275 q 617 35 701 88 q 425 -17 532 -17 q 154 94 246 -17 q 63 382 63 204 q 114 594 63 504 q 252 733 165 685 q 446 782 339 782 m 432 699 q 244 401 244 699 q 292 168 244 265 q 432 69 339 71 q 576 150 533 68 q 618 385 618 232 q 573 612 618 525 q 432 699 528 699 m 368 1235 l 476 1142 q 351 1008 432 1082 q 215 904 269 935 l 157 953 l 368 1235 m 718 1235 l 831 1142 q 699 1005 781 1078 q 565 904 618 932 l 508 953 l 718 1235 z "},"ō":{"ha":858,"x_min":63,"x_max":799,"o":"m 63 0 m 601 1078 l 601 954 l 233 954 l 233 1078 l 601 1078 m 446 782 q 708 677 618 782 q 799 397 799 572 q 750 181 799 275 q 617 35 701 88 q 425 -17 532 -17 q 154 94 246 -17 q 63 382 63 204 q 114 594 63 504 q 252 733 165 685 q 446 782 339 782 m 432 699 q 244 401 244 699 q 292 168 244 265 q 432 69 339 71 q 576 150 533 68 q 618 385 618 232 q 573 612 618 525 q 432 699 528 699 z "},"ø":{"ha":860,"x_min":63,"x_max":799,"o":"m 274 10 q 115 149 167 51 q 63 378 63 247 q 113 592 63 501 q 249 731 163 682 q 443 782 336 779 q 531 774 489 782 l 567 885 l 629 865 l 593 754 q 746 620 693 714 q 799 399 799 526 q 750 182 799 276 q 616 35 701 88 q 425 -17 531 -17 q 339 -7 385 -17 l 297 -135 l 232 -114 l 274 10 m 497 686 q 432 699 468 699 q 244 401 244 699 q 263 249 244 322 q 317 132 282 176 l 497 686 m 371 83 q 435 69 396 69 q 575 151 533 69 q 617 385 617 232 q 553 639 617 560 l 371 83 z "},"õ":{"ha":860,"x_min":63,"x_max":799,"o":"m 63 0 m 446 782 q 708 677 618 782 q 799 397 799 572 q 750 181 799 275 q 617 35 701 88 q 425 -17 532 -17 q 154 94 246 -17 q 63 382 63 204 q 114 594 63 504 q 252 733 165 685 q 446 782 339 782 m 432 699 q 244 401 244 699 q 292 168 244 265 q 432 69 339 71 q 576 150 533 68 q 618 385 618 232 q 573 612 618 525 q 432 699 528 699 m 161 1006 q 245 1093 186 1054 q 357 1132 304 1132 q 413 1120 390 1132 q 465 1085 436 1108 q 485 1071 469 1082 q 514 1054 500 1060 q 542 1049 528 1049 q 603 1065 575 1049 q 661 1107 632 1081 l 706 1051 q 623 963 681 1001 q 513 924 565 924 q 453 936 478 924 q 401 971 429 949 q 363 998 379 989 q 326 1007 346 1007 q 206 949 274 1007 l 161 1006 z "},"œ":{"ha":1408,"x_min":63,"x_max":1347,"o":"m 1067 782 q 1274 703 1200 782 q 1347 481 1347 624 q 1339 365 1347 426 l 847 365 q 914 164 850 236 q 1093 92 978 92 q 1203 103 1144 92 q 1299 133 1261 115 l 1328 67 q 1198 5 1283 28 q 1031 -18 1113 -18 q 848 25 925 -17 q 728 144 771 67 q 597 26 678 68 q 425 -17 517 -17 q 223 35 304 -17 q 102 177 142 88 q 63 381 63 267 q 114 594 63 503 q 253 733 165 685 q 447 782 340 782 q 628 740 553 782 q 747 619 703 697 q 881 739 799 696 q 1067 782 963 782 m 432 699 q 244 401 244 699 q 292 168 244 265 q 432 69 339 71 q 576 150 533 68 q 618 385 618 232 q 573 612 618 525 q 432 699 528 699 m 1033 700 q 906 638 956 700 q 849 457 857 575 l 1174 457 q 1175 499 1175 471 q 1129 647 1175 606 q 1033 700 1104 700 z "},"p":{"ha":904,"x_min":68,"x_max":843,"o":"m 542 782 q 760 686 678 782 q 843 404 843 590 q 791 192 843 289 q 648 40 739 96 q 443 -15 557 -15 q 326 0 390 -15 l 332 -156 l 332 -260 l 468 -275 l 468 -347 l 71 -347 l 71 -275 l 163 -258 l 163 599 l 68 656 l 68 714 l 274 775 l 310 763 l 310 679 q 405 751 339 719 q 542 782 471 782 m 471 681 q 390 661 426 681 q 331 618 354 642 l 332 128 q 383 88 346 103 q 468 74 419 74 q 572 110 525 74 q 647 218 619 147 q 674 388 674 289 q 617 605 674 529 q 471 681 560 681 z "},"þ":{"ha":876,"x_min":25,"x_max":817,"o":"m 300 1092 l 300 710 q 392 762 343 742 q 506 782 442 782 q 665 741 594 782 q 776 616 735 700 q 817 410 817 532 q 765 195 817 293 q 622 39 714 97 q 417 -19 531 -19 q 294 -8 357 -19 l 300 -69 l 300 -260 l 436 -275 l 436 -347 l 32 -347 l 32 -275 l 129 -258 l 129 974 l 25 1003 l 25 1075 l 268 1103 l 300 1092 m 436 678 q 358 665 393 678 q 300 632 322 651 l 300 118 q 348 77 311 92 q 435 63 385 63 q 544 103 496 63 q 618 220 592 143 q 644 401 644 297 q 616 551 644 489 q 540 646 588 614 q 436 678 493 678 z "},"q":{"ha":864,"x_min":61,"x_max":843,"o":"m 479 782 q 566 773 522 782 q 636 750 610 764 l 724 776 l 753 761 l 753 -257 l 843 -272 l 843 -347 l 447 -347 l 447 -272 l 582 -258 l 582 -32 l 588 65 q 499 7 554 32 q 374 -18 443 -18 q 223 18 293 -18 q 107 142 153 54 q 61 372 61 229 q 115 581 61 488 q 265 728 169 675 q 479 782 360 782 m 463 697 q 294 617 353 697 q 235 383 235 536 q 286 169 235 247 q 432 92 338 92 q 520 106 482 92 q 582 143 558 121 l 582 650 q 463 697 546 697 z "},"r":{"ha":636,"x_min":74,"x_max":608,"o":"m 174 86 l 174 599 l 78 656 l 78 714 l 283 775 l 322 763 l 322 647 q 413 734 344 693 q 540 775 482 775 q 608 769 593 775 l 608 603 q 489 628 558 628 q 346 590 403 628 l 346 89 l 525 71 l 525 0 l 74 0 l 74 71 l 174 86 z "},"ŕ":{"ha":636,"x_min":74,"x_max":608,"o":"m 74 0 m 174 86 l 174 599 l 78 656 l 78 714 l 283 775 l 322 763 l 322 647 q 413 734 344 693 q 540 775 482 775 q 608 769 593 775 l 608 603 q 489 628 558 628 q 346 590 403 628 l 346 89 l 525 71 l 525 0 l 74 0 l 74 71 l 174 86 m 406 1225 l 532 1111 q 410 994 493 1050 q 246 907 328 939 l 201 953 l 406 1225 z "},"ř":{"ha":636,"x_min":74,"x_max":608,"o":"m 74 0 m 174 86 l 174 599 l 78 656 l 78 714 l 283 775 l 322 763 l 322 647 q 413 734 344 693 q 540 775 482 775 q 608 769 593 775 l 608 603 q 489 628 558 628 q 346 590 403 628 l 346 89 l 525 71 l 525 0 l 74 0 l 74 71 l 174 86 m 165 1203 l 353 1039 l 538 1204 l 607 1165 l 425 906 l 281 906 l 96 1165 l 165 1203 z "},"ŗ":{"ha":636,"x_min":74,"x_max":608,"o":"m 74 0 m 174 86 l 174 599 l 78 656 l 78 714 l 283 775 l 322 763 l 322 647 q 413 734 344 693 q 540 775 482 775 q 608 769 593 775 l 608 603 q 489 628 558 628 q 346 590 403 628 l 346 89 l 525 71 l 525 0 l 74 0 l 74 71 l 174 86 m 251 -26 q 363 -90 322 -39 q 404 -206 404 -140 q 377 -308 404 -260 q 310 -390 350 -357 q 233 -435 269 -424 l 179 -400 l 179 -382 q 229 -326 213 -362 q 246 -246 246 -289 q 221 -182 246 -210 q 171 -154 196 -154 l 171 -112 l 251 -26 z "},"s":{"ha":722,"x_min":96,"x_max":667,"o":"m 175 207 l 210 126 q 279 78 247 93 q 358 64 311 64 q 465 92 426 64 q 504 176 504 121 q 466 244 503 218 q 351 306 429 271 l 317 321 q 154 428 213 371 q 96 568 96 485 q 140 686 96 638 q 253 758 185 735 q 394 782 322 782 q 518 769 456 782 q 618 738 581 756 l 618 576 l 539 576 l 507 656 q 396 707 458 707 q 299 683 336 707 q 263 610 263 658 q 287 547 263 574 q 342 503 311 519 q 451 449 374 486 q 566 389 524 415 q 638 322 608 363 q 667 221 667 281 q 576 44 667 104 q 346 -17 486 -17 q 215 -1 282 -17 q 97 43 147 15 l 97 207 l 175 207 z "},"š":{"ha":708,"x_min":94,"x_max":664,"o":"m 178 1203 l 364 1039 l 550 1204 l 619 1165 l 436 906 l 292 906 l 108 1165 l 178 1203 m 175 207 l 207 126 q 278 78 246 93 q 357 64 310 64 q 464 92 425 64 q 503 176 503 121 q 465 244 501 218 q 350 306 428 271 l 315 321 q 153 428 211 371 q 94 568 94 485 q 139 687 94 639 q 252 758 183 735 q 393 782 321 782 q 516 769 454 782 q 617 738 578 756 l 617 576 l 536 576 l 504 656 q 394 707 458 707 q 298 682 335 707 q 261 607 261 657 q 285 544 261 571 q 343 500 310 518 q 450 449 376 482 q 565 388 522 414 q 635 322 607 363 q 664 221 664 281 q 574 44 664 104 q 344 -17 485 -17 q 213 -1 281 -17 q 96 43 146 15 l 96 207 l 175 207 z "},"ş":{"ha":722,"x_min":96,"x_max":667,"o":"m 665 219 q 585 50 665 110 q 375 -17 504 -10 l 374 -47 q 376 -87 374 -65 q 497 -128 454 -89 q 539 -217 539 -167 q 482 -324 539 -289 q 333 -360 425 -360 q 257 -352 289 -360 q 215 -343 225 -344 l 217 -262 q 253 -269 228 -267 q 294 -272 278 -272 q 352 -260 332 -272 q 372 -211 372 -247 q 351 -169 372 -185 q 289 -154 329 -154 q 267 -156 276 -154 q 254 -157 258 -157 q 261 -88 254 -129 q 279 -14 268 -47 q 97 43 171 0 l 97 207 l 175 207 l 210 126 q 279 78 247 93 q 358 64 311 64 q 465 92 426 64 q 504 176 504 121 q 466 244 503 218 q 351 306 429 271 l 317 321 q 154 428 213 371 q 96 568 96 485 q 140 686 96 638 q 253 758 185 735 q 394 782 322 782 q 518 769 456 782 q 618 738 581 756 l 618 576 l 539 576 l 507 656 q 396 707 458 707 q 299 683 336 707 q 263 610 263 658 q 287 547 263 574 q 342 503 311 519 q 451 449 374 486 q 566 389 524 415 q 638 322 608 363 q 667 221 667 281 l 665 219 z "},"ș":{"ha":722,"x_min":96,"x_max":667,"o":"m 96 0 m 175 207 l 210 126 q 279 78 247 93 q 358 64 311 64 q 465 92 426 64 q 504 176 504 121 q 466 244 503 218 q 351 306 429 271 l 317 321 q 154 428 213 371 q 96 568 96 485 q 140 686 96 638 q 253 758 185 735 q 394 782 322 782 q 518 769 456 782 q 618 738 581 756 l 618 576 l 539 576 l 507 656 q 396 707 458 707 q 299 683 336 707 q 263 610 263 658 q 287 547 263 574 q 342 503 311 519 q 451 449 374 486 q 566 389 524 415 q 638 322 608 363 q 667 221 667 281 q 576 44 667 104 q 346 -17 486 -17 q 215 -1 282 -17 q 97 43 147 15 l 97 207 l 175 207 m 333 -37 q 445 -101 404 -50 q 486 -217 486 -151 q 459 -319 486 -271 q 392 -401 432 -368 q 315 -446 351 -435 l 261 -411 l 261 -393 q 311 -337 294 -374 q 328 -257 328 -300 q 303 -193 328 -221 q 253 -165 278 -165 l 253 -124 l 333 -37 z "},"ß":{"ha":939,"x_min":40,"x_max":921,"o":"m 147 99 l 147 593 q 198 854 147 747 q 338 1015 249 961 q 540 1068 426 1068 q 703 1021 638 1068 q 769 872 769 974 q 747 774 769 814 q 683 690 725 735 q 632 624 649 651 q 615 561 615 597 q 647 490 615 517 q 744 433 678 464 q 835 384 800 407 q 896 323 871 361 q 921 228 921 285 q 840 47 921 107 q 628 -14 758 -14 q 457 4 506 -14 l 457 128 q 538 90 490 107 q 622 72 585 72 q 719 101 681 72 q 757 192 757 131 q 725 262 757 236 q 628 318 693 288 q 542 362 575 342 q 487 415 510 382 q 464 499 464 449 q 481 565 464 533 q 533 643 499 597 q 595 740 575 700 q 615 829 615 779 q 585 937 615 896 q 497 978 556 978 q 388 941 428 978 q 333 826 349 904 q 317 619 317 749 l 317 0 l 40 0 l 40 72 l 147 99 z "},"t":{"ha":600,"x_min":56,"x_max":563,"o":"m 321 758 l 549 758 l 549 660 l 325 660 l 325 350 q 330 193 325 243 q 351 119 335 143 q 404 94 367 94 q 476 104 433 94 q 535 125 518 114 l 563 58 q 459 3 528 24 q 328 -17 390 -17 q 199 35 239 -17 q 158 197 158 86 l 158 660 l 56 660 l 56 719 q 142 745 121 736 q 181 781 164 754 q 238 940 201 817 l 321 940 l 321 758 z "},"ť":{"ha":600,"x_min":56,"x_max":596,"o":"m 56 0 m 321 758 l 549 758 l 549 660 l 325 660 l 325 350 q 330 193 325 243 q 351 119 335 143 q 404 94 367 94 q 476 104 433 94 q 535 125 518 114 l 563 58 q 459 3 528 24 q 328 -17 390 -17 q 199 35 239 -17 q 158 197 158 86 l 158 660 l 56 660 l 56 719 q 142 745 121 736 q 181 781 164 754 q 238 940 201 817 l 321 940 l 321 758 m 426 921 q 444 1108 444 1006 q 433 1209 444 1161 q 410 1274 422 1257 l 419 1303 l 551 1336 q 583 1265 571 1315 q 596 1161 596 1214 q 570 999 596 1081 q 510 879 544 917 l 432 903 l 426 921 z "},"ț":{"ha":600,"x_min":56,"x_max":563,"o":"m 56 0 m 321 758 l 549 758 l 549 660 l 325 660 l 325 350 q 330 193 325 243 q 351 119 335 143 q 404 94 367 94 q 476 104 433 94 q 535 125 518 114 l 563 58 q 459 3 528 24 q 328 -17 390 -17 q 199 35 239 -17 q 158 197 158 86 l 158 660 l 56 660 l 56 719 q 142 745 121 736 q 181 781 164 754 q 238 940 201 817 l 321 940 l 321 758 m 293 -26 q 405 -90 364 -39 q 446 -206 446 -140 q 419 -308 446 -260 q 351 -390 392 -357 q 275 -435 311 -424 l 221 -400 l 221 -382 q 271 -326 254 -362 q 288 -246 288 -289 q 263 -182 288 -210 q 213 -154 238 -154 l 213 -112 l 293 -26 z "},"u":{"ha":886,"x_min":61,"x_max":835,"o":"m 61 665 l 61 729 l 267 775 l 294 763 l 294 294 q 322 140 294 186 q 425 93 349 93 q 517 113 469 93 q 588 153 565 132 l 588 628 l 503 658 l 503 728 l 729 775 l 754 764 l 754 71 l 835 71 l 835 10 q 767 -12 814 -3 q 685 -22 719 -22 q 626 -6 647 -22 q 604 42 604 10 l 604 88 q 490 13 556 40 q 365 -15 425 -15 q 215 22 265 -15 q 147 124 164 58 q 129 296 131 189 l 129 635 l 61 665 z "},"ú":{"ha":886,"x_min":61,"x_max":835,"o":"m 533 1225 l 660 1111 q 538 994 621 1050 q 374 907 456 939 l 329 953 l 533 1225 m 61 665 l 61 729 l 267 775 l 294 763 l 294 294 q 322 140 294 186 q 425 93 349 93 q 517 113 469 93 q 588 153 565 132 l 588 628 l 503 658 l 503 728 l 729 775 l 754 764 l 754 71 l 835 71 l 835 10 q 767 -12 814 -3 q 685 -22 719 -22 q 626 -6 647 -22 q 604 42 604 10 l 604 88 q 490 13 556 40 q 365 -15 425 -15 q 215 22 265 -15 q 147 124 164 58 q 129 296 131 189 l 129 635 l 61 665 z "},"û":{"ha":886,"x_min":61,"x_max":835,"o":"m 353 1204 l 499 1204 l 681 944 l 607 906 l 426 1072 l 235 906 l 169 943 l 353 1204 m 61 665 l 61 729 l 267 775 l 294 763 l 294 294 q 322 140 294 186 q 425 93 349 93 q 517 113 469 93 q 588 153 565 132 l 588 628 l 503 658 l 503 728 l 729 775 l 754 764 l 754 71 l 835 71 l 835 10 q 767 -12 814 -3 q 685 -22 719 -22 q 626 -6 647 -22 q 604 42 604 10 l 604 88 q 490 13 556 40 q 365 -15 425 -15 q 215 22 265 -15 q 147 124 164 58 q 129 296 131 189 l 129 635 l 61 665 z "},"ü":{"ha":886,"x_min":61,"x_max":835,"o":"m 61 0 m 61 665 l 61 729 l 267 775 l 294 763 l 294 294 q 322 140 294 186 q 425 93 349 93 q 517 113 469 93 q 588 153 565 132 l 588 628 l 503 658 l 503 728 l 729 775 l 754 764 l 754 71 l 835 71 l 835 10 q 767 -12 814 -3 q 685 -22 719 -22 q 626 -6 647 -22 q 604 42 604 10 l 604 88 q 490 13 556 40 q 365 -15 425 -15 q 215 22 265 -15 q 147 124 164 58 q 129 296 131 189 l 129 635 l 61 665 m 253 928 q 183 951 211 928 q 154 1014 154 975 q 190 1088 154 1058 q 269 1118 225 1118 q 343 1094 317 1118 q 369 1029 369 1071 q 333 956 369 983 q 253 928 297 928 m 582 928 q 513 951 540 928 q 485 1015 485 975 q 521 1088 485 1058 q 599 1118 557 1118 q 673 1094 647 1118 q 699 1031 699 1071 q 664 956 699 983 q 582 928 629 928 z "},"ù":{"ha":886,"x_min":61,"x_max":835,"o":"m 511 908 q 358 985 446 924 q 225 1111 269 1046 l 351 1225 l 556 953 l 511 908 m 61 665 l 61 729 l 267 775 l 294 763 l 294 294 q 322 140 294 186 q 425 93 349 93 q 517 113 469 93 q 588 153 565 132 l 588 628 l 503 658 l 503 728 l 729 775 l 754 764 l 754 71 l 835 71 l 835 10 q 767 -12 814 -3 q 685 -22 719 -22 q 626 -6 647 -22 q 604 42 604 10 l 604 88 q 490 13 556 40 q 365 -15 425 -15 q 215 22 265 -15 q 147 124 164 58 q 129 296 131 189 l 129 635 l 61 665 z "},"ű":{"ha":886,"x_min":61,"x_max":869,"o":"m 61 0 m 61 665 l 61 729 l 267 775 l 294 763 l 294 294 q 322 140 294 186 q 425 93 349 93 q 517 113 469 93 q 588 153 565 132 l 588 628 l 503 658 l 503 728 l 729 775 l 754 764 l 754 71 l 835 71 l 835 10 q 767 -12 814 -3 q 685 -22 719 -22 q 626 -6 647 -22 q 604 42 604 10 l 604 88 q 490 13 556 40 q 365 -15 425 -15 q 215 22 265 -15 q 147 124 164 58 q 129 296 131 189 l 129 635 l 61 665 m 407 1235 l 515 1142 q 390 1008 471 1082 q 254 904 308 935 l 196 953 l 407 1235 m 757 1235 l 869 1142 q 738 1005 819 1078 q 604 904 657 932 l 547 953 l 757 1235 z "},"ū":{"ha":886,"x_min":61,"x_max":835,"o":"m 61 0 m 61 665 l 61 729 l 267 775 l 294 763 l 294 294 q 322 140 294 186 q 425 93 349 93 q 517 113 469 93 q 588 153 565 132 l 588 628 l 503 658 l 503 728 l 729 775 l 754 764 l 754 71 l 835 71 l 835 10 q 767 -12 814 -3 q 685 -22 719 -22 q 626 -6 647 -22 q 604 42 604 10 l 604 88 q 490 13 556 40 q 365 -15 425 -15 q 215 22 265 -15 q 147 124 164 58 q 129 296 131 189 l 129 635 l 61 665 m 625 1078 l 625 954 l 257 954 l 257 1078 l 625 1078 z "},"ų":{"ha":886,"x_min":63,"x_max":836,"o":"m 733 -18 q 628 -96 674 -50 q 582 -181 582 -142 q 600 -230 582 -217 q 656 -246 618 -243 q 717 -237 686 -247 q 772 -216 747 -226 q 807 -201 797 -206 l 825 -272 q 718 -331 776 -308 q 579 -354 660 -354 q 465 -319 504 -354 q 426 -231 426 -285 q 488 -108 426 -172 q 628 -7 549 -44 q 606 42 606 8 l 606 88 q 492 13 557 40 q 367 -15 426 -15 q 216 22 267 -15 q 149 124 165 58 q 131 296 132 189 l 131 635 l 63 665 l 63 729 l 268 775 l 296 763 l 296 294 q 323 140 296 186 q 426 93 350 93 q 519 113 471 93 q 589 153 567 132 l 589 628 l 504 658 l 504 728 l 731 775 l 756 764 l 756 71 l 836 71 l 836 10 q 733 -18 803 -8 z "},"ů":{"ha":886,"x_min":61,"x_max":835,"o":"m 61 0 m 61 665 l 61 729 l 267 775 l 294 763 l 294 294 q 322 140 294 186 q 425 93 349 93 q 517 113 469 93 q 588 153 565 132 l 588 628 l 503 658 l 503 728 l 729 775 l 754 764 l 754 71 l 835 71 l 835 10 q 767 -12 814 -3 q 685 -22 719 -22 q 626 -6 647 -22 q 604 42 604 10 l 604 88 q 490 13 556 40 q 365 -15 425 -15 q 215 22 265 -15 q 147 124 164 58 q 129 296 131 189 l 129 635 l 61 665 m 438 1231 q 528 1207 486 1231 q 595 1144 571 1183 q 619 1058 619 1104 q 594 972 619 1011 q 528 910 569 932 q 438 888 486 888 q 348 910 389 888 q 282 972 307 933 q 257 1058 257 1011 q 282 1145 257 1106 q 348 1208 307 1185 q 438 1231 389 1231 m 439 1147 q 374 1121 400 1147 q 349 1057 349 1094 q 374 994 349 1019 q 439 968 400 968 q 502 994 476 968 q 528 1057 528 1019 q 501 1120 528 1093 q 439 1147 475 1147 z "},"v":{"ha":829,"x_min":1,"x_max":826,"o":"m 1 669 l 1 758 l 333 758 l 333 669 l 258 653 l 393 308 l 447 138 l 497 304 l 615 654 l 529 669 l 529 758 l 826 758 l 826 669 l 751 651 l 485 -11 l 356 -11 l 68 656 l 1 669 z "},"w":{"ha":1183,"x_min":1,"x_max":1182,"o":"m 1 669 l 1 758 l 329 758 l 329 669 l 246 653 l 354 278 l 388 144 l 413 271 l 539 758 l 686 758 l 814 272 l 846 142 l 969 653 l 885 669 l 885 758 l 1182 758 l 1182 669 l 1093 651 l 901 -11 l 743 -11 l 613 443 l 588 560 l 563 443 l 442 -11 l 292 -11 l 74 654 l 1 669 z "},"x":{"ha":824,"x_min":3,"x_max":822,"o":"m 107 88 l 328 367 l 94 656 l 4 669 l 4 758 l 375 758 l 375 669 l 293 656 l 386 517 l 436 446 l 460 486 l 579 657 l 486 669 l 486 758 l 818 758 l 818 669 l 706 653 l 494 390 l 735 86 l 822 71 l 822 0 l 457 0 l 457 71 l 536 88 l 443 218 l 383 299 l 361 257 l 244 89 l 358 71 l 358 0 l 3 0 l 3 71 l 107 88 z "},"y":{"ha":800,"x_min":1,"x_max":807,"o":"m 100 -210 q 171 -218 133 -219 q 285 -167 232 -218 q 371 1 338 -115 l 338 1 l 68 654 l 1 669 l 1 758 l 346 758 l 346 669 l 256 654 l 404 232 l 438 121 l 471 233 l 597 656 l 496 669 l 496 758 l 807 758 l 807 669 l 736 657 q 586 239 661 439 q 483 -31 511 39 q 386 -225 433 -156 q 276 -321 339 -294 q 174 -356 233 -356 q 130 -353 153 -356 q 100 -346 107 -350 l 100 -210 z "},"ý":{"ha":800,"x_min":1,"x_max":807,"o":"m 1 0 m 100 -210 q 171 -218 133 -219 q 285 -167 232 -218 q 371 1 338 -115 l 338 1 l 68 654 l 1 669 l 1 758 l 346 758 l 346 669 l 256 654 l 404 232 l 438 121 l 471 233 l 597 656 l 496 669 l 496 758 l 807 758 l 807 669 l 736 657 q 586 239 661 439 q 483 -31 511 39 q 386 -225 433 -156 q 276 -321 339 -294 q 174 -356 233 -356 q 130 -353 153 -356 q 100 -346 107 -350 l 100 -210 m 535 1225 l 661 1111 q 540 994 622 1050 q 375 907 457 939 l 331 953 l 535 1225 z "},"ÿ":{"ha":800,"x_min":1,"x_max":807,"o":"m 1 0 m 100 -210 q 171 -218 133 -219 q 285 -167 232 -218 q 371 1 338 -115 l 338 1 l 68 654 l 1 669 l 1 758 l 346 758 l 346 669 l 256 654 l 404 232 l 438 121 l 471 233 l 597 656 l 496 669 l 496 758 l 807 758 l 807 669 l 736 657 q 586 239 661 439 q 483 -31 511 39 q 386 -225 433 -156 q 276 -321 339 -294 q 174 -356 233 -356 q 130 -353 153 -356 q 100 -346 107 -350 l 100 -210 m 254 928 q 184 951 213 928 q 156 1014 156 975 q 191 1088 156 1058 q 271 1118 226 1118 q 344 1094 318 1118 q 371 1029 371 1071 q 335 956 371 983 q 254 928 299 928 m 583 928 q 514 951 542 928 q 486 1015 486 975 q 522 1088 486 1058 q 600 1118 558 1118 q 674 1094 649 1118 q 700 1031 700 1071 q 665 956 700 983 q 583 928 631 928 z "},"z":{"ha":749,"x_min":51,"x_max":714,"o":"m 708 693 l 339 174 l 265 81 l 582 99 l 625 213 l 714 213 l 704 0 l 78 0 l 51 60 l 110 146 l 449 617 l 506 681 l 211 669 l 168 540 l 83 540 l 83 758 l 685 758 l 708 693 z "},"ź":{"ha":749,"x_min":51,"x_max":714,"o":"m 51 0 m 708 693 l 339 174 l 265 81 l 582 99 l 625 213 l 714 213 l 704 0 l 78 0 l 51 60 l 110 146 l 449 617 l 506 681 l 211 669 l 168 540 l 83 540 l 83 758 l 685 758 l 708 693 m 460 1225 l 586 1111 q 465 994 547 1050 q 300 907 382 939 l 256 953 l 460 1225 z "},"ž":{"ha":749,"x_min":51,"x_max":714,"o":"m 51 0 m 708 693 l 339 174 l 265 81 l 582 99 l 625 213 l 714 213 l 704 0 l 78 0 l 51 60 l 110 146 l 449 617 l 506 681 l 211 669 l 168 540 l 83 540 l 83 758 l 685 758 l 708 693 m 203 1203 l 390 1039 l 575 1204 l 644 1165 l 463 906 l 318 906 l 133 1165 l 203 1203 z "},"ż":{"ha":749,"x_min":51,"x_max":714,"o":"m 51 0 m 708 693 l 339 174 l 265 81 l 582 99 l 625 213 l 714 213 l 704 0 l 78 0 l 51 60 l 110 146 l 449 617 l 506 681 l 211 669 l 168 540 l 83 540 l 83 758 l 685 758 l 708 693 m 388 1106 q 462 1081 435 1106 q 489 1017 489 1057 q 453 942 489 971 q 371 913 417 913 q 301 937 331 913 q 272 1001 272 961 q 308 1076 272 1046 q 388 1106 344 1106 z "},"ﬁ":{"ha":1072,"x_min":51,"x_max":1040,"o":"m 490 1157 q 562 1152 531 1157 q 606 1140 593 1147 l 606 1003 q 548 1022 588 1013 q 471 1031 508 1031 q 408 1019 431 1031 q 374 974 385 1007 q 363 878 363 942 l 363 758 l 567 758 l 567 650 l 363 650 l 363 86 l 521 71 l 521 0 l 65 0 l 65 71 l 192 88 l 192 650 l 51 650 l 51 710 l 192 754 l 192 815 q 237 987 192 908 q 351 1111 282 1065 q 490 1157 421 1157 m 846 1138 q 924 1110 897 1138 q 951 1038 951 1083 q 913 953 951 986 q 825 919 875 919 q 752 947 783 919 q 721 1019 721 975 q 760 1103 721 1068 q 846 1138 799 1138 m 935 761 l 935 86 l 1040 71 l 1040 0 l 661 0 l 661 71 l 768 86 l 768 593 l 678 660 l 678 710 l 894 775 l 935 761 z "},"ﬂ":{"ha":1076,"x_min":51,"x_max":1051,"o":"m 192 88 l 192 650 l 51 650 l 51 710 l 192 754 l 192 815 q 237 987 192 908 q 351 1111 282 1065 q 490 1157 421 1157 q 562 1152 531 1157 q 606 1140 593 1147 l 606 1003 q 548 1022 588 1013 q 471 1031 508 1031 q 408 1019 431 1031 q 374 974 385 1007 q 363 878 363 942 l 363 758 l 567 758 l 567 650 l 363 650 l 363 86 l 521 71 l 521 0 l 65 0 l 65 71 l 192 88 m 760 86 l 760 971 l 658 1000 l 658 1074 l 900 1103 l 932 1089 l 932 88 l 1051 71 l 1051 0 l 657 0 l 657 71 l 760 86 z "},"ª":{"ha":703,"x_min":75,"x_max":646,"o":"m 353 1081 q 530 1039 471 1081 q 589 879 589 997 l 588 582 l 646 582 l 646 522 q 577 504 618 513 q 511 496 536 496 q 460 510 475 496 q 443 563 446 525 q 365 517 414 536 q 246 499 317 499 q 166 518 206 499 q 101 575 126 538 q 75 664 75 613 q 178 815 75 771 q 438 860 282 860 l 438 874 q 404 964 438 943 q 301 985 371 985 q 209 974 254 985 q 139 944 164 963 l 110 1019 q 214 1063 140 1044 q 353 1081 288 1081 m 435 790 q 228 685 228 785 q 253 615 228 640 q 315 590 278 590 q 379 599 344 590 q 435 624 414 608 l 435 790 z "},"º":{"ha":718,"x_min":69,"x_max":650,"o":"m 369 1081 q 575 1002 500 1081 q 650 788 650 924 q 607 627 650 693 q 495 529 564 561 q 351 497 426 497 q 147 573 225 497 q 69 785 69 649 q 112 949 69 882 q 223 1048 154 1015 q 369 1081 292 1081 m 363 1004 q 266 949 299 1003 q 233 796 233 896 q 268 638 233 701 q 356 575 303 575 q 457 620 426 575 q 488 778 488 665 q 454 940 488 875 q 363 1004 421 1004 z "},"Ω":{"ha":1365,"x_min":100,"x_max":1264,"o":"m 185 292 l 210 151 l 442 151 q 320 253 379 188 q 224 401 261 318 q 188 571 188 485 q 255 838 188 728 q 435 1002 322 947 q 683 1057 549 1057 q 926 1006 819 1057 q 1092 854 1032 954 q 1151 614 1151 754 q 1115 447 1151 535 q 1022 281 1079 360 q 901 151 964 203 l 1131 151 l 1186 308 l 1264 303 l 1229 0 l 765 0 l 765 132 q 910 326 854 190 q 965 613 965 463 q 927 817 965 733 q 824 942 889 900 q 675 983 758 983 q 451 883 531 983 q 372 590 372 782 q 405 405 372 496 q 488 243 438 314 q 593 132 539 172 l 593 0 l 100 0 l 100 288 l 185 292 z "},"μ":{"ha":928,"x_min":96,"x_max":869,"o":"m 164 -249 l 164 635 l 96 665 l 96 729 l 300 775 l 329 763 l 329 294 q 356 140 329 186 q 460 93 383 93 q 552 113 504 93 q 621 153 600 132 l 621 628 l 536 658 l 536 728 l 764 775 l 789 764 l 789 71 l 869 71 l 869 10 q 801 -12 849 -3 q 718 -22 753 -22 q 660 -6 681 -22 q 639 42 639 10 l 639 88 q 525 12 590 39 q 400 -15 460 -15 q 329 -8 354 -15 l 329 -249 l 164 -249 z "},"π":{"ha":1090,"x_min":82,"x_max":997,"o":"m 997 832 q 933 669 990 732 q 783 603 875 607 l 765 201 q 774 140 764 161 q 800 119 783 119 q 862 142 832 119 q 903 200 892 165 l 994 200 q 949 101 982 151 q 867 19 915 51 q 767 -14 819 -14 q 669 30 697 -14 q 640 149 640 74 q 642 183 640 171 q 665 485 661 432 q 675 603 669 526 l 436 603 l 426 292 q 401 130 419 181 q 335 35 383 79 q 235 -17 300 3 l 111 79 q 157 94 121 79 q 214 125 193 110 q 289 208 269 161 q 313 332 308 254 q 324 519 321 472 q 329 603 326 547 l 279 603 q 208 584 240 603 q 164 535 175 565 l 83 547 q 82 563 82 551 q 93 614 82 590 q 176 719 119 681 q 303 758 232 758 l 782 758 q 863 775 829 758 q 917 832 897 792 l 997 832 z "},"ऄ":{"ha":1192,"x_min":17,"x_max":1192,"o":"m 1192 789 l 1050 789 l 1050 -58 l 1025 -58 l 904 11 l 904 304 l 903 304 q 831 290 871 290 q 747 306 786 290 q 664 358 708 322 l 658 357 q 685 240 685 306 q 622 76 685 138 q 456 14 558 14 q 205 117 310 14 q 17 364 100 219 l 64 399 q 221 220 133 292 q 396 149 308 149 q 513 192 467 149 q 558 294 558 235 q 504 432 558 376 q 313 392 425 407 l 254 497 l 269 532 q 469 574 413 542 q 539 694 539 614 q 502 771 539 738 q 413 804 465 804 q 305 778 356 804 q 200 701 254 751 l 129 838 q 247 901 178 874 q 364 929 317 929 q 487 883 421 929 q 597 768 553 836 q 642 636 642 700 q 571 469 642 542 q 667 432 614 447 q 764 417 719 417 q 904 460 843 417 l 904 789 l 711 789 l 658 888 l 658 913 l 929 913 q 936 950 936 931 q 900 1046 936 1006 q 783 1086 864 1086 q 663 1076 743 1086 q 515 1065 560 1065 q 358 1092 436 1065 q 231 1158 281 1118 q 182 1240 182 1199 q 214 1378 182 1299 l 288 1368 q 263 1269 263 1307 q 292 1219 263 1238 q 379 1201 322 1201 q 483 1207 411 1201 q 582 1214 554 1213 q 756 1225 726 1225 q 863 1198 813 1225 q 950 1126 913 1171 q 997 1051 979 1090 q 1015 978 1015 1013 q 1007 913 1015 951 l 1138 913 l 1192 813 l 1192 789 z "},"ॲ":{"ha":1192,"x_min":17,"x_max":1308,"o":"m 17 0 m 1190 789 l 1050 789 l 1050 -58 l 1025 -58 l 904 11 l 904 304 l 903 304 q 831 290 871 290 q 747 306 786 290 q 664 358 708 322 l 658 357 q 685 240 685 306 q 622 76 685 138 q 456 14 558 14 q 205 117 310 14 q 17 364 100 219 l 64 399 q 221 220 133 292 q 396 149 308 149 q 513 192 467 149 q 558 294 558 235 q 504 432 558 376 q 313 392 425 407 l 254 497 l 269 532 q 469 574 413 542 q 539 694 539 614 q 502 771 539 738 q 413 804 465 804 q 305 778 356 804 q 200 701 254 751 l 129 838 q 247 901 178 874 q 364 929 317 929 q 487 883 421 929 q 597 768 553 836 q 642 636 642 700 q 571 469 642 542 q 667 432 614 447 q 764 417 719 417 q 904 460 843 417 l 904 789 l 711 789 l 658 888 l 658 913 l 1138 913 l 1190 813 l 1190 789 m 1308 1192 q 1184 1078 1251 1118 q 1018 1038 1117 1038 q 828 1108 913 1038 q 690 1274 743 1179 l 736 1294 q 957 1146 838 1146 q 1101 1190 1039 1146 q 1201 1292 1164 1233 l 1308 1192 z "},"अ":{"ha":1192,"x_min":17,"x_max":1190,"o":"m 1190 789 l 1050 789 l 1050 -58 l 1025 -58 l 904 11 l 904 304 l 903 304 q 831 290 871 290 q 747 306 786 290 q 664 358 708 322 l 658 357 q 685 240 685 306 q 622 76 685 138 q 456 14 558 14 q 205 117 310 14 q 17 364 100 219 l 64 399 q 221 220 133 292 q 396 149 308 149 q 513 192 467 149 q 558 294 558 235 q 504 432 558 376 q 313 392 425 407 l 254 497 l 269 532 q 469 574 413 542 q 539 694 539 614 q 502 771 539 738 q 413 804 465 804 q 305 778 356 804 q 200 701 254 751 l 129 838 q 247 901 178 874 q 364 929 317 929 q 487 883 421 929 q 597 768 553 836 q 642 636 642 700 q 571 469 642 542 q 667 432 614 447 q 764 417 719 417 q 904 460 843 417 l 904 789 l 711 789 l 658 888 l 658 913 l 1138 913 l 1190 813 l 1190 789 z "},"आ":{"ha":1621,"x_min":17,"x_max":1621,"o":"m 1621 789 l 1478 789 l 1478 -58 l 1453 -58 l 1331 11 l 1331 789 l 1050 789 l 1050 -58 l 1025 -58 l 904 11 l 904 304 l 903 304 q 831 290 871 290 q 747 306 786 290 q 664 358 708 322 l 658 357 q 685 240 685 306 q 622 76 685 138 q 456 14 558 14 q 205 117 310 14 q 17 364 100 219 l 64 399 q 221 220 133 292 q 396 149 308 149 q 513 192 467 149 q 558 294 558 235 q 504 432 558 376 q 313 392 425 407 l 254 497 l 269 532 q 469 574 413 542 q 539 694 539 614 q 502 771 539 738 q 413 804 465 804 q 305 778 356 804 q 200 701 254 751 l 129 838 q 247 901 178 874 q 364 929 317 929 q 487 883 421 929 q 597 768 553 836 q 642 636 642 700 q 571 469 642 542 q 667 432 614 447 q 764 417 719 417 q 904 460 843 417 l 904 789 l 711 789 l 658 888 l 658 913 l 1567 913 l 1621 813 l 1621 789 z "},"इ":{"ha":729,"x_min":-56,"x_max":728,"o":"m 289 556 q 221 528 240 556 q 201 467 201 501 q 215 420 201 442 q 246 399 229 399 q 390 428 294 399 q 475 446 454 446 q 549 409 513 446 q 607 315 585 372 q 629 204 629 258 q 588 90 629 143 q 478 5 546 38 q 339 -29 411 -28 l 385 -69 l 432 -235 l 343 -150 l 297 -28 q 147 17 211 -21 q 82 107 82 54 q 98 159 82 136 q 138 195 114 182 q 181 208 161 208 q 206 206 192 208 l 275 96 q 414 116 347 97 q 523 167 481 135 q 565 240 565 199 q 556 289 565 264 q 535 321 547 314 q 443 300 511 321 q 322 275 357 275 q 240 312 290 275 q 151 402 189 349 q 114 504 114 456 q 151 639 114 593 q 253 685 189 685 l 431 685 l 431 789 l -4 789 l -56 888 l -56 913 l 674 913 l 728 813 l 728 789 l 578 789 l 578 556 l 289 556 z "},"ई":{"ha":729,"x_min":-56,"x_max":751,"o":"m 672 914 l 726 814 l 726 790 l 576 790 l 576 557 l 289 557 q 221 530 240 557 q 201 468 201 503 q 215 422 201 443 q 246 400 229 400 q 390 429 294 400 q 475 447 454 447 q 549 410 513 447 q 607 317 585 374 q 629 206 629 260 q 588 92 629 144 q 478 6 546 39 q 339 -28 411 -26 l 385 -68 l 432 -233 l 343 -149 l 297 -26 q 147 18 211 -19 q 82 108 82 56 q 98 160 82 138 q 138 197 114 183 q 181 210 161 210 q 206 207 192 210 l 275 97 q 414 117 347 99 q 523 168 481 136 q 565 242 565 200 q 556 290 565 265 q 535 322 547 315 q 443 301 511 322 q 322 276 357 276 q 240 313 290 276 q 151 403 189 350 q 114 506 114 457 q 151 640 114 594 q 253 686 189 686 l 431 686 l 431 790 l -4 790 l -56 889 l -56 914 l 436 914 q 316 1042 363 971 q 269 1179 269 1113 q 303 1285 269 1240 q 389 1355 336 1331 q 500 1379 442 1379 q 633 1343 568 1379 q 751 1244 699 1307 l 714 1188 q 634 1231 685 1210 q 540 1253 583 1253 q 459 1221 492 1253 q 426 1129 426 1189 q 456 1016 426 1074 q 528 913 486 958 l 672 914 z "},"उ":{"ha":846,"x_min":-56,"x_max":846,"o":"m 846 790 l 581 790 q 651 686 622 738 q 679 599 679 635 q 608 449 679 510 q 728 328 686 385 q 769 204 769 271 q 741 95 769 149 q 661 8 713 42 q 544 -26 610 -26 q 254 93 385 -26 q 39 356 124 213 l 88 394 q 269 194 160 281 q 482 108 379 108 q 567 129 531 108 q 624 183 604 150 q 644 251 644 217 q 542 408 644 331 q 431 386 489 386 q 319 404 369 386 l 264 526 l 276 551 q 321 545 286 550 q 385 540 356 540 q 520 572 472 540 q 568 657 568 603 q 542 724 568 689 q 481 789 517 760 l -4 789 l -56 888 l -56 913 l 793 913 l 846 813 l 846 790 z "},"ऊ":{"ha":1210,"x_min":-56,"x_max":1211,"o":"m 1211 789 l 582 789 q 652 685 624 736 q 681 597 681 633 q 610 447 681 508 q 664 400 642 422 q 810 503 743 464 q 938 543 878 543 q 1030 509 982 543 q 1109 417 1078 475 q 1140 294 1140 360 q 1121 165 1140 240 q 1071 25 1101 89 l 911 96 q 1008 225 964 156 q 1053 344 1053 294 q 1028 404 1053 383 q 964 425 1004 425 q 862 388 914 425 q 751 285 810 350 q 769 204 769 244 q 741 95 769 149 q 661 8 713 42 q 544 -26 610 -26 q 254 93 385 -26 q 39 356 124 213 l 88 394 q 269 194 160 281 q 482 108 379 108 q 567 129 531 108 q 624 183 604 150 q 644 251 644 217 q 542 408 644 331 q 431 386 489 386 q 319 404 369 386 l 264 526 l 276 551 q 321 545 286 550 q 385 540 356 540 q 520 572 472 540 q 568 657 568 603 q 542 724 568 689 q 481 789 517 760 l -4 789 l -56 888 l -56 913 l 1156 913 l 1210 813 l 1211 789 z "},"ऋ":{"ha":1228,"x_min":-56,"x_max":1232,"o":"m 1228 813 l 1228 789 l 703 789 l 703 474 q 867 522 794 474 l 826 628 q 863 649 839 639 q 910 660 888 660 q 993 631 960 660 q 1026 556 1026 601 q 992 474 1026 511 l 1094 221 q 975 153 1014 185 q 936 83 936 121 q 959 42 936 60 q 1025 24 982 24 q 1095 35 1057 24 q 1161 65 1133 47 l 1232 -53 q 1160 -82 1201 -69 q 1089 -94 1119 -94 q 981 -61 1039 -94 q 883 23 922 -28 q 843 122 843 74 q 875 213 844 168 q 963 294 906 257 l 915 414 q 726 364 822 364 l 703 365 l 703 -58 l 676 -58 l 554 13 l 557 292 l 557 297 l 211 49 l 118 153 l 554 435 q 435 501 492 482 q 322 521 379 521 q 231 508 276 521 q 125 472 185 494 l 47 610 q 149 640 82 622 q 258 657 215 657 q 556 507 371 657 l 556 789 l -4 789 l -56 888 l -56 913 l 1174 913 l 1228 813 z "},"ॠ":{"ha":1228,"x_min":-56,"x_max":1332,"o":"m 1228 813 l 1228 789 l 703 789 l 703 474 q 868 522 797 476 l 826 628 q 863 649 839 639 q 910 660 888 660 q 993 631 960 660 q 1026 556 1026 601 q 992 474 1026 511 l 1094 221 q 975 153 1014 185 q 936 83 936 121 q 1017 29 936 29 q 1087 42 1049 29 q 1151 72 1125 54 l 1224 -47 q 1152 -76 1193 -64 q 1078 -89 1111 -87 q 1036 -167 1036 -118 q 1059 -210 1036 -192 q 1125 -229 1082 -229 q 1195 -217 1157 -229 q 1261 -185 1233 -204 l 1332 -306 q 1260 -334 1301 -322 q 1189 -346 1219 -346 q 1082 -314 1139 -346 q 986 -232 1025 -282 q 947 -132 947 -182 q 965 -51 947 -86 q 878 28 913 -19 q 843 122 843 75 q 875 213 844 168 q 963 294 906 257 l 915 414 q 827 378 875 392 q 732 365 779 365 q 703 367 713 365 l 703 -58 l 676 -58 l 554 13 l 557 289 l 557 297 l 211 49 l 118 153 l 554 435 q 435 501 492 482 q 322 521 379 521 q 231 508 276 521 q 125 472 185 494 l 47 610 q 149 640 82 622 q 258 657 215 657 q 556 507 371 657 l 556 789 l -4 789 l -56 888 l -56 913 l 1174 913 l 1228 813 z "},"ऌ":{"ha":1088,"x_min":-56,"x_max":1126,"o":"m 1088 813 l 1088 789 l 813 789 l 813 599 q 952 506 890 568 q 1014 374 1014 443 q 978 263 1014 314 q 876 144 943 211 q 801 61 826 94 q 776 -4 776 28 q 798 -53 776 -33 q 853 -72 819 -72 q 1031 63 931 -72 l 1126 -31 q 1006 -121 1057 -93 q 892 -147 954 -149 q 786 -119 844 -147 q 688 -44 728 -90 q 647 50 647 1 q 672 117 647 85 q 750 200 697 150 q 852 312 817 263 q 889 424 888 361 q 871 476 889 454 q 827 510 853 499 q 782 522 801 522 q 637 426 693 522 q 557 215 581 331 l 422 278 q 485 443 440 365 q 407 492 450 474 q 332 510 364 510 q 233 466 274 510 q 192 353 192 422 q 228 169 192 251 q 331 -8 264 88 l 282 -40 q 126 174 196 53 q 57 411 57 294 q 85 526 57 475 q 161 607 113 578 q 269 636 210 636 q 521 497 393 636 q 665 603 585 582 l 665 789 l -4 789 l -56 888 l -56 913 l 1035 913 l 1088 813 z "},"ॡ":{"ha":1088,"x_min":-56,"x_max":1304,"o":"m 1088 813 l 1088 789 l 813 789 l 813 599 q 952 506 890 568 q 1014 374 1014 443 q 978 263 1014 314 q 876 144 943 211 q 801 61 826 94 q 776 -4 776 28 q 798 -53 776 -33 q 853 -72 819 -72 q 1031 63 931 -72 l 1126 -31 q 1051 -94 1085 -69 q 982 -131 1018 -118 q 946 -199 946 -169 q 967 -251 946 -232 q 1029 -271 989 -271 q 1208 -132 1107 -271 l 1304 -228 q 1183 -319 1233 -290 q 1072 -347 1133 -347 q 972 -327 1026 -347 q 881 -271 918 -307 q 843 -190 843 -235 q 854 -144 843 -169 q 760 -105 808 -135 q 679 -34 711 -75 q 647 50 647 7 q 672 117 647 85 q 750 200 697 150 q 852 312 817 263 q 889 424 888 361 q 871 476 889 454 q 827 510 853 499 q 782 522 801 522 q 637 426 693 522 q 557 215 581 331 l 422 278 q 485 443 440 365 q 407 492 450 474 q 332 510 364 510 q 233 466 274 510 q 192 353 192 422 q 228 169 192 251 q 331 -8 264 88 l 282 -40 q 126 174 196 53 q 57 411 57 294 q 85 526 57 475 q 161 607 113 578 q 269 636 210 636 q 521 497 393 636 q 667 604 583 581 l 665 789 l -4 789 l -56 888 l -56 913 l 1035 913 l 1088 813 z "},"ऍ":{"ha":844,"x_min":-56,"x_max":903,"o":"m 0 0 m 735 -7 q 869 -110 835 -72 q 903 -189 903 -149 q 872 -265 903 -236 q 789 -293 840 -293 q 667 -224 713 -293 l 667 -221 l 756 -122 l 283 194 q 172 275 207 246 q 126 328 138 304 q 114 389 114 353 l 114 789 l -4 789 l -56 888 l -56 913 l 790 913 l 844 813 l 844 789 l 697 789 l 697 478 q 655 328 697 381 q 553 254 613 276 l 439 331 l 439 347 q 523 390 496 369 q 550 450 550 411 l 550 789 l 261 789 l 261 371 q 273 316 261 336 q 321 271 285 296 l 735 -7 m 704 1192 q 580 1078 647 1118 q 414 1038 513 1038 q 224 1108 308 1038 q 86 1274 139 1179 l 132 1294 q 353 1146 233 1146 q 497 1190 435 1146 q 597 1292 560 1233 l 704 1192 z "},"ऎ":{"ha":844,"x_min":-161,"x_max":904,"o":"m -56 1368 q -79 1269 -79 1303 q -50 1219 -79 1238 q 36 1201 -21 1201 q 143 1207 69 1201 q 242 1214 217 1213 q 413 1225 386 1225 q 519 1198 469 1225 q 606 1126 569 1171 q 655 1052 636 1092 q 674 978 674 1013 q 664 913 674 954 l 790 913 l 844 813 l 844 789 l 697 789 l 697 478 q 655 328 697 381 q 554 254 613 276 l 439 331 l 439 347 q 524 390 496 369 q 551 450 551 411 l 551 789 l 263 789 l 263 371 q 274 316 263 336 q 322 271 286 296 l 735 -7 q 869 -110 835 -72 q 904 -189 904 -149 q 873 -265 904 -236 q 790 -293 842 -293 q 667 -224 717 -293 l 667 -221 l 756 -122 l 285 194 q 174 275 208 246 q 127 328 139 304 q 115 389 115 353 l 115 789 l -3 789 l -56 888 l -56 913 l 585 913 q 593 950 593 929 q 557 1047 593 1007 q 439 1086 521 1086 q 321 1076 401 1086 q 172 1065 221 1065 q 15 1092 93 1065 q -112 1158 -62 1118 q -161 1240 -161 1199 q -146 1331 -161 1289 q -129 1378 -131 1374 l -56 1368 z "},"ए":{"ha":844,"x_min":-56,"x_max":903,"o":"m 735 -7 q 869 -110 835 -72 q 903 -189 903 -149 q 872 -265 903 -236 q 789 -293 840 -293 q 667 -224 713 -293 l 667 -221 l 756 -122 l 283 194 q 172 275 207 246 q 126 328 138 304 q 114 389 114 353 l 114 789 l -4 789 l -56 888 l -56 913 l 790 913 l 844 813 l 844 789 l 697 789 l 697 478 q 655 328 697 381 q 553 254 613 276 l 439 331 l 439 347 q 523 390 496 369 q 550 450 550 411 l 550 789 l 261 789 l 261 371 q 273 316 261 336 q 321 271 285 296 l 735 -7 z "},"ऐ":{"ha":844,"x_min":-56,"x_max":903,"o":"m 0 0 m 735 -7 q 869 -110 835 -72 q 903 -189 903 -149 q 872 -265 903 -236 q 789 -293 840 -293 q 667 -224 713 -293 l 667 -221 l 756 -122 l 283 194 q 172 275 207 246 q 126 328 138 304 q 114 389 114 353 l 114 789 l -4 789 l -56 888 l -56 913 l 790 913 l 844 813 l 844 789 l 697 789 l 697 478 q 655 328 697 381 q 553 254 613 276 l 439 331 l 439 347 q 523 390 496 369 q 550 450 550 411 l 550 789 l 261 789 l 261 371 q 273 316 261 336 q 321 271 285 296 l 735 -7 m 240 1400 q 407 1324 335 1400 q 556 1100 479 1247 q 665 881 619 978 l 589 881 q 545 963 574 913 q 506 1028 517 1014 q 358 1235 399 1207 l 185 1181 q 146 1231 161 1200 q 131 1296 131 1261 q 162 1372 131 1344 q 240 1400 193 1400 z "},"ऑ":{"ha":1621,"x_min":17,"x_max":1722,"o":"m 17 0 m 1621 789 l 1478 789 l 1478 -58 l 1453 -58 l 1331 11 l 1331 789 l 1050 789 l 1050 -58 l 1025 -58 l 904 11 l 904 304 l 903 304 q 831 290 871 290 q 747 306 786 290 q 664 358 708 322 l 658 357 q 685 240 685 306 q 622 76 685 138 q 456 14 558 14 q 205 117 310 14 q 17 364 100 219 l 64 399 q 221 220 133 292 q 396 149 308 149 q 513 192 467 149 q 558 294 558 235 q 504 432 558 376 q 313 392 425 407 l 254 497 l 269 532 q 469 574 413 542 q 539 694 539 614 q 502 771 539 738 q 413 804 465 804 q 305 778 356 804 q 200 701 254 751 l 129 838 q 247 901 178 874 q 364 929 317 929 q 487 883 421 929 q 597 768 553 836 q 642 636 642 700 q 571 469 642 542 q 667 432 614 447 q 764 417 719 417 q 904 460 843 417 l 904 789 l 711 789 l 658 888 l 658 913 l 1567 913 l 1621 813 l 1621 789 m 1722 1192 q 1598 1078 1665 1118 q 1432 1038 1531 1038 q 1242 1108 1326 1038 q 1104 1274 1157 1179 l 1150 1294 q 1371 1146 1251 1146 q 1515 1190 1453 1146 q 1615 1292 1578 1233 l 1722 1192 z "},"ऒ":{"ha":1621,"x_min":17,"x_max":1621,"o":"m 719 1368 q 697 1269 697 1307 q 726 1219 697 1238 q 813 1201 756 1201 q 919 1207 846 1201 q 1018 1214 993 1213 q 1188 1225 1160 1225 q 1296 1198 1246 1225 q 1382 1126 1346 1171 q 1431 1052 1413 1092 q 1449 978 1449 1013 q 1439 913 1449 944 l 1568 913 l 1621 813 l 1621 789 l 1479 789 l 1479 -58 l 1454 -58 l 1333 11 l 1333 789 l 1050 789 l 1050 -58 l 1025 -58 l 904 11 l 904 304 l 901 304 q 831 290 871 290 q 749 306 788 290 q 665 358 710 322 l 660 356 q 685 240 685 299 q 622 76 685 138 q 456 14 558 14 q 205 117 310 14 q 17 364 100 219 l 64 399 q 221 220 133 292 q 396 149 308 149 q 513 192 467 149 q 558 294 558 235 q 504 431 558 381 q 410 407 464 417 q 314 392 357 397 l 257 497 l 271 532 q 471 574 415 542 q 542 692 542 614 q 505 770 542 736 q 415 804 468 804 q 307 778 358 804 q 201 701 256 751 l 132 838 q 249 901 179 874 q 367 929 318 929 q 489 883 424 929 q 599 768 554 836 q 644 636 644 700 q 625 544 644 588 q 572 469 606 501 q 667 431 614 447 q 765 415 721 415 q 841 426 808 415 q 904 457 874 436 l 904 789 l 711 789 l 660 888 l 660 913 l 1361 913 q 1368 950 1368 931 q 1332 1047 1368 1007 q 1215 1086 1296 1086 q 1097 1076 1175 1086 q 949 1065 994 1065 q 792 1092 869 1065 q 665 1158 714 1118 q 615 1240 615 1199 q 631 1331 615 1289 q 647 1378 646 1374 l 719 1368 z "},"ओ":{"ha":1621,"x_min":17,"x_max":1621,"o":"m 17 0 m 1621 789 l 1478 789 l 1478 -58 l 1453 -58 l 1331 11 l 1331 789 l 1050 789 l 1050 -58 l 1025 -58 l 904 11 l 904 304 l 903 304 q 831 290 871 290 q 747 306 786 290 q 664 358 708 322 l 658 357 q 685 240 685 306 q 622 76 685 138 q 456 14 558 14 q 205 117 310 14 q 17 364 100 219 l 64 399 q 221 220 133 292 q 396 149 308 149 q 513 192 467 149 q 558 294 558 235 q 504 432 558 376 q 313 392 425 407 l 254 497 l 269 532 q 469 574 413 542 q 539 694 539 614 q 502 771 539 738 q 413 804 465 804 q 305 778 356 804 q 200 701 254 751 l 129 838 q 247 901 178 874 q 364 929 317 929 q 487 883 421 929 q 597 768 553 836 q 642 636 642 700 q 571 469 642 542 q 667 432 614 447 q 764 417 719 417 q 904 460 843 417 l 904 789 l 711 789 l 658 888 l 658 913 l 1567 913 l 1621 813 l 1621 789 m 1010 1407 q 1176 1331 1104 1407 q 1325 1107 1249 1254 q 1435 888 1389 985 l 1358 888 q 1315 970 1343 919 q 1275 1035 1286 1021 q 1128 1242 1168 1214 l 954 1188 q 915 1238 931 1207 q 900 1303 900 1268 q 931 1379 900 1351 q 1010 1407 963 1407 z "},"औ":{"ha":1621,"x_min":17,"x_max":1621,"o":"m 17 0 m 1621 789 l 1478 789 l 1478 -58 l 1453 -58 l 1331 11 l 1331 789 l 1050 789 l 1050 -58 l 1025 -58 l 904 11 l 904 304 l 903 304 q 831 290 871 290 q 747 306 786 290 q 664 358 708 322 l 658 357 q 685 240 685 306 q 622 76 685 138 q 456 14 558 14 q 205 117 310 14 q 17 364 100 219 l 64 399 q 221 220 133 292 q 396 149 308 149 q 513 192 467 149 q 558 294 558 235 q 504 432 558 376 q 313 392 425 407 l 254 497 l 269 532 q 469 574 413 542 q 539 694 539 614 q 502 771 539 738 q 413 804 465 804 q 305 778 356 804 q 200 701 254 751 l 129 838 q 247 901 178 874 q 364 929 317 929 q 487 883 421 929 q 597 768 553 836 q 642 636 642 700 q 571 469 642 542 q 667 432 614 447 q 764 417 719 417 q 904 460 843 417 l 904 789 l 711 789 l 658 888 l 658 913 l 1567 913 l 1621 813 l 1621 789 m 1029 1492 q 1221 1387 1138 1492 q 1375 1113 1304 1282 q 1457 908 1433 972 l 1393 908 q 1336 1042 1374 961 q 1238 1223 1290 1138 q 1158 1333 1186 1308 l 961 1290 l 958 1290 q 930 1332 942 1306 q 918 1388 918 1358 q 949 1464 918 1436 q 1029 1492 981 1492 m 990 1226 q 1135 1175 1065 1226 q 1258 1056 1204 1124 q 1372 892 1311 988 l 1313 892 q 1232 990 1285 929 q 1160 1069 1179 1051 l 926 1043 l 922 1043 q 894 1083 904 1060 q 885 1132 885 1107 q 915 1201 885 1175 q 990 1226 946 1226 z "},"ॳ":{"ha":1192,"x_min":17,"x_max":1190,"o":"m 17 0 m 1190 789 l 1050 789 l 1050 -58 l 1025 -58 l 904 11 l 904 304 l 903 304 q 831 290 871 290 q 747 306 786 290 q 664 358 708 322 l 658 357 q 685 240 685 306 q 622 76 685 138 q 456 14 558 14 q 205 117 310 14 q 17 364 100 219 l 64 399 q 221 220 133 292 q 396 149 308 149 q 513 192 467 149 q 558 294 558 235 q 504 432 558 376 q 313 392 425 407 l 254 497 l 269 532 q 469 574 413 542 q 539 694 539 614 q 502 771 539 738 q 413 804 465 804 q 305 778 356 804 q 200 701 254 751 l 129 838 q 247 901 178 874 q 364 929 317 929 q 487 883 421 929 q 597 768 553 836 q 642 636 642 700 q 571 469 642 542 q 667 432 614 447 q 764 417 719 417 q 904 460 843 417 l 904 789 l 711 789 l 658 888 l 658 913 l 1138 913 l 1190 813 l 1190 789 m 1051 1261 l 1051 883 l 904 883 l 904 1261 l 1051 1261 z "},"ॴ":{"ha":1621,"x_min":17,"x_max":1621,"o":"m 17 0 m 1621 789 l 1478 789 l 1478 -58 l 1453 -58 l 1331 11 l 1331 789 l 1050 789 l 1050 -58 l 1025 -58 l 904 11 l 904 304 l 903 304 q 831 290 871 290 q 747 306 786 290 q 664 358 708 322 l 658 357 q 685 240 685 306 q 622 76 685 138 q 456 14 558 14 q 205 117 310 14 q 17 364 100 219 l 64 399 q 221 220 133 292 q 396 149 308 149 q 513 192 467 149 q 558 294 558 235 q 504 432 558 376 q 313 392 425 407 l 254 497 l 269 532 q 469 574 413 542 q 539 694 539 614 q 502 771 539 738 q 413 804 465 804 q 305 778 356 804 q 200 701 254 751 l 129 838 q 247 901 178 874 q 364 929 317 929 q 487 883 421 929 q 597 768 553 836 q 642 636 642 700 q 571 469 642 542 q 667 432 614 447 q 764 417 719 417 q 904 460 843 417 l 904 789 l 711 789 l 658 888 l 658 913 l 1567 913 l 1621 813 l 1621 789 m 1481 1261 l 1481 883 l 1333 883 l 1333 1261 l 1481 1261 z "},"ॶ":{"ha":1192,"x_min":17,"x_max":1190,"o":"m 17 0 m 1190 789 l 1050 789 l 1050 -58 l 1025 -58 l 904 11 l 904 304 l 903 304 q 831 290 871 290 q 747 306 786 290 q 664 358 708 322 l 658 357 q 685 240 685 306 q 622 76 685 138 q 456 14 558 14 q 205 117 310 14 q 17 364 100 219 l 64 399 q 221 220 133 292 q 396 149 308 149 q 513 192 467 149 q 558 294 558 235 q 504 432 558 376 q 313 392 425 407 l 254 497 l 269 532 q 469 574 413 542 q 539 694 539 614 q 502 771 539 738 q 413 804 465 804 q 305 778 356 804 q 200 701 254 751 l 129 838 q 247 901 178 874 q 364 929 317 929 q 487 883 421 929 q 597 768 553 836 q 642 636 642 700 q 571 469 642 542 q 667 432 614 447 q 764 417 719 417 q 904 460 843 417 l 904 789 l 711 789 l 658 888 l 658 913 l 1138 913 l 1190 813 l 1190 789 m 731 -196 q 981 -85 885 -196 l 1032 -128 q 907 -258 989 -206 q 731 -311 825 -311 q 553 -258 636 -311 q 428 -128 471 -206 l 481 -85 q 731 -196 576 -196 z "},"ॷ":{"ha":1192,"x_min":17,"x_max":1190,"o":"m 17 0 m 1190 789 l 1050 789 l 1050 -58 l 1025 -58 l 904 11 l 904 304 l 903 304 q 831 290 871 290 q 747 306 786 290 q 664 358 708 322 l 658 357 q 685 240 685 306 q 622 76 685 138 q 456 14 558 14 q 205 117 310 14 q 17 364 100 219 l 64 399 q 221 220 133 292 q 396 149 308 149 q 513 192 467 149 q 558 294 558 235 q 504 432 558 376 q 313 392 425 407 l 254 497 l 269 532 q 469 574 413 542 q 539 694 539 614 q 502 771 539 738 q 413 804 465 804 q 305 778 356 804 q 200 701 254 751 l 129 838 q 247 901 178 874 q 364 929 317 929 q 487 883 421 929 q 597 768 553 836 q 642 636 642 700 q 571 469 642 542 q 667 432 614 447 q 764 417 719 417 q 904 460 843 417 l 904 789 l 711 789 l 658 888 l 658 913 l 1138 913 l 1190 813 l 1190 789 m 731 -196 q 981 -85 885 -196 l 1032 -128 q 907 -258 989 -206 q 731 -311 825 -311 q 553 -258 636 -311 q 428 -128 471 -206 l 481 -85 q 731 -196 576 -196 m 731 -426 q 981 -315 885 -426 l 1032 -358 q 907 -489 989 -436 q 731 -542 825 -542 q 553 -489 636 -542 q 428 -358 471 -436 l 481 -315 q 731 -426 576 -426 z "},"ा":{"ha":431,"x_min":-56,"x_max":431,"o":"m 431 813 l 431 789 l 289 789 l 289 -58 l 264 -58 l 142 11 l 142 789 l -4 789 l -56 888 l -56 913 l 378 913 l 431 813 z "},"ि":{"ha":431,"x_min":-56,"x_max":1021,"o":"m 394 1267 q 249 1222 306 1265 q 192 1100 192 1179 q 208 1000 192 1053 q 246 913 225 947 l 376 913 l 431 813 l 431 789 l 289 789 l 289 -58 l 264 -58 l 142 11 l 142 789 l -4 789 l -56 888 l -56 913 l 156 913 q 36 1175 36 1064 q 74 1289 36 1239 q 179 1367 111 1339 q 335 1396 247 1396 q 655 1284 482 1396 q 1021 1004 828 1172 l 982 953 q 663 1179 811 1093 q 394 1265 515 1265 l 394 1267 z "},"ी":{"ha":428,"x_min":-410,"x_max":429,"o":"m 429 813 l 429 789 l 288 789 l 288 -58 l 263 -58 l 140 11 l 140 789 l -6 789 l -57 888 l -57 913 l 158 913 q 21 1171 93 1065 q -136 1276 -51 1276 q -219 1239 -189 1276 q -250 1151 -250 1201 q -232 1067 -250 1110 q -192 997 -214 1025 l -192 994 l -257 961 q -365 1071 -319 1006 q -410 1210 -410 1136 q -381 1307 -410 1261 q -299 1381 -351 1353 q -179 1408 -247 1408 q -1 1332 -79 1408 q 126 1158 76 1256 q 238 913 176 1060 l 376 913 l 429 813 z "},"ॉ":{"ha":431,"x_min":-83,"x_max":535,"o":"m 0 0 m 431 813 l 431 789 l 289 789 l 289 -58 l 264 -58 l 142 11 l 142 789 l -4 789 l -56 888 l -56 913 l 378 913 l 431 813 m 535 1192 q 410 1078 478 1118 q 244 1038 343 1038 q 54 1108 139 1038 q -83 1274 -31 1179 l -37 1294 q 183 1146 64 1146 q 328 1190 265 1146 q 428 1292 390 1233 l 535 1192 z "},"ॊ":{"ha":431,"x_min":-569,"x_max":431,"o":"m -465 1368 q -489 1269 -489 1303 q -459 1219 -489 1238 q -374 1201 -429 1201 q -269 1207 -342 1201 q -168 1214 -196 1213 q 4 1225 -26 1225 q 110 1198 61 1225 q 197 1126 160 1171 q 246 1052 228 1092 q 264 978 264 1013 q 254 913 264 954 l 378 913 l 431 813 l 431 789 l 290 789 l 290 -58 l 264 -58 l 142 11 l 142 789 l -3 789 l -56 888 l -56 913 l 176 913 q 183 950 183 931 q 147 1047 183 1007 q 31 1086 111 1086 q -87 1076 -10 1086 q -236 1065 -190 1065 q -393 1092 -315 1065 q -520 1158 -471 1118 q -569 1240 -569 1199 q -561 1307 -569 1275 q -539 1378 -553 1339 l -465 1368 z "},"ो":{"ha":431,"x_min":-272,"x_max":433,"o":"m 433 811 l 433 788 l 292 788 l 292 -60 l 267 -60 l 144 10 l 144 788 l -1 788 l -53 886 l -53 911 l 169 911 q 103 1028 122 999 q 13 1168 49 1117 q -46 1235 -24 1219 l -219 1181 q -258 1231 -243 1200 q -272 1296 -272 1261 q -241 1372 -272 1344 q -162 1400 -210 1400 q 4 1323 -68 1400 q 151 1100 76 1246 q 244 913 183 1042 l 376 913 l 433 811 z "},"ौ":{"ha":428,"x_min":-299,"x_max":431,"o":"m 431 814 l 431 790 l 289 790 l 289 -57 l 264 -57 l 142 13 l 142 790 l -4 790 l -56 889 l -56 914 l 104 914 q -22 1061 4 1036 l -258 1035 l -261 1035 q -288 1075 -278 1051 q -299 1124 -299 1099 q -269 1192 -299 1167 q -193 1218 -239 1218 q -5 1133 -92 1218 q 169 914 82 1049 l 206 914 q 172 989 196 938 l 154 1031 q 57 1213 108 1128 q -24 1324 6 1297 l -221 1281 l -224 1281 q -251 1322 -240 1296 q -262 1378 -262 1349 q -232 1455 -262 1428 q -153 1482 -201 1482 q 38 1378 -44 1482 q 194 1100 119 1274 q 268 913 250 969 l 376 913 l 431 814 z "},"ऻ":{"ha":431,"x_min":-56,"x_max":431,"o":"m 431 813 l 431 789 l 289 789 l 289 -58 l 264 -58 l 142 11 l 142 789 l -4 789 l -56 888 l -56 913 l 142 913 l 142 1261 l 289 1261 l 289 913 l 378 913 l 431 813 z "},"क":{"ha":1196,"x_min":-56,"x_max":1196,"o":"m 700 790 l 700 526 q 883 611 800 611 q 1014 575 958 611 q 1099 476 1069 539 q 1129 338 1129 414 q 1106 194 1129 279 q 1047 43 1083 110 l 924 144 q 1004 269 965 197 q 1043 388 1043 340 q 1013 465 1043 435 q 933 494 982 494 q 821 460 878 494 q 699 369 764 426 l 699 -57 l 674 -57 l 547 15 l 557 246 l 556 247 q 444 174 496 199 q 326 149 393 149 q 197 180 256 149 q 105 270 139 211 q 71 410 71 329 q 97 528 71 472 q 172 619 122 585 q 290 654 222 654 q 440 606 378 654 q 550 478 503 557 l 551 789 l -4 789 l -56 888 l -56 913 l 1143 913 l 1196 813 l 1196 789 l 700 790 m 278 274 q 550 392 413 274 l 550 401 q 458 477 517 443 q 338 513 399 511 q 247 497 293 513 q 169 451 200 482 q 139 376 139 419 q 181 303 139 332 q 279 274 224 274 l 278 274 z "},"ख":{"ha":1210,"x_min":-56,"x_max":1208,"o":"m 1208 813 l 1208 789 l 1068 789 l 1068 -58 l 1042 -58 l 918 13 l 922 88 q 760 11 854 43 q 585 -21 665 -21 q 383 61 490 -21 q 175 260 276 143 q 88 368 110 338 q 67 432 67 399 q 90 494 67 464 q 140 540 114 525 l 218 488 q 240 549 231 507 q 250 633 250 590 q 239 789 250 704 l -4 789 l -56 888 l -56 913 l 1156 913 l 1208 813 m 582 93 q 758 134 658 93 q 924 236 858 175 l 924 329 l 922 329 q 815 254 858 279 q 719 229 772 229 q 601 260 658 229 q 510 345 544 290 q 475 469 475 400 q 506 590 475 538 q 589 670 536 642 q 707 699 642 699 q 822 665 771 699 q 919 579 872 631 l 921 579 l 921 789 l 367 789 q 383 671 376 735 q 389 563 389 607 q 349 408 389 474 q 249 283 310 342 q 395 153 307 214 q 582 92 483 92 l 582 93 m 675 346 q 803 388 735 346 q 921 493 872 431 l 921 497 q 842 553 890 535 q 744 572 793 572 q 642 553 689 572 q 568 501 596 533 q 540 432 540 468 q 578 373 540 399 q 674 347 617 347 l 675 346 z "},"ग":{"ha":892,"x_min":-56,"x_max":892,"o":"m 892 813 l 892 789 l 750 789 l 750 -58 l 724 -58 l 601 11 l 601 789 l 313 789 l 315 758 q 339 392 339 499 q 313 283 339 332 q 213 235 286 235 q 124 264 160 235 q 70 335 88 293 q 53 413 53 376 q 61 476 53 451 l 197 458 l 207 789 l -4 789 l -56 888 l -56 913 l 838 913 l 892 813 z "},"घ":{"ha":918,"x_min":-56,"x_max":942,"o":"m 942 813 l 942 789 l 800 789 l 800 -58 l 775 -58 l 651 13 l 656 224 l 653 226 q 531 156 588 181 q 421 131 474 131 q 236 196 315 131 q 163 280 193 235 q 132 363 132 325 q 161 473 132 419 q 238 560 190 526 q 106 633 150 597 q 63 732 63 669 q 67 789 63 756 l -4 789 l -56 888 l -56 913 l 892 913 l 942 813 m 351 249 q 508 301 417 249 q 654 418 600 353 l 654 789 l 232 789 q 194 700 194 756 q 239 635 196 665 q 325 599 282 606 q 367 606 349 606 q 497 588 461 606 l 519 507 l 506 471 q 413 483 464 483 q 321 458 361 483 q 259 396 281 433 q 238 324 238 358 q 274 267 238 286 q 351 249 310 249 z "},"ङ":{"ha":1029,"x_min":-56,"x_max":1029,"o":"m 1029 813 l 1029 789 l 658 789 l 658 529 l 325 529 q 224 436 224 529 q 240 382 224 410 q 275 354 257 354 q 346 362 313 354 q 433 386 379 369 q 508 408 476 400 q 569 415 539 415 q 648 377 608 415 q 714 281 688 339 q 740 167 740 222 q 686 -5 740 58 q 526 -68 632 -68 q 33 215 283 -68 l 83 263 q 278 106 189 150 q 465 61 368 61 q 606 96 544 61 q 667 197 667 131 q 652 249 667 222 q 615 285 638 275 q 549 276 578 283 q 476 254 519 269 q 444 243 469 251 q 393 231 418 235 q 344 226 368 226 q 258 265 310 226 q 167 360 206 303 q 128 475 128 418 q 170 613 128 567 q 279 658 213 658 l 511 658 l 511 789 l -4 789 l -56 888 l -56 913 l 976 913 l 1029 813 m 1010 463 l 885 335 l 760 461 l 883 588 l 1010 463 z "},"च":{"ha":929,"x_min":-56,"x_max":931,"o":"m 931 813 l 931 789 l 788 789 l 788 -58 l 763 -58 l 635 14 l 643 183 l 639 186 q 538 133 593 153 q 432 114 483 114 q 333 135 379 114 q 250 192 286 156 q 168 357 168 276 q 203 482 168 419 l 83 482 l 31 582 l 31 607 l 518 607 l 571 507 l 571 482 l 388 482 q 304 414 336 461 q 272 318 272 367 q 303 244 272 276 q 372 213 333 213 q 510 258 432 213 q 639 358 588 303 l 639 789 l -4 789 l -56 888 l -56 913 l 875 913 l 931 813 z "},"छ":{"ha":1151,"x_min":-56,"x_max":1153,"o":"m 851 793 l 851 651 q 965 563 921 622 q 1010 415 1010 504 q 961 240 1010 331 q 1072 156 1032 203 q 1111 38 1111 108 q 1087 -92 1111 -14 q 1032 -226 1063 -169 l 904 -122 q 992 -19 957 -68 q 1026 74 1026 29 q 999 126 1026 103 q 919 176 972 150 q 735 15 844 78 q 513 -47 625 -47 q 356 -1 436 -47 q 222 106 276 44 q 168 207 168 167 q 217 335 168 276 q 139 388 167 367 q 91 438 111 408 q 71 503 71 467 q 97 586 71 549 q 169 646 124 624 q 268 668 214 668 q 338 661 304 668 q 388 646 372 654 l 435 528 q 366 552 407 542 q 296 563 325 563 q 226 536 254 563 q 199 464 199 510 q 222 414 199 436 q 275 386 246 392 q 368 413 321 413 q 488 403 432 413 l 522 313 l 508 278 q 413 289 461 289 q 344 271 372 289 q 301 226 315 253 q 286 174 286 199 q 306 126 286 150 q 358 85 325 101 q 425 69 390 69 q 624 115 524 69 q 793 236 725 160 l 781 240 q 619 364 683 290 q 554 526 554 438 q 597 630 554 594 q 703 671 639 665 l 703 789 l -4 789 l -56 888 l -56 913 l 1099 913 l 1153 813 l 1153 789 l 851 793 m 888 464 q 851 549 888 518 q 768 579 815 579 q 709 556 732 579 q 686 489 686 533 q 728 381 686 431 q 833 303 769 332 l 838 299 q 886 463 886 378 l 888 464 z "},"ज":{"ha":1032,"x_min":-56,"x_max":1032,"o":"m 1032 788 l 889 788 l 889 -60 l 865 -60 l 743 10 l 743 496 l 474 496 q 568 382 533 440 q 603 275 603 324 q 578 166 603 214 q 510 92 553 118 q 417 65 467 65 q 173 217 268 65 q 22 576 78 369 l 83 597 q 212 322 138 439 q 386 204 286 204 q 461 235 432 204 q 490 313 490 267 q 420 449 490 378 q 264 569 350 519 l 288 622 l 743 622 l 743 789 l -4 789 l -56 888 l -56 913 l 979 913 l 1032 813 l 1032 788 z "},"झ":{"ha":1121,"x_min":-56,"x_max":1121,"o":"m 1121 813 l 1121 789 l 981 789 l 981 -58 l 956 -58 l 833 11 l 833 276 l 832 276 q 756 264 792 264 q 685 274 718 264 q 604 310 653 285 l 601 310 q 624 194 624 250 q 583 84 624 135 q 477 3 543 33 q 339 -29 411 -28 l 385 -69 l 432 -235 l 343 -150 l 297 -28 q 147 17 211 -21 q 82 107 82 54 q 98 159 82 136 q 138 195 114 182 q 181 208 161 208 q 203 206 194 208 l 275 96 q 476 134 392 99 q 560 231 560 169 q 548 285 560 257 q 521 321 536 314 q 475 312 504 321 q 440 301 446 303 q 378 283 410 292 q 322 275 346 275 q 239 312 290 275 q 150 402 188 349 q 113 504 113 456 q 150 639 113 593 q 251 685 188 685 l 426 685 l 426 789 l -4 789 l -56 888 l -56 913 l 1068 913 l 1121 813 m 696 393 q 832 428 774 393 l 832 789 l 572 789 l 572 556 l 288 556 q 219 528 239 556 q 200 467 200 501 q 216 422 200 443 q 247 400 232 400 q 306 406 278 400 q 376 424 333 411 q 426 437 401 431 q 469 443 451 443 q 535 414 501 443 q 697 393 621 393 l 696 393 z "},"ञ":{"ha":1106,"x_min":-56,"x_max":1108,"o":"m 1107 789 l 965 789 l 965 -62 l 939 -62 l 818 6 l 818 333 q 771 318 796 318 q 683 356 739 318 l 679 356 q 611 215 669 272 q 464 157 553 157 q 242 242 351 157 q 15 475 133 326 l 64 513 q 253 341 175 396 q 417 286 332 286 q 526 324 483 286 q 569 418 569 361 q 546 488 569 457 q 482 518 522 518 q 344 450 428 518 l 250 561 q 334 610 289 590 q 411 631 379 631 q 508 605 456 631 q 604 536 561 579 q 667 446 647 493 q 700 443 689 443 q 819 479 769 443 l 819 789 l -4 789 l -56 888 l -56 913 l 1056 913 l 1108 813 l 1107 789 z "},"ट":{"ha":783,"x_min":-56,"x_max":782,"o":"m 782 813 l 782 789 l 579 789 l 579 485 q 285 423 400 474 q 171 274 171 372 q 226 165 171 199 q 354 131 282 131 q 685 239 517 131 l 754 104 q 577 28 657 50 q 410 6 497 6 q 246 49 318 6 q 134 164 174 92 q 94 319 94 236 q 191 534 94 465 q 431 619 288 603 l 431 789 l -4 789 l -56 888 l -56 913 l 729 913 l 782 813 z "},"ठ":{"ha":869,"x_min":-56,"x_max":869,"o":"m 867 788 l 592 788 q 631 681 631 726 q 594 568 631 633 q 720 442 674 514 q 767 286 767 371 q 724 125 767 196 q 601 14 682 54 q 408 -26 519 -26 q 240 22 315 -26 q 122 150 164 69 q 79 321 79 231 q 185 541 79 467 q 467 624 290 615 q 485 707 485 665 q 454 789 485 743 l -4 789 l -56 888 l -56 913 l 817 913 l 869 813 l 867 788 m 665 346 q 633 431 665 392 q 567 485 601 469 q 272 422 389 474 q 156 274 156 371 q 186 176 156 215 q 263 117 217 136 q 353 99 308 99 q 590 170 514 99 q 665 346 665 242 z "},"ड":{"ha":849,"x_min":-56,"x_max":849,"o":"m 849 813 l 849 789 l 685 789 l 685 529 l 325 529 q 224 436 224 529 q 240 382 224 410 q 275 354 257 354 q 350 362 314 354 q 449 386 386 369 q 531 408 497 400 q 596 415 564 415 q 674 377 633 415 q 742 281 715 339 q 768 167 768 222 q 706 -4 767 60 q 536 -68 644 -68 q 289 1 417 -68 q 33 215 161 69 l 83 263 q 282 106 189 151 q 475 61 375 61 q 626 96 558 61 q 693 197 693 131 q 678 249 693 222 q 642 285 664 275 q 572 276 603 283 q 489 254 542 269 q 411 233 443 240 q 344 226 379 226 q 257 265 310 226 q 165 360 204 303 q 126 475 126 418 q 169 613 126 567 q 278 658 211 658 l 538 658 l 538 789 l -4 789 l -56 888 l -56 913 l 797 913 l 849 813 z "},"ढ":{"ha":799,"x_min":-56,"x_max":799,"o":"m 381 511 q 209 465 275 511 q 143 333 143 418 q 212 175 143 239 q 368 86 281 111 q 326 221 326 157 q 381 358 328 315 q 507 400 435 400 q 615 369 565 400 q 694 285 665 339 q 724 165 724 231 q 685 47 724 97 q 590 -28 647 -3 q 478 -54 533 -54 q 298 -6 393 -54 q 137 140 203 43 q 71 371 71 236 q 149 582 71 517 q 347 647 228 647 l 472 647 l 472 789 l -4 789 l -56 888 l -56 913 l 746 913 l 799 813 l 799 789 l 618 789 l 618 511 l 381 511 m 411 157 q 428 76 410 114 l 432 76 q 545 92 493 76 q 628 135 597 108 q 660 194 660 163 q 626 263 660 236 q 553 290 593 290 q 489 275 522 290 q 433 230 456 260 q 410 158 410 200 l 411 157 z "},"ण":{"ha":1122,"x_min":-54,"x_max":1122,"o":"m 1122 789 l 981 789 l 981 -58 l 956 -58 l 833 11 l 833 789 l 632 789 l 632 410 q 598 294 632 346 q 508 213 564 243 q 386 183 451 183 q 295 214 340 183 q 196 301 250 244 q 128 381 149 349 q 108 454 108 413 l 108 789 l -3 789 l -54 888 l -54 913 l 1068 913 l 1122 813 l 1122 789 m 485 789 l 256 789 l 256 411 q 286 328 256 347 q 374 310 317 310 q 458 351 432 310 q 485 440 485 392 l 485 789 z "},"त":{"ha":871,"x_min":-56,"x_max":871,"o":"m 871 789 l 728 789 l 728 -58 l 703 -58 l 582 11 l 582 493 l 367 493 q 248 458 285 493 q 211 350 211 424 q 414 7 211 210 l 367 -43 q 159 176 243 65 q 75 403 75 288 q 133 565 75 507 q 332 622 192 622 l 582 622 l 582 789 l -4 789 l -56 888 l -56 913 l 818 913 l 871 813 l 871 789 z "},"थ":{"ha":975,"x_min":65,"x_max":976,"o":"m 976 813 l 976 789 l 835 789 l 835 -58 l 810 -58 l 685 13 l 689 206 l 685 208 q 594 163 646 182 q 488 143 542 143 q 283 213 368 143 q 140 424 197 282 q 294 493 235 446 q 131 617 197 539 q 65 781 65 694 q 112 888 65 850 q 232 925 158 925 q 366 897 300 925 q 476 809 432 868 q 519 664 519 750 q 453 488 519 572 q 279 350 386 403 q 333 290 294 313 q 426 268 372 268 q 569 301 500 268 q 686 378 639 335 l 686 789 l 575 789 l 524 888 l 524 913 l 922 913 l 976 813 m 194 740 q 241 628 194 682 q 349 550 288 574 q 396 704 396 615 q 363 790 396 753 q 276 826 331 826 q 217 804 240 826 q 194 739 194 782 l 194 740 z "},"द":{"ha":803,"x_min":-56,"x_max":803,"o":"m 803 813 l 803 789 l 611 789 l 611 519 l 388 519 q 214 473 272 519 q 156 346 156 426 q 199 239 156 282 q 303 176 243 196 q 407 156 363 156 q 486 161 442 156 l 425 304 q 486 350 451 335 q 554 365 521 365 q 663 324 625 365 q 701 219 701 282 q 674 136 700 175 q 600 69 647 97 l 749 -167 l 650 -219 l 536 43 q 407 26 481 26 q 263 69 338 26 q 136 193 188 113 q 85 382 85 274 q 153 590 85 526 q 356 654 222 654 l 464 654 l 464 789 l -4 789 l -56 888 l -56 913 l 751 913 l 803 813 z "},"ध":{"ha":975,"x_min":64,"x_max":975,"o":"m 975 789 l 833 789 l 833 -58 l 807 -58 l 683 13 l 688 224 l 685 226 q 561 153 618 178 q 449 129 504 129 q 347 147 396 129 q 258 199 299 164 q 158 361 158 293 q 181 456 158 408 q 242 540 203 504 q 64 803 64 653 q 108 910 64 872 q 228 949 153 949 q 301 935 261 949 q 365 903 340 921 q 424 847 403 874 q 444 781 444 821 q 427 733 444 753 q 372 714 410 714 q 329 722 346 714 l 329 825 q 272 847 311 847 q 213 825 235 847 q 192 760 192 803 q 224 667 192 713 q 308 588 257 622 q 397 607 347 607 q 528 589 490 607 l 551 510 l 536 472 q 443 485 494 485 q 349 460 389 485 q 287 397 308 435 q 265 324 265 358 q 302 267 265 286 q 379 247 339 247 q 542 301 450 247 q 686 419 633 354 l 686 789 l 535 789 l 483 888 l 483 913 l 921 913 l 975 813 l 975 789 z "},"न":{"ha":854,"x_min":-56,"x_max":854,"o":"m 854 811 l 854 788 l 713 788 l 713 -60 l 686 -60 l 565 10 l 565 421 l 269 401 l 289 264 q 225 257 258 257 q 147 274 189 257 q 76 328 106 292 q 46 417 46 364 q 93 517 46 493 q 203 542 140 542 q 565 521 340 542 l 565 789 l -4 789 l -56 888 l -56 913 l 800 913 l 854 811 z "},"ऩ":{"ha":854,"x_min":-56,"x_max":854,"o":"m 854 811 l 854 788 l 713 788 l 713 -60 l 686 -60 l 565 10 l 565 421 l 269 401 l 289 264 q 225 257 258 257 q 147 274 189 257 q 76 328 106 292 q 46 417 46 364 q 93 517 46 493 q 203 542 140 542 q 565 521 340 542 l 565 789 l -4 789 l -56 888 l -56 913 l 800 913 l 854 811 m 342 183 l 467 58 l 343 -69 l 217 57 l 342 183 z "},"प":{"ha":836,"x_min":-56,"x_max":836,"o":"m 836 813 l 836 789 l 694 789 l 694 -58 l 668 -58 l 547 11 l 547 272 l 544 272 q 383 222 467 222 q 295 254 339 222 q 194 344 251 286 q 129 426 149 390 q 110 503 110 461 l 110 789 l -4 789 l -56 888 l -56 913 l 783 913 l 836 813 m 357 351 q 458 373 407 351 q 547 425 508 394 l 547 789 l 257 789 l 257 449 q 286 374 257 394 q 357 353 315 353 l 357 351 z "},"फ":{"ha":1182,"x_min":-56,"x_max":1183,"o":"m 685 789 l 685 546 q 868 632 786 632 q 997 596 942 632 q 1083 497 1053 560 q 1114 358 1114 435 q 1090 216 1114 301 q 1032 65 1067 131 l 907 164 q 988 289 949 215 q 1026 408 1026 363 q 996 485 1026 456 q 918 515 965 515 q 802 480 858 515 q 685 388 746 444 l 685 -58 l 661 -58 l 532 14 l 543 268 l 539 268 q 465 235 506 249 q 383 222 425 222 q 295 255 340 222 q 194 344 250 288 q 129 426 149 390 q 110 503 110 461 l 110 789 l -4 789 l -56 888 l -56 913 l 1129 913 l 1183 813 l 1183 789 l 685 789 m 354 353 q 449 371 401 353 q 536 417 496 389 l 538 789 l 257 789 l 257 449 q 286 373 257 393 q 356 353 315 353 l 354 353 z "},"ब":{"ha":929,"x_min":-56,"x_max":929,"o":"m 929 813 l 929 789 l 786 789 l 786 -58 l 761 -58 l 635 14 l 642 236 l 636 239 q 501 151 556 179 q 376 122 446 122 q 238 154 306 122 q 126 247 169 186 q 82 389 82 307 q 121 545 82 478 q 221 648 160 613 q 344 683 282 683 q 504 631 426 683 q 638 506 582 578 l 639 506 l 639 789 l -4 789 l -56 888 l -56 913 l 875 913 l 929 813 m 483 289 q 570 347 529 314 q 639 414 611 379 q 534 506 597 468 q 415 544 471 544 q 324 532 367 544 l 485 289 l 483 289 m 315 238 q 436 264 372 238 l 274 511 q 183 443 217 485 q 149 357 149 401 q 196 272 149 306 q 317 239 243 239 l 315 238 z "},"भ":{"ha":1057,"x_min":64,"x_max":1056,"o":"m 1056 813 l 1056 789 l 914 789 l 914 -58 l 888 -58 l 767 11 l 767 290 l 475 290 q 369 163 464 164 q 283 206 319 163 q 232 308 247 250 q 219 389 219 347 q 221 415 219 407 l 332 415 l 332 511 q 139 623 214 556 q 64 779 64 690 q 110 887 64 849 q 229 925 157 925 q 345 903 289 925 q 440 831 401 882 q 478 697 478 779 l 478 415 l 768 415 l 768 789 l 557 789 l 506 888 l 506 913 l 1003 913 l 1056 813 m 192 738 q 232 647 192 686 q 338 583 272 608 q 349 658 344 615 q 353 728 353 700 q 329 797 353 768 q 272 826 306 826 q 214 804 236 826 q 192 739 192 782 l 192 738 z "},"म":{"ha":908,"x_min":-56,"x_max":907,"o":"m 907 813 l 907 789 l 765 789 l 765 -58 l 739 -58 l 618 11 l 618 317 l 304 317 q 275 226 299 263 q 199 189 251 189 q 113 231 149 189 q 64 329 78 274 q 49 417 49 375 q 50 442 49 433 l 160 442 l 160 789 l -4 789 l -56 888 l -56 913 l 854 913 l 907 813 m 618 442 l 618 789 l 306 789 l 306 442 l 618 442 z "},"य":{"ha":908,"x_min":-56,"x_max":908,"o":"m 908 789 l 767 789 l 767 -58 l 742 -58 l 618 13 l 622 207 l 618 208 q 527 163 579 182 q 419 143 475 143 q 211 228 304 143 q 68 461 118 313 q 217 534 161 490 q 274 639 274 578 q 255 710 274 676 q 196 789 236 744 l -4 789 l -56 888 l -56 913 l 856 913 l 908 813 l 908 789 m 358 268 q 503 301 433 268 q 621 379 574 335 l 621 789 l 307 789 l 307 786 q 418 599 418 665 q 353 476 418 533 q 210 388 288 418 q 257 300 214 332 q 358 268 300 268 z "},"र":{"ha":604,"x_min":-56,"x_max":604,"o":"m 604 790 l 383 790 q 399 673 393 736 q 404 564 404 610 q 364 408 404 475 q 263 285 324 340 l 556 -4 l 476 -64 l 165 292 q 99 375 117 349 q 82 433 82 401 q 106 496 82 465 q 157 542 131 526 l 236 489 q 257 551 247 510 q 267 635 267 593 q 256 789 267 707 l -4 789 l -56 888 l -56 913 l 551 913 l 604 813 l 604 790 z "},"ऱ":{"ha":614,"x_min":-56,"x_max":614,"o":"m 614 790 l 383 790 q 399 673 393 736 q 404 564 404 610 q 364 408 404 475 q 263 285 324 340 l 556 -4 l 476 -64 l 165 292 q 99 375 117 349 q 82 433 82 401 q 106 496 82 465 q 157 542 131 526 l 236 489 q 257 551 247 510 q 267 635 267 593 q 256 789 267 707 l -4 789 l -56 888 l -56 913 l 561 913 l 614 813 l 614 790 m 175 132 l 300 7 l 176 -121 l 50 6 l 175 132 z "},"ल":{"ha":1076,"x_min":-56,"x_max":1078,"o":"m 1078 790 l 935 790 l 935 -57 l 910 -57 l 788 13 l 788 486 q 733 510 758 510 q 614 423 665 510 q 539 233 563 336 l 417 307 q 469 450 432 383 q 401 494 438 479 q 332 510 364 510 q 232 467 272 510 q 192 358 192 425 q 422 -33 192 165 l 378 -79 q 149 144 242 25 q 57 411 57 263 q 85 525 57 474 q 161 606 113 576 q 269 636 210 636 q 390 603 333 636 q 504 504 447 569 q 685 610 585 608 q 786 551 735 610 l 786 789 l -4 789 l -56 888 l -56 913 l 1022 913 l 1076 813 l 1078 790 z "},"ळ":{"ha":1142,"x_min":-56,"x_max":1142,"o":"m 921 788 l 921 629 q 1030 522 989 590 q 1071 363 1071 453 q 1042 219 1071 283 q 960 119 1013 156 q 843 83 908 83 q 706 128 772 83 q 592 233 640 172 q 499 104 553 149 q 364 60 446 60 q 221 101 289 60 q 111 210 153 142 q 69 357 69 279 q 101 510 69 442 q 188 616 133 578 q 310 654 243 654 q 442 615 382 654 q 564 514 503 576 q 651 628 603 589 q 772 669 700 668 l 772 789 l -4 789 l -56 888 l -56 913 l 1089 913 l 1142 813 l 1142 789 l 921 788 m 990 418 q 951 510 990 472 q 851 549 913 549 q 748 515 789 549 q 682 435 707 482 q 617 289 657 388 q 694 235 650 256 q 790 214 739 214 q 882 244 835 214 q 960 322 929 274 q 992 419 992 369 l 990 418 m 293 178 q 393 210 353 178 q 460 290 433 242 q 524 425 486 338 l 536 454 q 379 519 465 519 q 263 491 314 519 q 183 415 211 463 q 156 310 156 367 q 192 216 156 254 q 294 178 229 178 l 293 178 z "},"ऴ":{"ha":1142,"x_min":-56,"x_max":1142,"o":"m 921 788 l 921 629 q 1030 522 989 590 q 1071 363 1071 453 q 1042 219 1071 283 q 960 119 1013 156 q 843 83 908 83 q 706 128 772 83 q 592 233 640 172 q 499 104 553 149 q 364 60 446 60 q 221 101 289 60 q 111 210 153 142 q 69 357 69 279 q 101 510 69 442 q 188 616 133 578 q 310 654 243 654 q 442 615 382 654 q 564 514 503 576 q 651 628 603 589 q 772 669 700 668 l 772 789 l -4 789 l -56 888 l -56 913 l 1089 913 l 1142 813 l 1142 789 l 921 788 m 990 418 q 951 510 990 472 q 851 549 913 549 q 748 515 789 549 q 682 435 707 482 q 617 289 657 388 q 694 235 650 256 q 790 214 739 214 q 882 244 835 214 q 960 322 929 274 q 992 419 992 369 l 990 418 m 293 178 q 393 210 353 178 q 460 290 433 242 q 524 425 486 338 l 536 454 q 379 519 465 519 q 263 491 314 519 q 183 415 211 463 q 156 310 156 367 q 192 216 156 254 q 294 178 229 178 l 293 178 m 596 53 l 721 -72 l 597 -199 l 471 -74 l 596 53 z "},"व":{"ha":922,"x_min":-56,"x_max":922,"o":"m 922 813 l 922 789 l 779 789 l 779 -58 l 756 -58 l 628 14 l 636 229 l 632 232 q 497 151 558 179 q 368 122 435 122 q 231 154 296 122 q 124 247 165 186 q 82 389 82 307 q 119 546 82 479 q 215 648 156 613 q 339 683 274 683 q 498 631 421 683 q 632 506 575 578 l 633 506 l 633 789 l -4 789 l -56 888 l -56 913 l 869 913 l 922 813 m 308 239 q 479 291 386 239 q 633 413 572 343 l 633 415 q 528 506 590 469 q 411 543 465 543 q 279 515 339 543 q 185 442 219 486 q 150 357 150 399 q 194 272 150 306 q 308 239 239 239 z "},"श":{"ha":1054,"x_min":-56,"x_max":1054,"o":"m 913 789 l 913 -58 l 886 -58 l 765 11 l 765 789 l 535 789 q 592 629 592 724 q 556 470 592 551 q 460 324 521 389 q 328 232 400 260 l 494 -19 l 383 -81 l 263 215 q 236 214 253 214 q 163 230 204 214 q 92 272 121 246 q 63 328 63 299 q 79 384 63 358 q 121 424 96 410 q 167 439 146 439 q 193 435 185 439 l 257 338 q 388 443 331 371 q 210 568 283 488 q 136 740 136 649 q 144 789 136 767 l -4 789 l -56 888 l -56 913 l 1001 913 l 1054 813 l 1054 789 l 913 789 m 468 667 q 435 751 468 714 q 349 788 403 788 q 290 765 314 788 q 267 699 267 742 q 315 585 267 640 q 426 506 363 531 q 468 667 468 589 z "},"ष":{"ha":863,"x_min":-56,"x_max":863,"o":"m 863 813 l 863 789 l 721 789 l 721 -58 l 696 -58 l 575 11 l 575 228 l 572 228 q 396 169 472 169 q 304 206 353 169 q 196 301 256 242 q 129 381 149 349 q 110 454 110 414 l 110 789 l -4 789 l -56 888 l -56 913 l 810 913 l 863 813 m 257 789 l 575 431 l 575 789 l 257 789 m 371 300 q 467 321 417 300 q 561 374 518 342 l 257 717 l 257 401 q 290 324 257 347 q 369 301 324 301 l 371 300 z "},"स":{"ha":983,"x_min":-56,"x_max":982,"o":"m 982 813 l 982 789 l 840 789 l 840 -58 l 814 -58 l 693 11 l 693 296 l 690 296 q 565 275 632 275 q 344 372 465 275 l 339 372 q 261 283 310 329 l 556 -6 l 475 -65 l 164 290 q 97 375 114 350 q 81 432 81 400 q 105 494 81 464 q 156 540 129 525 l 235 488 q 256 550 246 508 q 265 633 265 592 q 254 789 265 707 l -4 789 l -56 888 l -56 913 l 931 913 l 982 813 m 529 411 q 692 447 629 411 l 692 789 l 379 789 q 394 678 389 740 q 400 563 400 615 q 381 453 400 504 q 455 423 414 435 q 532 411 496 411 l 529 411 z "},"ह":{"ha":808,"x_min":-56,"x_max":808,"o":"m 271 546 q 189 482 189 546 q 203 429 189 456 q 242 379 218 403 q 428 431 322 431 q 570 390 501 431 q 681 294 639 350 q 724 194 724 238 q 676 77 724 136 q 568 -18 629 18 l 457 79 l 457 82 q 569 165 528 125 q 610 250 610 204 q 573 310 610 283 q 475 336 536 336 q 381 313 426 336 q 309 248 336 289 q 282 160 282 207 q 360 -10 282 65 q 614 -182 439 -85 l 579 -231 q 359 -105 451 -165 q 203 35 267 -44 q 139 206 139 114 q 185 328 139 274 q 97 521 97 436 q 132 638 97 603 q 235 674 167 674 l 501 674 l 501 789 l -4 789 l -56 888 l -56 913 l 756 913 l 808 813 l 808 789 l 647 789 l 647 546 l 271 546 z "},"क़":{"ha":1196,"x_min":-56,"x_max":1196,"o":"m 0 0 m 700 790 l 700 526 q 883 611 800 611 q 1014 575 958 611 q 1099 476 1069 539 q 1129 338 1129 414 q 1106 194 1129 279 q 1047 43 1083 110 l 924 144 q 1004 269 965 197 q 1043 388 1043 340 q 1013 465 1043 435 q 933 494 982 494 q 821 460 878 494 q 699 369 764 426 l 699 -57 l 674 -57 l 547 15 l 557 246 l 556 247 q 444 174 496 199 q 326 149 393 149 q 197 180 256 149 q 105 270 139 211 q 71 410 71 329 q 97 528 71 472 q 172 619 122 585 q 290 654 222 654 q 440 606 378 654 q 550 478 503 557 l 551 789 l -4 789 l -56 888 l -56 913 l 1143 913 l 1196 813 l 1196 789 l 700 790 m 278 274 q 550 392 413 274 l 550 401 q 458 477 517 443 q 338 513 399 511 q 247 497 293 513 q 169 451 200 482 q 139 376 139 419 q 181 303 139 332 q 279 274 224 274 l 278 274 m 450 -19 l 326 -147 l 200 -19 l 325 106 l 450 -19 z "},"ख़":{"ha":1210,"x_min":-56,"x_max":1208,"o":"m 0 0 m 1208 813 l 1208 789 l 1068 789 l 1068 -58 l 1042 -58 l 918 13 l 922 88 q 760 11 854 43 q 585 -21 665 -21 q 383 61 490 -21 q 175 260 276 143 q 88 368 110 338 q 67 432 67 399 q 90 494 67 464 q 140 540 114 525 l 218 488 q 240 549 231 507 q 250 633 250 590 q 239 789 250 704 l -4 789 l -56 888 l -56 913 l 1156 913 l 1208 813 m 582 93 q 758 134 658 93 q 924 236 858 175 l 924 329 l 922 329 q 815 254 858 279 q 719 229 772 229 q 601 260 658 229 q 510 345 544 290 q 475 469 475 400 q 506 590 475 538 q 589 670 536 642 q 707 699 642 699 q 822 665 771 699 q 919 579 872 631 l 921 579 l 921 789 l 367 789 q 383 671 376 735 q 389 563 389 607 q 349 408 389 474 q 249 283 310 342 q 395 153 307 214 q 582 92 483 92 l 582 93 m 675 346 q 803 388 735 346 q 921 493 872 431 l 921 497 q 842 553 890 535 q 744 572 793 572 q 642 553 689 572 q 568 501 596 533 q 540 432 540 468 q 578 373 540 399 q 674 347 617 347 l 675 346 m 281 0 l 157 -128 l 31 0 l 156 125 l 281 0 z "},"ग़":{"ha":892,"x_min":-56,"x_max":892,"o":"m 0 0 m 892 813 l 892 789 l 750 789 l 750 -58 l 724 -58 l 601 11 l 601 789 l 313 789 l 315 758 q 339 392 339 499 q 313 283 339 332 q 213 235 286 235 q 124 264 160 235 q 70 335 88 293 q 53 413 53 376 q 61 476 53 451 l 197 458 l 207 789 l -4 789 l -56 888 l -56 913 l 838 913 l 892 813 m 338 44 l 214 -83 l 88 44 l 213 169 l 338 44 z "},"ज़":{"ha":1032,"x_min":-56,"x_max":1032,"o":"m 0 0 m 1032 788 l 889 788 l 889 -60 l 865 -60 l 743 10 l 743 496 l 474 496 q 568 382 533 440 q 603 275 603 324 q 578 166 603 214 q 510 92 553 118 q 417 65 467 65 q 173 217 268 65 q 22 576 78 369 l 83 597 q 212 322 138 439 q 386 204 286 204 q 461 235 432 204 q 490 313 490 267 q 420 449 490 378 q 264 569 350 519 l 288 622 l 743 622 l 743 789 l -4 789 l -56 888 l -56 913 l 979 913 l 1032 813 l 1032 788 m 385 -75 l 261 -203 l 135 -75 l 260 50 l 385 -75 z "},"ड़":{"ha":849,"x_min":-56,"x_max":849,"o":"m 0 0 m 849 813 l 849 789 l 685 789 l 685 529 l 325 529 q 224 436 224 529 q 240 382 224 410 q 275 354 257 354 q 350 362 314 354 q 449 386 386 369 q 531 408 497 400 q 596 415 564 415 q 674 377 633 415 q 742 281 715 339 q 768 167 768 222 q 706 -4 767 60 q 536 -68 644 -68 q 289 1 417 -68 q 33 215 161 69 l 83 263 q 282 106 189 151 q 475 61 375 61 q 626 96 558 61 q 693 197 693 131 q 678 249 693 222 q 642 285 664 275 q 572 276 603 283 q 489 254 542 269 q 411 233 443 240 q 344 226 379 226 q 257 265 310 226 q 165 360 204 303 q 126 475 126 418 q 169 613 126 567 q 278 658 211 658 l 538 658 l 538 789 l -4 789 l -56 888 l -56 913 l 797 913 l 849 813 m 642 -249 l 518 -376 l 392 -249 l 517 -124 l 642 -249 z "},"ढ़":{"ha":799,"x_min":-56,"x_max":799,"o":"m 0 0 m 381 511 q 209 465 275 511 q 143 333 143 418 q 212 175 143 239 q 368 86 281 111 q 326 221 326 157 q 381 358 328 315 q 507 400 435 400 q 615 369 565 400 q 694 285 665 339 q 724 165 724 231 q 685 47 724 97 q 590 -28 647 -3 q 478 -54 533 -54 q 298 -6 393 -54 q 137 140 203 43 q 71 371 71 236 q 149 582 71 517 q 347 647 228 647 l 472 647 l 472 789 l -4 789 l -56 888 l -56 913 l 746 913 l 799 813 l 799 789 l 618 789 l 618 511 l 381 511 m 411 157 q 428 76 410 114 l 432 76 q 545 92 493 76 q 628 135 597 108 q 660 194 660 163 q 626 263 660 236 q 553 290 593 290 q 489 275 522 290 q 433 230 456 260 q 410 158 410 200 l 411 157 m 601 -226 l 478 -354 l 351 -226 l 476 -101 l 601 -226 z "},"फ़":{"ha":1182,"x_min":-56,"x_max":1183,"o":"m 0 0 m 685 789 l 685 546 q 868 632 786 632 q 997 596 942 632 q 1083 497 1053 560 q 1114 358 1114 435 q 1090 216 1114 301 q 1032 65 1067 131 l 907 164 q 988 289 949 215 q 1026 408 1026 363 q 996 485 1026 456 q 918 515 965 515 q 802 480 858 515 q 685 388 746 444 l 685 -58 l 661 -58 l 532 14 l 543 268 l 539 268 q 465 235 506 249 q 383 222 425 222 q 295 255 340 222 q 194 344 250 288 q 129 426 149 390 q 110 503 110 461 l 110 789 l -4 789 l -56 888 l -56 913 l 1129 913 l 1183 813 l 1183 789 l 685 789 m 354 353 q 449 371 401 353 q 536 417 496 389 l 538 789 l 257 789 l 257 449 q 286 373 257 393 q 356 353 315 353 l 354 353 m 267 122 l 143 -6 l 17 122 l 142 247 l 267 122 z "},"य़":{"ha":908,"x_min":-56,"x_max":908,"o":"m 0 0 m 908 789 l 767 789 l 767 -58 l 742 -58 l 618 13 l 622 207 l 618 208 q 527 163 579 182 q 419 143 475 143 q 211 228 304 143 q 68 461 118 313 q 217 534 161 490 q 274 639 274 578 q 255 710 274 676 q 196 789 236 744 l -4 789 l -56 888 l -56 913 l 856 913 l 908 813 l 908 789 m 358 268 q 503 301 433 268 q 621 379 574 335 l 621 789 l 307 789 l 307 786 q 418 599 418 665 q 353 476 418 533 q 210 388 288 418 q 257 300 214 332 q 358 268 300 268 m 226 68 l 103 -60 l -24 68 l 101 193 l 226 68 z "},"ॹ":{"ha":1032,"x_min":-56,"x_max":1032,"o":"m 1032 788 l 889 788 l 889 -60 l 865 -60 l 743 10 l 743 496 l 474 496 q 568 382 533 440 q 603 275 603 324 q 578 166 603 214 q 510 92 553 118 q 417 65 467 65 q 173 217 268 65 q 22 576 78 369 l 83 597 q 212 322 138 439 q 386 204 286 204 q 461 235 432 204 q 490 313 490 267 q 420 449 490 378 q 264 569 350 519 l 288 622 l 743 622 l 743 789 l -4 789 l -56 888 l -56 913 l 979 913 l 1032 813 l 1032 788 m 361 -62 l 250 -176 l 138 -64 l 249 49 l 361 -62 m 551 49 l 664 -62 l 553 -176 l 440 -64 l 551 49 m 400 -106 l 513 -217 l 401 -331 l 289 -218 l 400 -106 z "},"ॺ":{"ha":908,"x_min":-56,"x_max":908,"o":"m 908 813 l 908 789 l 767 789 l 767 -58 l 742 -58 l 618 13 l 622 207 l 618 208 q 527 163 579 182 q 419 143 475 143 q 211 228 304 143 q 68 461 118 313 q 217 534 161 490 q 274 639 274 578 q 255 710 274 676 q 196 789 236 744 l -4 789 l -56 888 l -56 913 l 856 913 l 908 813 m 307 786 q 354 731 332 758 l 621 417 l 621 789 l 307 789 l 307 786 m 358 268 q 489 295 425 268 q 600 361 553 322 l 417 579 q 344 467 407 519 q 210 388 281 415 q 257 300 214 332 q 358 268 300 268 z "},"ॻ":{"ha":892,"x_min":-56,"x_max":892,"o":"m 892 813 l 892 789 l 750 789 l 750 -69 l 83 -69 l 42 8 l 42 33 l 601 33 l 601 789 l 315 789 q 343 393 343 536 q 316 284 343 333 q 213 235 289 235 q 124 264 160 235 q 70 335 88 293 q 53 413 53 376 q 61 476 53 451 l 197 458 l 197 789 l -4 789 l -56 888 l -56 913 l 838 913 l 892 813 z "},"ॼ":{"ha":1032,"x_min":-56,"x_max":1032,"o":"m 1032 813 l 1032 789 l 890 789 l 890 -108 l 83 -108 l 42 -31 l 42 -6 l 743 -6 l 743 497 l 475 497 q 568 384 533 442 q 603 275 603 326 q 578 166 603 214 q 510 92 553 118 q 417 65 467 65 q 173 217 268 65 q 22 576 78 369 l 83 597 q 212 322 138 439 q 386 204 286 204 q 461 235 432 204 q 490 313 490 267 q 420 449 490 378 q 264 569 350 519 l 288 622 l 743 622 l 743 789 l -4 789 l -56 888 l -56 913 l 979 913 l 1032 813 z "},"ॾ":{"ha":849,"x_min":-56,"x_max":849,"o":"m 849 813 l 849 789 l 685 789 l 685 529 l 325 529 q 224 436 224 529 q 240 382 224 410 q 275 354 257 354 q 350 362 314 354 q 449 386 386 369 q 531 408 497 400 q 596 415 564 415 q 674 377 633 415 q 742 281 715 339 q 768 167 768 222 q 706 -4 767 60 q 536 -68 644 -68 q 289 1 417 -68 q 33 215 161 69 l 83 263 q 282 106 189 151 q 475 61 375 61 q 626 96 558 61 q 693 197 693 131 q 678 249 693 222 q 642 285 664 275 q 572 276 603 283 q 489 254 542 269 q 411 233 443 240 q 344 226 379 226 q 257 265 310 226 q 165 360 204 303 q 126 475 126 418 q 169 613 126 567 q 278 658 211 658 l 538 658 l 538 789 l -4 789 l -56 888 l -56 913 l 797 913 l 849 813 m 807 -240 l 807 -265 l 82 -265 l 40 -189 l 40 -164 l 767 -164 l 807 -240 z "},"ॿ":{"ha":929,"x_min":-56,"x_max":929,"o":"m 929 813 l 929 789 l 786 789 l 786 -69 l 83 -69 l 42 8 l 42 33 l 635 33 l 642 236 l 636 239 q 542 174 575 194 q 467 138 510 153 q 375 122 424 122 q 237 154 304 122 q 126 247 169 186 q 82 389 82 307 q 121 545 82 478 q 221 648 160 613 q 344 683 282 683 q 508 627 431 683 q 638 506 585 571 l 639 506 l 639 789 l -4 789 l -56 888 l -56 913 l 875 913 l 929 813 m 417 543 q 324 531 374 543 l 485 288 q 640 413 576 336 l 640 415 q 538 504 601 465 q 417 543 474 543 m 274 513 q 182 443 215 486 q 149 357 149 400 q 196 272 149 306 q 317 239 243 239 q 438 265 374 239 l 274 513 z "},"⁄":{"ha":644,"x_min":3,"x_max":644,"o":"m 644 1243 l 113 -232 l 3 -200 l 536 1275 l 644 1243 z "},"½":{"ha":1806,"x_min":168,"x_max":1692,"o":"m 1193 1243 l 660 -232 l 551 -200 l 1083 1275 l 1193 1243 m 360 581 l 360 988 q 186 957 267 975 l 168 1039 q 344 1102 231 1056 q 483 1169 458 1149 l 526 1158 l 525 579 l 694 558 l 694 488 l 179 488 l 179 558 l 360 581 m 1018 88 q 1304 271 1175 174 q 1433 449 1433 368 q 1394 538 1433 508 q 1296 567 1356 567 q 1178 536 1239 567 q 1075 456 1118 506 l 1022 522 q 1149 634 1061 585 q 1332 683 1238 683 q 1542 626 1476 683 q 1608 492 1608 569 q 1555 345 1608 413 q 1416 221 1501 278 q 1190 88 1331 164 l 1531 124 l 1607 221 l 1692 192 l 1651 -1 l 1051 -1 l 1018 88 z "},"¼":{"ha":1806,"x_min":168,"x_max":1668,"o":"m 1193 1242 l 660 -232 l 551 -194 l 1083 1275 l 1193 1242 m 360 581 l 360 988 q 186 957 267 975 l 168 1039 q 344 1102 231 1056 q 483 1169 458 1149 l 526 1158 l 525 579 l 694 558 l 694 488 l 179 488 l 179 558 l 360 581 m 1407 742 l 1489 658 l 1156 261 l 1104 194 l 1357 218 l 1361 375 l 1500 390 l 1500 232 l 1667 246 l 1668 108 l 1500 108 l 1500 -119 l 1350 -119 l 1354 108 l 1007 108 l 971 186 l 1347 740 l 1407 742 z "},"¾":{"ha":1846,"x_min":154,"x_max":1668,"o":"m 1192 1243 l 658 -232 l 550 -200 l 1082 1275 l 1192 1243 m 181 536 q 264 516 213 525 q 349 507 315 507 q 497 547 442 510 q 551 646 551 583 q 517 726 551 697 q 426 760 482 754 l 378 750 l 285 729 l 286 822 q 449 886 393 844 q 506 992 506 928 q 471 1049 506 1032 q 388 1067 436 1067 q 286 1049 342 1067 q 193 1006 231 1031 l 154 1075 q 286 1140 203 1114 q 438 1165 369 1165 q 556 1143 504 1165 q 638 1083 608 1121 q 668 999 668 1044 q 632 894 668 938 q 522 821 596 850 q 631 793 588 821 q 696 724 675 765 q 717 644 717 683 q 676 524 717 576 q 563 442 636 471 q 393 413 489 413 q 282 424 340 413 q 181 453 224 435 l 181 536 m 1407 742 l 1489 658 l 1156 261 l 1104 194 l 1357 218 l 1361 375 l 1500 390 l 1500 232 l 1667 246 l 1668 108 l 1500 108 l 1500 -119 l 1350 -119 l 1354 108 l 1007 108 l 971 186 l 1347 740 l 1407 742 z "},"¹":{"ha":746,"x_min":131,"x_max":657,"o":"m 322 581 l 322 988 q 149 957 225 974 l 131 1039 q 307 1102 193 1056 q 446 1169 421 1149 l 489 1158 l 488 579 l 657 558 l 657 488 l 142 488 l 142 558 l 322 581 z "},"²":{"ha":847,"x_min":97,"x_max":771,"o":"m 97 578 q 382 758 250 658 q 514 939 514 858 q 475 1027 514 999 q 375 1056 436 1056 q 258 1025 318 1056 q 154 944 197 994 l 101 1013 q 229 1124 140 1075 q 411 1172 318 1172 q 622 1116 557 1172 q 688 982 688 1060 q 634 835 688 903 q 496 711 581 768 q 269 576 411 654 l 611 615 l 686 711 l 771 682 l 731 489 l 131 489 l 97 578 z "},"³":{"ha":775,"x_min":121,"x_max":683,"o":"m 147 536 q 231 516 179 525 q 315 507 282 507 q 463 547 408 510 q 518 646 518 583 q 483 726 518 697 q 393 760 449 754 l 344 750 l 251 729 l 253 822 q 416 886 360 844 q 472 992 472 928 q 438 1049 472 1032 q 354 1067 403 1067 q 253 1049 308 1067 q 160 1006 197 1031 l 121 1075 q 253 1140 169 1114 q 404 1165 336 1165 q 523 1143 471 1165 q 605 1083 575 1121 q 635 999 635 1044 q 599 894 635 938 q 489 821 563 850 q 598 793 554 821 q 663 724 642 765 q 683 644 683 683 q 643 524 683 576 q 529 442 603 471 q 360 413 456 413 q 249 424 307 413 q 147 453 190 435 l 147 536 z "},"०":{"ha":876,"x_min":132,"x_max":746,"o":"m 132 375 q 183 526 132 449 q 309 653 233 603 q 451 703 385 703 q 597 664 529 703 q 705 556 664 625 q 746 401 746 488 q 694 242 746 321 q 565 115 642 164 q 425 65 489 65 q 275 106 342 65 q 170 218 208 147 q 132 375 132 289 m 269 443 q 303 298 269 360 q 382 204 336 236 q 465 172 428 172 q 535 192 501 172 q 588 247 568 213 q 608 325 608 282 q 580 458 608 396 q 506 558 551 521 q 413 596 461 596 q 312 553 354 596 q 269 443 269 510 z "},"१":{"ha":876,"x_min":181,"x_max":728,"o":"m 413 940 q 531 905 467 940 q 640 810 596 869 q 685 688 685 751 q 628 532 685 621 q 503 368 571 443 l 394 249 l 594 43 l 624 10 q 703 -86 678 -51 q 728 -150 728 -121 q 695 -227 728 -199 q 617 -256 663 -256 q 541 -229 575 -256 q 488 -161 507 -203 l 488 -158 l 586 -79 q 483 47 542 -12 q 318 203 424 107 q 229 283 232 281 l 229 285 l 415 476 l 392 492 q 278 572 319 539 q 208 645 236 604 q 181 735 181 686 q 212 840 181 793 q 296 913 243 886 q 413 940 349 940 m 447 856 q 363 808 397 856 q 328 697 328 761 q 368 610 328 658 q 461 533 408 563 q 522 639 499 585 q 544 738 544 693 q 516 822 544 788 q 447 856 488 856 z "},"२":{"ha":876,"x_min":110,"x_max":738,"o":"m 442 942 q 574 883 504 942 q 690 739 643 824 q 738 585 738 654 q 693 434 738 510 q 573 304 649 358 q 410 236 497 250 l 668 -153 l 540 -228 l 332 231 q 194 266 251 233 q 138 343 138 299 q 153 402 138 375 q 194 445 169 429 q 238 461 218 461 q 264 457 247 461 l 332 353 q 477 419 411 374 q 581 524 543 464 q 618 647 618 585 q 588 761 618 714 q 501 808 557 808 q 361 780 436 808 q 214 706 286 751 l 110 854 q 292 921 218 900 q 442 942 365 942 z "},"३":{"ha":876,"x_min":72,"x_max":807,"o":"m 807 313 q 756 174 807 242 q 622 62 706 106 q 447 17 539 18 l 493 -22 l 551 -196 l 474 -119 l 411 18 q 269 59 328 24 q 211 144 211 94 q 227 197 211 174 q 266 233 243 221 q 310 246 289 246 q 333 243 319 246 l 404 133 q 538 182 474 147 q 643 265 603 217 q 683 367 683 313 q 648 442 683 415 q 560 468 613 468 q 525 467 536 468 q 401 424 467 439 q 281 408 335 408 q 224 438 249 408 q 199 517 199 468 q 276 563 199 540 q 472 594 354 586 q 554 714 554 642 q 524 785 554 761 q 436 810 494 810 q 315 797 381 810 q 149 757 250 783 l 72 903 q 376 938 249 938 q 506 890 435 938 q 625 774 576 842 q 674 651 674 706 q 619 533 674 588 q 759 406 714 465 q 804 311 804 346 l 807 313 z "},"४":{"ha":876,"x_min":-1,"x_max":853,"o":"m 519 503 q 685 326 633 394 q 738 208 738 258 q 696 112 738 153 q 589 50 654 71 q 454 29 524 29 q 331 59 394 29 q 224 142 267 89 q 182 258 182 194 q 222 381 182 318 q 361 544 261 443 q 205 672 289 611 q 108 743 121 733 q -1 824 31 797 l 63 904 l 153 826 q 417 600 308 696 l 515 694 q 789 965 721 896 l 853 814 q 522 507 674 650 l 519 503 m 403 114 q 478 139 442 114 q 538 204 515 164 q 561 288 561 244 q 486 418 561 343 l 460 446 q 339 306 371 357 q 307 206 307 254 q 336 140 307 167 q 404 114 365 114 l 403 114 z "},"५":{"ha":876,"x_min":138,"x_max":922,"o":"m 817 -242 l 603 210 q 525 164 567 181 q 444 147 483 147 q 313 183 386 147 q 189 278 240 218 q 138 408 138 338 q 182 653 138 506 q 289 932 226 801 l 414 831 q 302 568 347 694 q 257 360 257 442 q 288 285 257 319 q 353 249 319 250 q 436 274 385 249 q 542 339 488 299 l 482 463 q 522 488 497 478 q 576 499 547 499 q 672 467 633 499 q 711 381 711 435 q 695 319 711 351 q 651 256 679 286 l 922 -189 l 817 -242 z "},"६":{"ha":876,"x_min":42,"x_max":890,"o":"m 364 940 q 425 939 406 940 l 508 788 q 433 794 460 794 q 237 763 303 794 q 171 650 171 732 q 199 575 171 613 q 260 521 226 538 q 397 580 321 558 q 533 601 472 601 q 589 574 565 601 q 613 497 613 546 q 574 463 613 481 q 474 431 535 444 q 353 417 414 418 q 268 283 268 363 q 291 216 268 250 q 351 159 314 182 q 425 136 388 136 q 597 172 496 136 l 547 272 q 651 307 596 307 q 737 283 703 307 q 771 211 771 258 q 707 89 771 149 l 890 -176 l 794 -225 l 656 51 q 486 4 579 4 q 347 68 431 4 q 201 215 264 132 q 139 346 139 297 q 201 476 139 417 q 90 593 138 525 q 42 713 42 661 q 364 940 42 940 z "},"७":{"ha":876,"x_min":40,"x_max":838,"o":"m 106 942 q 199 474 135 654 q 343 216 263 294 q 507 138 424 138 q 681 210 624 138 q 747 400 738 282 q 640 360 694 360 q 543 383 592 360 q 454 442 494 406 q 363 556 392 497 q 333 701 333 615 q 365 801 333 756 q 442 873 396 846 q 533 900 489 900 q 654 869 604 900 q 746 768 704 838 q 812 598 786 700 q 838 407 838 496 q 794 188 838 279 q 681 50 750 96 q 538 4 613 4 q 302 113 406 4 q 131 428 199 222 q 40 919 64 633 l 106 942 m 613 772 q 529 750 565 772 q 474 692 493 728 q 454 619 454 657 q 483 523 454 557 q 579 489 513 489 q 661 508 615 489 q 742 561 707 528 q 690 713 726 654 q 613 772 653 772 z "},"८":{"ha":876,"x_min":89,"x_max":819,"o":"m 696 881 l 400 547 q 256 349 293 426 q 219 206 219 272 q 240 135 219 172 q 299 72 261 97 q 383 47 336 47 q 518 96 451 47 q 683 240 585 144 l 711 267 l 819 165 q 624 7 713 50 q 428 -36 535 -36 q 273 9 353 -36 q 141 123 193 54 q 89 257 89 192 q 243 561 89 390 l 654 1031 l 696 881 z "},"९":{"ha":876,"x_min":35,"x_max":858,"o":"m 294 975 q 415 932 347 975 q 531 822 483 889 q 579 690 579 756 q 543 579 579 632 q 449 492 507 526 q 326 449 390 458 q 725 69 571 229 q 858 -126 858 -64 q 826 -203 858 -175 q 747 -231 793 -231 q 672 -204 706 -231 q 619 -136 638 -178 l 619 -133 l 718 -56 q 476 206 644 47 q 161 488 307 364 q 80 573 107 535 q 44 647 53 611 q 35 733 35 683 q 65 851 35 796 q 153 941 94 907 q 294 975 213 975 m 356 847 q 250 822 296 847 q 180 755 204 796 q 156 671 156 714 q 204 546 156 604 q 319 585 265 554 q 406 657 374 615 q 439 736 439 699 q 416 815 439 783 q 356 847 393 847 z "},"*":{"ha":864,"x_min":82,"x_max":783,"o":"m 400 825 l 351 767 l 164 618 l 83 728 l 308 847 l 379 865 l 310 883 l 82 993 l 161 1111 l 349 963 l 400 908 l 374 990 l 354 1214 l 501 1214 l 483 990 l 451 908 l 513 971 l 690 1110 l 783 992 l 547 886 l 472 865 l 547 846 l 782 728 l 689 619 l 506 768 l 453 825 l 479 750 l 501 518 l 354 518 l 374 750 l 400 825 z "},"\\":{"ha":556,"x_min":21,"x_max":538,"o":"m 538 -246 l 396 -246 l 21 1085 l 163 1085 l 538 -246 z "},"·":{"ha":497,"x_min":132,"x_max":363,"o":"m 256 685 q 335 657 307 685 q 363 582 363 629 q 325 498 363 531 q 239 465 288 465 q 163 492 194 465 q 132 564 132 519 q 171 649 132 613 q 256 685 210 685 z "},"•":{"ha":589,"x_min":125,"x_max":469,"o":"m 289 328 q 174 376 222 328 q 125 490 125 424 q 150 583 125 540 q 217 652 175 626 q 306 678 258 678 q 421 631 372 678 q 469 517 469 583 q 444 422 469 465 q 378 353 419 379 q 289 328 336 328 z "},":":{"ha":503,"x_min":136,"x_max":368,"o":"m 264 732 q 340 704 314 732 q 368 632 367 676 q 330 547 368 581 q 243 514 292 514 q 168 541 200 514 q 136 613 136 568 q 176 697 136 661 q 264 732 217 732 m 261 201 q 340 173 313 201 q 368 99 367 144 q 330 14 368 47 q 243 -19 292 -19 q 168 8 200 -19 q 136 81 136 36 q 175 165 136 129 q 261 201 214 201 z "},",":{"ha":490,"x_min":113,"x_max":385,"o":"m 226 200 q 344 108 304 178 q 385 -37 385 39 q 317 -239 383 -153 q 151 -361 250 -325 l 113 -318 l 113 -293 q 198 -221 164 -275 q 232 -103 232 -167 q 201 -11 232 -53 q 128 33 169 31 l 128 72 l 226 200 z "},"…":{"ha":1503,"x_min":138,"x_max":1367,"o":"m 261 203 q 340 174 313 203 q 368 100 368 146 q 330 17 368 50 q 243 -17 292 -17 q 169 11 200 -17 q 138 82 138 39 q 176 167 138 131 q 261 203 215 203 m 761 203 q 840 174 813 203 q 868 100 868 146 q 831 17 868 50 q 743 -17 793 -17 q 669 11 700 -17 q 639 82 639 39 q 678 167 639 131 q 761 203 717 203 m 1261 203 q 1340 175 1313 203 q 1367 100 1367 147 q 1329 16 1367 49 q 1243 -17 1292 -17 q 1169 11 1200 -17 q 1138 82 1138 39 q 1156 142 1138 114 q 1203 187 1175 171 q 1261 203 1232 203 z "},"!":{"ha":504,"x_min":133,"x_max":367,"o":"m 293 351 l 197 351 l 133 1207 l 363 1207 l 293 351 m 260 201 q 339 174 311 201 q 367 100 367 146 q 328 15 367 49 q 242 -18 290 -18 q 167 10 199 -18 q 136 82 136 38 q 175 165 136 129 q 260 201 214 201 z "},"¡":{"ha":507,"x_min":133,"x_max":374,"o":"m 267 976 q 347 949 319 976 q 374 875 374 921 q 336 790 374 824 q 250 757 299 757 q 174 784 206 757 q 143 856 143 811 q 182 940 143 904 q 267 976 221 976 m 363 -286 l 133 -286 l 203 601 l 299 601 l 363 -286 z "},"#":{"ha":985,"x_min":93,"x_max":892,"o":"m 93 242 l 93 353 l 249 353 l 269 592 l 110 592 l 110 700 l 275 700 l 296 919 l 429 919 l 413 700 l 606 700 l 624 919 l 761 919 l 743 700 l 892 700 l 892 592 l 733 592 l 714 353 l 867 353 l 868 242 l 707 242 l 686 0 l 553 0 l 571 242 l 378 242 l 357 0 l 222 0 l 242 242 l 93 242 m 597 592 l 404 592 l 385 353 l 576 353 l 597 592 z "},".":{"ha":503,"x_min":136,"x_max":367,"o":"m 261 203 q 340 174 313 203 q 367 100 367 146 q 328 16 367 49 q 242 -17 290 -17 q 167 11 199 -17 q 136 83 136 39 q 175 167 136 132 q 261 203 214 203 z "},"?":{"ha":699,"x_min":72,"x_max":636,"o":"m 215 1251 q 449 1193 354 1249 q 590 1050 543 1138 q 636 863 636 963 q 630 792 636 817 q 606 747 624 767 q 549 707 588 728 q 478 672 525 694 q 368 611 401 635 q 335 556 335 588 q 349 474 335 517 q 379 394 363 432 q 400 344 396 356 l 293 344 q 213 453 251 381 q 174 572 174 526 q 233 653 175 619 q 393 725 290 688 q 468 754 443 743 q 508 778 497 768 q 519 801 519 788 q 478 947 521 878 q 360 1060 436 1017 q 188 1103 283 1103 q 76 1085 111 1103 l 72 1219 q 128 1242 85 1233 q 215 1251 172 1251 m 381 203 q 460 174 432 203 q 488 100 488 146 q 449 15 488 49 q 363 -18 411 -18 q 288 10 319 -18 q 257 82 257 38 q 296 167 257 131 q 381 203 335 203 z "},"¿":{"ha":699,"x_min":68,"x_max":632,"o":"m 333 981 q 413 952 385 981 q 440 878 440 924 q 402 793 440 826 q 315 760 364 760 q 241 788 272 760 q 210 860 210 815 q 249 944 210 908 q 333 981 288 981 m 411 621 q 492 513 453 586 q 531 393 531 440 q 474 313 529 346 q 317 243 418 281 q 279 229 306 239 q 236 211 253 219 q 196 188 207 197 q 185 164 185 178 q 225 18 182 88 q 344 -94 268 -51 q 515 -137 421 -137 q 628 -119 593 -137 l 632 -253 q 576 -276 619 -268 q 488 -285 532 -285 q 256 -228 350 -283 q 115 -84 161 -172 q 68 104 68 4 q 74 174 68 149 q 97 218 79 199 q 154 258 115 238 q 194 278 175 269 q 228 296 213 288 q 336 355 303 332 q 369 411 369 378 q 355 491 369 449 q 324 572 340 533 q 303 621 308 610 l 411 621 z "},"\"":{"ha":854,"x_min":171,"x_max":683,"o":"m 358 1208 l 317 653 l 213 653 l 171 1208 l 358 1208 m 683 1208 l 642 653 l 538 653 l 496 1208 l 683 1208 z "},"'":{"ha":531,"x_min":171,"x_max":358,"o":"m 358 1208 l 317 653 l 213 653 l 171 1208 l 358 1208 z "},";":{"ha":508,"x_min":138,"x_max":411,"o":"m 261 732 q 341 704 314 732 q 368 631 368 676 q 330 547 368 579 q 243 514 292 514 q 169 541 200 514 q 138 614 138 568 q 176 697 138 663 q 261 732 215 732 m 253 200 q 370 110 329 178 q 411 -33 411 42 q 344 -237 411 -150 q 179 -361 276 -325 l 139 -318 l 139 -293 q 224 -220 190 -275 q 258 -103 258 -165 q 227 -11 258 -53 q 156 33 196 31 l 156 72 l 253 200 z "},"/":{"ha":556,"x_min":21,"x_max":538,"o":"m 538 1085 l 163 -246 l 21 -246 l 396 1085 l 538 1085 z "},"_":{"ha":961,"x_min":-14,"x_max":974,"o":"m 974 -253 l -14 -253 l -14 -131 l 974 -131 l 974 -253 z "},"{":{"ha":725,"x_min":54,"x_max":556,"o":"m 206 389 q 161 440 206 417 q 54 475 117 463 l 54 583 q 206 664 206 611 l 206 1025 q 239 1159 206 1122 q 357 1196 272 1196 q 428 1190 397 1196 q 515 1169 458 1185 l 556 1158 l 556 1090 l 354 1090 l 354 658 q 325 590 354 614 q 258 549 296 567 q 207 526 219 532 q 317 465 281 494 q 354 390 354 436 l 354 -40 l 556 -40 l 556 -110 q 446 -138 483 -131 q 361 -146 408 -146 q 240 -108 274 -146 q 206 29 206 -69 l 206 389 z "},"}":{"ha":692,"x_min":133,"x_max":636,"o":"m 336 390 q 372 467 336 439 q 482 526 408 496 q 398 567 425 551 q 353 603 371 582 q 336 658 336 625 l 336 1090 l 135 1090 l 133 1158 q 189 1173 146 1161 q 267 1190 232 1185 q 333 1196 303 1196 q 451 1158 418 1196 q 485 1025 485 1121 l 485 664 q 636 583 485 613 l 636 475 q 529 440 574 463 q 485 389 485 417 l 485 29 q 450 -108 485 -71 q 329 -146 415 -146 q 247 -138 285 -146 q 133 -110 208 -131 l 135 -40 l 336 -40 l 336 390 z "},"[":{"ha":643,"x_min":150,"x_max":501,"o":"m 150 1014 q 165 1124 150 1086 q 213 1178 179 1163 q 308 1194 247 1194 q 388 1187 351 1194 q 457 1169 425 1179 q 500 1157 489 1160 l 499 1089 l 297 1089 l 297 -32 l 499 -35 l 501 -103 q 310 -139 399 -139 q 212 -122 246 -139 q 164 -63 178 -104 q 150 54 150 -22 l 150 1014 z "},"]":{"ha":643,"x_min":142,"x_max":493,"o":"m 343 1089 l 143 1089 l 142 1157 q 191 1172 153 1160 q 265 1189 229 1183 q 333 1194 300 1194 q 428 1178 394 1194 q 478 1124 463 1163 q 493 1014 493 1085 l 493 54 q 479 -63 493 -22 q 431 -122 465 -104 q 332 -139 397 -139 q 142 -103 242 -139 l 143 -35 l 343 -32 l 343 1089 z "},"(":{"ha":599,"x_min":89,"x_max":515,"o":"m 435 -225 q 278 -87 357 -182 q 144 154 199 7 q 89 489 89 301 q 146 800 89 654 q 282 1047 203 946 q 429 1188 361 1147 l 501 1138 q 390 1007 449 1099 q 292 781 332 915 q 251 488 251 646 q 294 197 251 332 q 398 -33 338 61 q 515 -171 458 -126 l 435 -225 z "},")":{"ha":599,"x_min":83,"x_max":510,"o":"m 97 -172 q 208 -42 150 -135 q 307 185 267 50 q 347 478 347 319 q 304 767 347 632 q 200 997 261 903 q 83 1135 139 1092 l 164 1190 q 321 1051 242 1146 q 455 810 400 957 q 510 476 510 663 q 453 165 510 311 q 317 -81 396 19 q 169 -222 238 -182 l 97 -172 z "},"—":{"ha":1633,"x_min":122,"x_max":1511,"o":"m 1511 614 l 1511 492 l 122 492 l 122 614 l 1511 614 z "},"–":{"ha":967,"x_min":122,"x_max":844,"o":"m 844 614 l 844 492 l 122 492 l 124 614 l 844 614 z "},"-":{"ha":861,"x_min":122,"x_max":739,"o":"m 739 614 l 739 492 l 122 492 l 122 614 l 739 614 z "},"­":{"ha":856,"x_min":122,"x_max":739,"o":"m 122 492 m 739 614 l 739 492 l 122 492 l 122 614 l 739 614 z "},"«":{"ha":1349,"x_min":163,"x_max":1186,"o":"m 624 746 l 667 675 l 333 417 l 667 169 l 624 93 l 163 339 l 163 486 l 624 746 m 1143 746 l 1186 675 l 854 417 l 1186 169 l 1143 93 l 682 339 l 682 486 l 1143 746 z "},"»":{"ha":1349,"x_min":161,"x_max":1185,"o":"m 493 421 l 161 669 l 204 746 l 665 500 l 665 353 l 204 93 l 161 163 l 493 421 m 681 669 l 724 746 l 1185 500 l 1185 353 l 724 93 l 681 163 l 1013 421 l 681 669 z "},"‹":{"ha":829,"x_min":163,"x_max":667,"o":"m 624 746 l 667 675 l 333 417 l 667 169 l 624 93 l 163 339 l 163 486 l 624 746 z "},"›":{"ha":829,"x_min":161,"x_max":665,"o":"m 493 421 l 161 669 l 204 746 l 665 500 l 665 353 l 204 93 l 161 163 l 493 421 z "},"„":{"ha":939,"x_min":136,"x_max":803,"o":"m 267 231 q 383 138 342 210 q 425 -8 425 67 q 392 -158 425 -87 q 303 -278 358 -228 q 183 -353 247 -329 l 136 -304 l 136 -282 q 223 -205 185 -267 q 261 -82 261 -143 q 231 12 261 -31 q 161 57 200 54 l 161 96 l 267 231 m 643 231 q 762 137 721 208 q 803 -11 803 65 q 732 -222 803 -129 q 560 -353 661 -314 l 514 -304 l 514 -282 q 600 -205 561 -267 q 639 -82 639 -143 q 608 11 639 -32 q 539 57 578 54 l 539 96 l 643 231 z "},"“":{"ha":939,"x_min":135,"x_max":801,"o":"m 294 594 q 176 690 217 617 q 135 839 135 763 q 206 1046 135 954 q 378 1176 276 1138 l 424 1128 l 424 1107 q 336 1028 374 1089 q 299 906 299 967 q 329 813 299 856 q 399 767 360 771 l 399 728 l 294 594 m 671 594 q 553 690 594 617 q 513 839 513 763 q 583 1046 513 954 q 754 1176 654 1138 l 801 1128 l 801 1107 q 714 1028 751 1089 q 676 906 676 967 q 708 813 676 856 q 778 767 739 771 l 778 728 l 671 594 z "},"”":{"ha":950,"x_min":138,"x_max":815,"o":"m 138 674 q 224 751 186 689 q 263 875 263 813 q 232 967 263 925 q 163 1014 201 1010 l 163 1051 l 267 1186 q 385 1092 344 1164 q 426 946 426 1021 q 356 733 426 826 q 183 603 285 640 l 138 651 l 138 674 m 526 674 q 613 751 574 689 q 651 875 651 814 q 621 967 651 924 q 551 1014 590 1010 l 551 1051 l 656 1186 q 774 1092 732 1164 q 815 946 815 1021 q 782 797 815 867 q 693 677 749 728 q 572 603 638 626 l 526 651 l 526 674 z "},"‘":{"ha":560,"x_min":135,"x_max":424,"o":"m 294 594 q 176 690 217 618 q 135 839 135 761 q 206 1047 136 956 q 378 1178 276 1138 l 424 1128 l 424 1107 q 337 1028 375 1090 q 299 906 299 967 q 329 814 299 857 q 399 767 360 771 l 399 728 l 294 594 z "},"’":{"ha":560,"x_min":139,"x_max":428,"o":"m 139 674 q 226 752 188 690 q 264 875 264 814 q 233 967 264 925 q 164 1014 203 1010 l 164 1053 l 268 1188 q 387 1093 346 1164 q 428 946 428 1022 q 357 735 428 828 q 185 604 286 643 l 139 653 l 139 674 z "},"‚":{"ha":561,"x_min":139,"x_max":428,"o":"m 268 229 q 387 134 346 206 q 428 -12 428 63 q 360 -218 428 -131 q 185 -349 292 -306 l 139 -299 l 139 -278 q 226 -201 189 -258 q 263 -83 263 -144 q 233 10 263 -32 q 164 56 203 51 l 164 94 l 268 229 z "},"ॽ":{"ha":779,"x_min":129,"x_max":660,"o":"m 356 929 q 489 876 417 929 q 610 741 561 822 q 660 585 660 660 q 623 468 660 522 q 533 386 586 414 q 396 340 500 368 l 396 -58 l 371 -58 l 249 11 l 249 443 l 264 467 q 372 481 318 471 q 463 511 426 492 q 530 567 501 532 q 558 643 558 601 q 536 722 558 685 q 478 781 514 758 q 407 804 443 804 q 301 778 351 804 q 200 701 251 751 l 129 838 q 244 900 174 871 q 356 929 315 929 z "},"।":{"ha":728,"x_min":360,"x_max":507,"o":"m 507 883 l 507 -58 l 482 -58 l 360 11 l 360 951 l 386 951 l 507 883 z "},"॥":{"ha":1094,"x_min":360,"x_max":874,"o":"m 507 883 l 507 -58 l 482 -58 l 360 11 l 360 951 l 386 951 l 507 883 m 874 883 l 874 -58 l 847 -58 l 726 11 l 726 951 l 753 951 l 874 883 z "},"॰":{"ha":621,"x_min":85,"x_max":538,"o":"m 85 378 q 125 490 85 436 q 221 576 165 543 q 318 610 276 610 q 424 584 374 610 q 506 510 475 558 q 538 394 538 461 q 497 278 538 333 q 401 191 457 224 q 303 158 344 158 q 196 186 246 158 q 115 264 146 214 q 85 378 85 314 m 200 422 q 222 331 200 369 q 275 271 244 292 q 328 250 306 250 q 391 278 361 250 q 421 347 421 307 q 401 431 421 390 q 352 495 382 471 q 294 519 322 519 q 230 491 260 519 q 200 422 200 463 z "},"ॱ":{"ha":431,"x_min":81,"x_max":331,"o":"m 331 849 l 207 722 l 81 849 l 206 975 l 331 849 z "}," ":{"ha":1389,"x_min":0,"x_max":0,"o":""}," ":{"ha":1389,"x_min":0,"x_max":0,"o":""}," ":{"ha":694,"x_min":0,"x_max":0,"o":""}," ":{"ha":694,"x_min":0,"x_max":0,"o":""}," ":{"ha":874,"x_min":0,"x_max":0,"o":""}," ":{"ha":347,"x_min":0,"x_max":0,"o":""}," ":{"ha":139,"x_min":0,"x_max":0,"o":""}," ":{"ha":490,"x_min":0,"x_max":0,"o":""}," ":{"ha":232,"x_min":0,"x_max":0,"o":""}," ":{"ha":310,"x_min":0,"x_max":0,"o":""}," ":{"ha":278,"x_min":0,"x_max":0,"o":""}," ":{"ha":463,"x_min":0,"x_max":0,"o":""},"‍":{"ha":294,"x_min":0,"x_max":0,"o":""},"‌":{"ha":294,"x_min":0,"x_max":0,"o":""},"":{"ha":0,"x_min":0,"x_max":0,"o":""},"¢":{"ha":781,"x_min":78,"x_max":706,"o":"m 349 -8 q 149 115 219 14 q 78 365 78 217 q 121 565 78 476 q 241 707 164 653 q 415 775 318 761 l 425 924 l 526 924 l 518 779 q 612 768 567 776 q 681 746 657 760 l 681 563 l 594 563 l 553 664 q 450 690 518 690 q 303 616 358 690 q 247 414 247 542 q 280 238 247 311 q 367 129 313 165 q 485 93 421 93 q 593 105 538 93 q 678 135 649 117 l 706 67 q 597 10 665 32 q 450 -15 529 -11 l 443 -146 l 342 -146 l 349 -8 z "},"¤":{"ha":988,"x_min":135,"x_max":853,"o":"m 343 694 q 488 735 408 735 q 639 688 575 735 l 778 824 l 853 746 l 715 610 q 757 468 757 546 q 713 319 757 389 l 843 189 l 767 113 l 636 243 q 488 199 567 199 q 343 242 410 199 l 211 110 l 135 185 l 264 315 q 217 468 217 385 q 264 619 217 550 l 136 750 l 210 826 l 343 694 m 488 621 q 384 575 428 621 q 340 468 340 529 q 384 360 340 406 q 488 314 428 314 q 590 360 547 314 q 633 468 633 406 q 590 576 633 531 q 488 621 547 621 z "},"$":{"ha":885,"x_min":107,"x_max":801,"o":"m 182 281 l 233 136 q 322 81 268 96 q 444 65 375 65 q 578 108 524 65 q 633 233 633 151 q 578 349 633 299 q 419 458 524 399 q 253 557 315 514 q 150 658 190 600 q 110 792 110 715 q 194 976 110 907 q 399 1060 279 1044 l 401 1183 l 524 1183 l 519 1060 q 647 1042 586 1056 q 736 1013 707 1029 l 736 810 l 658 810 l 601 944 q 538 973 582 963 q 450 983 493 983 q 327 947 382 983 q 271 835 272 911 q 327 713 271 765 q 488 606 383 661 q 660 504 600 544 q 760 407 719 464 q 801 275 801 350 q 709 67 801 142 q 472 -15 617 -7 l 465 -160 l 342 -160 l 347 -12 q 205 9 274 -7 q 107 42 136 25 l 107 281 l 182 281 z "},"€":{"ha":1017,"x_min":4,"x_max":919,"o":"m 626 1063 q 728 1054 682 1063 q 831 1032 774 1046 q 919 1014 886 1015 l 907 796 l 831 796 l 790 914 q 702 954 751 942 q 585 967 653 967 q 413 899 475 967 q 331 703 351 832 l 685 703 l 685 604 l 322 604 q 319 529 319 583 q 321 469 319 486 l 668 469 l 668 374 l 328 374 q 410 149 344 229 q 604 69 475 69 q 707 81 668 69 q 785 121 746 93 q 835 257 811 172 l 918 257 l 918 43 q 874 38 899 44 q 822 24 849 32 q 708 -8 764 4 q 572 -19 651 -19 q 281 85 392 -19 q 142 374 171 190 l 4 374 l 4 469 l 132 469 q 133 489 133 476 q 140 604 133 557 l 25 604 l 25 703 l 161 703 q 330 969 208 875 q 626 1063 451 1063 z "},"ƒ":{"ha":703,"x_min":103,"x_max":685,"o":"m 103 650 l 107 710 l 251 754 l 257 815 q 314 987 264 908 q 435 1111 364 1065 q 576 1157 507 1157 q 685 1140 656 1157 l 675 1003 q 622 1022 656 1014 q 547 1031 588 1031 q 483 1019 507 1031 q 444 976 458 1008 q 426 878 431 943 l 417 758 l 611 758 l 607 650 l 408 650 l 340 -242 l 175 -242 l 244 650 l 103 650 z "},"₹":{"ha":876,"x_min":164,"x_max":819,"o":"m 526 797 q 583 683 571 746 l 819 683 l 819 658 l 769 564 l 575 564 q 478 438 549 485 q 318 360 408 390 l 696 39 l 579 -65 l 268 274 q 221 341 236 308 q 203 394 206 374 l 210 400 q 334 457 263 414 q 433 563 406 500 l 165 563 l 165 586 l 215 682 l 433 682 q 354 793 411 736 l 164 793 l 164 817 l 214 913 l 818 913 l 818 888 l 768 793 l 526 797 z "},"£":{"ha":1003,"x_min":39,"x_max":928,"o":"m 621 1063 q 733 1049 685 1063 q 821 1003 782 1036 l 742 853 q 669 930 721 892 q 554 968 617 968 q 467 897 496 968 q 438 671 438 825 l 438 597 l 640 597 l 640 483 l 439 483 l 439 458 q 422 269 439 338 q 361 132 406 200 q 417 119 385 131 q 457 106 450 108 q 518 85 486 94 q 579 71 550 75 q 622 68 594 68 q 734 106 694 68 q 774 196 774 143 q 758 251 774 224 q 719 293 743 278 l 794 436 q 891 361 854 418 q 928 235 928 304 q 898 110 928 169 q 800 12 868 50 q 624 -26 732 -26 q 495 -10 550 -26 q 374 36 440 7 q 317 59 336 53 q 282 64 299 65 q 124 -21 217 -19 q 65 -6 90 -21 q 39 44 39 8 q 67 99 39 74 q 143 140 94 125 q 249 154 192 156 q 268 315 268 200 l 268 483 l 151 483 l 151 597 l 268 597 l 268 658 q 313 857 268 764 q 438 1006 357 950 q 621 1063 518 1063 z "},"¥":{"ha":983,"x_min":21,"x_max":940,"o":"m 400 96 l 400 249 l 128 249 l 128 344 l 400 344 l 400 449 l 392 490 l 128 490 l 128 588 l 340 588 l 104 957 l 21 969 l 21 1053 l 393 1053 l 393 971 l 303 958 l 467 671 l 501 588 l 517 588 l 558 676 q 646 842 590 735 q 707 957 667 878 l 606 969 l 606 1053 l 940 1053 l 940 969 l 846 947 l 628 588 l 840 588 l 840 490 l 575 490 l 574 460 l 574 344 l 840 344 l 840 249 l 574 249 l 574 97 l 724 72 l 724 0 l 258 0 l 258 72 l 400 96 z "},"≈":{"ha":896,"x_min":110,"x_max":782,"o":"m 110 683 q 163 751 125 718 q 249 806 200 785 q 343 826 297 826 q 411 811 382 826 q 476 767 440 796 q 528 731 506 743 q 575 718 550 718 q 721 788 643 718 l 776 718 q 683 618 751 661 q 544 575 615 575 q 478 590 506 575 q 415 632 450 604 q 362 669 385 657 q 310 682 339 682 q 236 664 269 682 q 165 614 203 646 l 110 683 m 115 372 q 168 440 131 407 q 254 493 206 472 q 349 514 303 514 q 417 499 388 514 q 482 454 446 483 q 534 419 513 431 q 581 407 556 407 q 726 476 649 407 l 782 407 q 689 306 757 350 q 550 263 621 263 q 482 277 510 263 q 419 319 454 292 q 368 357 392 344 q 315 369 344 369 q 240 351 274 369 q 171 301 207 333 l 115 372 z "},"~":{"ha":867,"x_min":100,"x_max":767,"o":"m 100 585 q 194 684 124 640 q 333 728 264 728 q 401 713 372 728 q 467 668 431 697 q 519 633 497 644 q 565 621 540 621 q 710 689 633 621 l 767 619 q 673 520 742 564 q 535 476 604 476 q 467 491 494 476 q 404 533 439 506 q 353 571 376 558 q 300 583 329 583 q 226 565 258 583 q 156 515 193 547 l 100 585 z "},"÷":{"ha":897,"x_min":122,"x_max":776,"o":"m 467 953 q 544 926 518 953 q 571 851 571 899 q 534 768 571 801 q 447 735 497 735 q 374 763 404 735 q 344 835 344 790 q 383 917 344 882 q 467 953 421 953 m 776 492 l 122 492 l 122 614 l 776 614 l 776 492 m 465 368 q 544 341 517 368 q 571 268 571 314 q 533 183 571 217 q 444 150 494 150 q 373 178 403 150 q 343 249 343 206 q 381 333 343 297 q 465 368 419 368 z "},"=":{"ha":861,"x_min":122,"x_max":739,"o":"m 739 756 l 739 635 l 122 635 l 122 756 l 739 756 m 739 454 l 739 332 l 122 332 l 122 454 l 739 454 z "},">":{"ha":901,"x_min":144,"x_max":801,"o":"m 636 515 l 144 738 l 144 893 l 801 561 l 801 468 l 144 132 l 144 283 l 636 515 z "},"≥":{"ha":901,"x_min":122,"x_max":781,"o":"m 571 661 l 124 835 l 124 979 l 781 697 l 781 628 l 124 344 l 124 489 l 571 661 m 776 228 l 776 106 l 122 106 l 122 228 l 776 228 z "},"∆":{"ha":1200,"x_min":103,"x_max":1097,"o":"m 575 1029 l 922 375 l 1097 11 l 456 0 l 103 10 l 396 675 l 575 1029 m 549 760 l 263 129 l 861 129 l 549 760 z "},"∞":{"ha":1335,"x_min":88,"x_max":1249,"o":"m 971 704 q 1120 669 1057 704 q 1216 574 1183 633 q 1249 443 1249 514 q 1206 295 1249 367 q 1093 179 1163 224 q 950 135 1024 135 q 790 185 861 135 q 647 322 718 235 q 513 184 578 233 q 374 135 449 135 q 223 171 288 135 q 123 267 158 207 q 88 397 88 326 q 131 544 88 472 q 244 660 175 615 q 388 704 314 704 q 547 656 476 704 q 689 518 618 607 q 828 654 761 604 q 971 704 896 704 m 936 590 q 743 453 850 590 q 875 303 817 358 q 994 249 933 249 q 1074 294 1049 249 q 1100 406 1100 340 q 1078 494 1100 451 q 1019 564 1057 538 q 936 590 981 590 m 351 588 q 267 541 297 588 q 236 433 236 494 q 260 342 236 386 q 324 272 285 299 q 410 244 364 244 q 594 386 494 244 l 576 410 q 459 541 510 494 q 351 588 408 588 z "},"∫":{"ha":765,"x_min":10,"x_max":757,"o":"m 561 1161 q 676 1140 621 1161 q 757 1063 731 1118 l 660 988 q 619 1045 653 1019 q 546 1071 585 1071 q 437 1019 464 1071 q 410 851 410 968 q 423 665 410 758 q 461 444 436 572 q 499 222 486 311 q 511 42 511 132 q 474 -141 511 -58 q 367 -272 436 -224 q 206 -319 297 -319 q 91 -298 146 -319 q 10 -221 36 -276 l 107 -144 q 149 -201 115 -175 q 219 -226 182 -226 q 330 -175 301 -226 q 358 -8 358 -124 q 345 167 358 79 q 306 393 332 256 q 266 619 279 528 q 253 800 253 711 q 292 983 253 900 q 401 1113 331 1065 q 561 1161 471 1161 z "},"<":{"ha":901,"x_min":100,"x_max":757,"o":"m 757 897 l 757 744 l 265 514 l 757 290 l 757 136 l 100 468 l 100 560 l 757 897 z "},"≤":{"ha":901,"x_min":122,"x_max":781,"o":"m 781 979 l 781 835 l 332 661 l 781 489 l 781 344 l 124 628 l 124 697 l 781 979 m 776 228 l 776 106 l 122 106 l 122 228 l 776 228 z "},"¬":{"ha":875,"x_min":122,"x_max":753,"o":"m 753 613 l 753 239 l 604 239 l 604 504 l 122 504 l 122 613 l 753 613 z "},"−":{"ha":861,"x_min":122,"x_max":739,"o":"m 739 614 l 739 492 l 122 492 l 122 614 l 739 614 z "},"×":{"ha":885,"x_min":122,"x_max":763,"o":"m 358 547 l 122 774 l 217 872 l 442 631 l 667 872 l 763 774 l 526 547 l 763 322 l 667 222 l 442 464 l 217 222 l 122 322 l 358 547 z "},"≠":{"ha":861,"x_min":122,"x_max":739,"o":"m 122 332 l 122 454 l 342 454 l 393 635 l 122 635 l 122 756 l 432 756 l 472 882 l 603 882 l 563 756 l 739 756 l 739 635 l 524 635 l 472 454 l 739 454 l 739 332 l 435 332 l 393 197 l 261 197 l 303 332 l 122 332 z "},"∂":{"ha":899,"x_min":53,"x_max":839,"o":"m 429 1171 q 740 1035 642 1171 q 839 672 839 900 q 792 338 839 496 q 638 76 744 179 q 363 -26 531 -26 q 203 12 274 -26 q 92 118 132 50 q 53 274 53 186 q 122 495 53 396 q 305 651 192 594 q 544 707 418 707 q 683 689 617 707 q 598 966 671 865 q 365 1067 525 1067 q 165 1013 250 1067 l 114 1079 q 260 1147 176 1122 q 429 1171 343 1171 m 478 604 q 342 572 404 604 q 244 476 281 539 q 208 326 208 414 q 238 202 208 260 q 320 110 268 144 q 438 76 372 76 q 607 179 551 76 q 679 435 663 282 l 686 538 q 478 604 589 604 z "}}}
